<?xml version="1.0" encoding="utf-8"?>
<!-- Generator: Adobe Illustrator 21.1.0, SVG Export Plug-In . SVG Version: 6.00 Build 0)  -->
<svg version="1.1" id="Layer_1" xmlns="http://www.w3.org/2000/svg" xmlns:xlink="http://www.w3.org/1999/xlink" x="0px" y="0px"
	 viewBox="0 0 564 255" style="enable-background:new 0 0 564 255;" xml:space="preserve">
<style type="text/css">
	.st0{fill:#F5F6F6;}
	.st1{fill:none;stroke:#0052CC;stroke-width:1.073;stroke-miterlimit:10;}
	.st2{fill:#0052CC;}
	.st3{fill:#333333;}
	.st4{fill:#CDCCCC;}
	.st5{fill:#FFAB00;}
	.st6{fill:#FFFFFF;}
	.st7{fill:#36B37E;}
	.st8{fill:none;stroke:#CDCCCC;stroke-width:1.342;stroke-miterlimit:10;}
	.st9{fill:#FFFFFF;stroke:#0052CC;stroke-width:1.073;stroke-miterlimit:10;}
</style>
<g>
	<path id="_x30_" class="st0" d="M265.9,115.5c0,2.3-1.9,4.2-4.2,4.2H134.4c-2.3,0-4.2-1.9-4.2-4.2V91c0-2.3,1.9-4.2,4.2-4.2h127.2
		c2.3,0,4.2,1.9,4.2,4.2v24.5H265.9z"/>
</g>
<g>
	<path id="_x30__1_" class="st1" d="M265.9,115.5c0,2.3-1.9,4.2-4.2,4.2H134.4c-2.3,0-4.2-1.9-4.2-4.2V91c0-2.3,1.9-4.2,4.2-4.2
		h127.2c2.3,0,4.2,1.9,4.2,4.2v24.5H265.9z"/>
</g>
<g>
	<path id="_x31_" class="st2" d="M159.5,106.9h-1.8v-8.5h1.8V106.9"/>
	<path id="_x32_" class="st2" d="M166.4,98.5h1.7v8.5h-1.8l-3.5-6v6h-1.7v-8.5h1.9l3.4,5.9L166.4,98.5"/>
	<path id="_x33_" class="st2" d="M175.1,106.9h-1.8v-8.5h3.9c1.6,0,2.6,1.1,2.6,2.7c0,0.8-0.4,2.7-2.7,2.7h-2V106.9 M176.7,102.4
		c1.3,0,1.3-0.9,1.3-1.3c0-0.8-0.5-1.2-1.6-1.2H175v2.5H176.7"/>
	<path id="_x34_" class="st2" d="M181.3,98.5h4.3c2.3,0,2.7,1.7,2.7,2.4c0,0.9-0.5,1.7-1.3,2c0.7,0.3,1.1,0.6,1.1,2.1
		c0,1.2,0,1.5,0.4,1.7v0.2h-2c-0.1-0.4-0.2-0.8-0.2-1.7c0-1.2-0.1-1.6-1.4-1.6H183v3.3h-1.7L181.3,98.5 M185.1,102.2
		c0.9,0,1.4-0.3,1.4-1.2c0-0.4-0.2-1.1-1.2-1.1H183v2.3L185.1,102.2"/>
	<path id="_x35_" class="st2" d="M193.4,98.2c1.1,0,4.1,0.5,4.1,4.5s-3,4.5-4.1,4.5s-4.1-0.5-4.1-4.5S192.3,98.2,193.4,98.2
		 M193.4,105.7c1,0,2.3-0.6,2.3-3s-1.3-3-2.3-3s-2.3,0.6-2.3,3S192.4,105.7,193.4,105.7"/>
	<path id="_x36_" class="st2" d="M203,102.4h3.5v4.6h-1.2l-0.2-1.1c-0.4,0.5-1.1,1.3-2.6,1.3c-2,0-3.9-1.5-3.9-4.4
		c0-2.3,1.3-4.5,4.1-4.5c2.6,0,3.6,1.7,3.7,2.9h-1.8c0-0.3-0.6-1.4-1.9-1.4c-1.3,0-2.4,0.9-2.4,3c0,2.3,1.3,2.9,2.5,2.9
		c0.4,0,1.7-0.2,2.1-1.9h-2L203,102.4L203,102.4z"/>
	<path id="_x37_" class="st2" d="M208.3,98.5h4.3c2.3,0,2.7,1.7,2.7,2.4c0,0.9-0.5,1.7-1.3,2c0.7,0.3,1.1,0.6,1.1,2.1
		c0,1.2,0,1.5,0.4,1.7v0.2h-2c-0.1-0.4-0.2-0.8-0.2-1.7c0-1.2-0.1-1.6-1.4-1.6H210v3.3h-1.7L208.3,98.5 M212.1,102.2
		c0.9,0,1.4-0.3,1.4-1.2c0-0.4-0.2-1.1-1.2-1.1H210v2.3L212.1,102.2"/>
	<path id="_x38_" class="st2" d="M223.2,100h-4.5v1.8h4.1v1.5h-4.1v2.2h4.7v1.5H217v-8.5h6.2V100"/>
	<path id="_x39_" class="st2" d="M226.2,104.3c0,0.5,0.2,1.4,1.8,1.4c0.8,0,1.8-0.2,1.8-1.1c0-0.7-0.6-0.8-1.5-1.1l-0.9-0.2
		c-1.4-0.3-2.7-0.6-2.7-2.5c0-0.9,0.5-2.6,3.3-2.6c2.6,0,3.3,1.7,3.3,2.7h-1.7c0-0.4-0.2-1.3-1.7-1.3c-0.7,0-1.5,0.2-1.5,1
		c0,0.7,0.5,0.8,0.9,0.9l2.1,0.5c1.2,0.3,2.2,0.8,2.2,2.3c0,2.6-2.6,2.8-3.3,2.8c-3.1,0-3.6-1.8-3.6-2.8L226.2,104.3"/>
	<path id="A" class="st2" d="M234.2,104.3c0,0.5,0.2,1.4,1.8,1.4c0.8,0,1.8-0.2,1.8-1.1c0-0.7-0.6-0.8-1.5-1.1l-0.9-0.2
		c-1.4-0.3-2.7-0.6-2.7-2.5c0-0.9,0.5-2.6,3.3-2.6c2.6,0,3.3,1.7,3.3,2.7h-1.7c0-0.4-0.2-1.3-1.7-1.3c-0.7,0-1.5,0.2-1.5,1
		c0,0.7,0.5,0.8,0.9,0.9l2.1,0.5c1.2,0.3,2.2,0.8,2.2,2.3c0,2.6-2.6,2.8-3.3,2.8c-3.1,0-3.6-1.8-3.6-2.8L234.2,104.3"/>
</g>
<g>
	<path class="st3" d="M39,12.7c-0.1-0.5-0.4-1.5-1.9-1.5c-0.9,0-2.1,0.6-2.1,3c0,1.5,0.6,2.9,2.1,2.9c1,0,1.7-0.6,1.9-1.6h1.8
		c-0.4,1.8-1.6,3.1-3.7,3.1c-2.3,0-3.9-1.5-3.9-4.5s1.7-4.5,3.9-4.5c2.5,0,3.6,1.7,3.7,3L39,12.7L39,12.7z"/>
	<path class="st3" d="M42,12.1h1.6v1.1c0.3-0.6,0.7-1.3,1.7-1.3c0.1,0,0.2,0,0.3,0v1.7c-0.1,0-0.3,0-0.5,0c-1.3,0-1.5,0.8-1.5,1.5
		v3.3H42V12.1"/>
	<path class="st3" d="M51.8,16.5c-0.4,1.5-1.7,2-2.8,2c-1.8,0-3.1-0.8-3.1-3.4c0-0.8,0.3-3.2,3-3.2c1.2,0,3,0.6,3,3.5v0.3h-4.3
		c0,0.5,0.1,1.5,1.5,1.5c0.5,0,0.9-0.2,1.1-0.7H51.8 M50.1,14.6c-0.1-1-0.7-1.3-1.3-1.3c-0.8,0-1.2,0.5-1.3,1.3H50.1"/>
	<path class="st3" d="M58,17.1c0,0.7,0.2,0.9,0.4,1v0.2h-1.8c-0.1-0.3-0.1-0.4-0.2-0.7c-0.4,0.4-0.9,0.9-2,0.9
		c-0.9,0-1.9-0.5-1.9-1.8c0-1.2,0.8-1.9,1.8-2l1.5-0.2c0.3,0,0.6-0.1,0.6-0.5c0-0.7-0.7-0.7-1.1-0.7c-0.8,0-1,0.5-1,0.9h-1.6
		c0.2-1.9,1.5-2.2,2.8-2.2c0.9,0,2.5,0.3,2.5,1.8V17.1 M56.4,15.3c-0.2,0.1-0.4,0.2-1.1,0.3c-0.6,0.1-1.1,0.3-1.1,0.9
		c0,0.6,0.4,0.8,0.8,0.8c0.7,0,1.5-0.5,1.5-1.2v-0.8L56.4,15.3z"/>
	<path class="st3" d="M61.3,12.1h1v1.2h-1v3.4c0,0.4,0,0.5,0.7,0.5c0.1,0,0.2,0,0.3,0v1.3c-0.3,0-0.5,0-0.8,0h-0.2
		c-1.4,0-1.7-0.5-1.7-1.4v-3.8h-0.9v-1.2h0.9v-1.7h1.7V12.1"/>
	<path class="st3" d="M68.6,16.5c-0.4,1.5-1.7,2-2.8,2c-1.8,0-3.1-0.8-3.1-3.4c0-0.8,0.3-3.2,3-3.2c1.2,0,3,0.6,3,3.5v0.3h-4.3
		c0,0.5,0.1,1.5,1.5,1.5c0.5,0,0.9-0.2,1.1-0.7H68.6 M67,14.6c-0.1-1-0.7-1.3-1.3-1.3c-0.8,0-1.2,0.5-1.3,1.3H67"/>
	<path class="st3" d="M159.9,58.3c0,0.5,0.2,1.4,1.8,1.4c0.8,0,1.8-0.2,1.8-1.1c0-0.7-0.6-0.8-1.5-1.1l-0.9-0.2
		c-1.4-0.3-2.7-0.6-2.7-2.5c0-0.9,0.5-2.6,3.3-2.6c2.6,0,3.3,1.7,3.3,2.7h-1.7c0-0.4-0.2-1.3-1.7-1.3c-0.7,0-1.5,0.2-1.5,1
		c0,0.7,0.5,0.8,0.9,0.9l2.1,0.5c1.2,0.3,2.2,0.8,2.2,2.3c0,2.6-2.6,2.8-3.3,2.8c-3.1,0-3.6-1.8-3.6-2.8L159.9,58.3"/>
	<path class="st3" d="M168.2,54.7h1v1.2h-1v3.4c0,0.4,0,0.5,0.7,0.5c0.1,0,0.2,0,0.3,0V61c-0.3,0-0.5,0-0.8,0h-0.2
		c-1.4,0-1.7-0.5-1.7-1.4v-3.8h-0.9v-1.2h0.9V53h1.7V54.7"/>
	<path class="st3" d="M175.4,59.7c0,0.7,0.2,0.9,0.4,1v0.2H174c-0.1-0.3-0.1-0.4-0.2-0.7c-0.4,0.4-0.9,0.9-2,0.9
		c-0.9,0-1.9-0.5-1.9-1.8c0-1.2,0.8-1.9,1.8-2l1.5-0.2c0.3,0,0.6-0.1,0.6-0.5c0-0.7-0.7-0.7-1.1-0.7c-0.8,0-1,0.5-1,0.9h-1.6
		c0.2-1.9,1.5-2.2,2.8-2.2c0.9,0,2.5,0.3,2.5,1.8V59.7 M173.8,57.9c-0.2,0.1-0.4,0.2-1.1,0.3c-0.6,0.1-1.1,0.3-1.1,0.9
		c0,0.6,0.4,0.8,0.8,0.8c0.7,0,1.5-0.5,1.5-1.2L173.8,57.9L173.8,57.9z"/>
	<path class="st3" d="M176.9,54.7h1.6v1.1c0.3-0.6,0.7-1.3,1.7-1.3c0.1,0,0.2,0,0.3,0v1.7c-0.1,0-0.3,0-0.5,0
		c-1.3,0-1.5,0.8-1.5,1.5V61h-1.7L176.9,54.7L176.9,54.7z"/>
	<path class="st3" d="M183.6,54.7h1v1.2h-1v3.4c0,0.4,0,0.5,0.7,0.5c0.1,0,0.2,0,0.3,0V61c-0.3,0-0.5,0-0.8,0h-0.2
		c-1.4,0-1.7-0.5-1.7-1.4v-3.8H181v-1.2h0.9V53h1.7V54.7"/>
	<path class="st3" d="M190.5,55.6c0.3-0.5,0.8-1.1,1.9-1.1c1.4,0,2.6,1.1,2.6,3.2c0,1.7-0.8,3.4-2.6,3.4c-1.2,0-1.6-0.6-1.8-1v3.2
		h-1.7v-8.7h1.6V55.6 M191.9,59.7c1.1,0,1.4-1.2,1.4-1.9c0-1-0.4-1.9-1.4-1.9c-1.1,0-1.4,1-1.4,2S190.9,59.7,191.9,59.7"/>
	<path class="st3" d="M196.1,54.7h1.6v1.1c0.3-0.6,0.7-1.3,1.7-1.3c0.1,0,0.2,0,0.3,0v1.7c-0.1,0-0.3,0-0.5,0
		c-1.3,0-1.5,0.8-1.5,1.5V61H196L196.1,54.7L196.1,54.7z"/>
	<path class="st3" d="M203.3,61.1c-1.7,0-3.2-1-3.2-3.3s1.5-3.3,3.2-3.3s3.2,1,3.2,3.3S205,61.1,203.3,61.1 M203.3,55.9
		c-1.3,0-1.5,1.1-1.5,1.9s0.2,1.9,1.5,1.9s1.5-1.1,1.5-1.9S204.6,55.9,203.3,55.9"/>
	<path class="st3" d="M213.5,54.7v6c0,1.1-0.1,2.9-3.2,2.9c-1.3,0-2.7-0.6-2.7-1.9h1.8c0.1,0.3,0.2,0.6,1.2,0.6
		c0.9,0,1.3-0.4,1.3-1.4V60c-0.3,0.5-0.7,0.9-1.7,0.9c-1.5,0-2.7-1.1-2.7-3.2c0-2.2,1.2-3.2,2.6-3.2c1.2,0,1.6,0.7,1.8,1.1v-0.9
		L213.5,54.7 M210.4,59.6c1.1,0,1.4-1,1.4-1.8c0-1-0.5-1.8-1.4-1.8c-0.6,0-1.3,0.4-1.3,1.9C209.1,58.6,209.4,59.6,210.4,59.6"/>
	<path class="st3" d="M214.9,54.7h1.6v1.1c0.3-0.6,0.7-1.3,1.7-1.3c0.1,0,0.2,0,0.3,0v1.7c-0.1,0-0.3,0-0.5,0
		c-1.3,0-1.5,0.8-1.5,1.5V61h-1.7L214.9,54.7L214.9,54.7z"/>
	<path class="st3" d="M224.7,59.1c-0.4,1.5-1.7,2-2.8,2c-1.8,0-3.1-0.8-3.1-3.4c0-0.8,0.3-3.2,3-3.2c1.2,0,3,0.6,3,3.5v0.3h-4.3
		c0,0.5,0.1,1.5,1.5,1.5c0.5,0,0.9-0.2,1.1-0.7L224.7,59.1 M223,57.2c-0.1-1-0.7-1.3-1.3-1.3c-0.8,0-1.2,0.5-1.3,1.3H223"/>
	<path class="st3" d="M229.4,56.6c-0.1-0.4-0.2-0.8-1.1-0.8c-0.9,0-1,0.3-1,0.6c0,1,3.9,0.3,3.9,2.6c0,1.8-1.8,2.2-2.8,2.2
		c-1.4,0-3-0.5-3-2.2h1.7c0,0.5,0.3,0.9,1.4,0.9c0.9,0,1.1-0.4,1.1-0.6c0-1.1-3.9-0.3-3.9-2.6c0-0.9,0.6-2.1,2.5-2.1
		c1.2,0,2.7,0.3,2.8,2.1h-1.6L229.4,56.6z"/>
	<path class="st3" d="M236,56.6c-0.1-0.4-0.2-0.8-1.1-0.8c-0.9,0-1,0.3-1,0.6c0,1,3.9,0.3,3.9,2.6c0,1.8-1.8,2.2-2.8,2.2
		c-1.4,0-3-0.5-3-2.2h1.7c0,0.5,0.3,0.9,1.4,0.9c0.9,0,1.1-0.4,1.1-0.6c0-1.1-3.9-0.3-3.9-2.6c0-0.9,0.6-2.1,2.5-2.1
		c1.2,0,2.7,0.3,2.8,2.1H236L236,56.6z"/>
	<path class="st3" d="M38.1,91.8c0,0.5,0.2,1.4,1.8,1.4c0.8,0,1.8-0.2,1.8-1.1c0-0.7-0.6-0.8-1.5-1.1l-0.9-0.2
		c-1.4-0.3-2.7-0.6-2.7-2.5c0-0.9,0.5-2.6,3.3-2.6c2.6,0,3.3,1.7,3.3,2.7h-1.7c0-0.4-0.2-1.3-1.7-1.3c-0.7,0-1.5,0.2-1.5,1
		c0,0.7,0.5,0.8,0.9,0.9l2.1,0.5c1.2,0.3,2.2,0.8,2.2,2.3c0,2.6-2.6,2.8-3.3,2.8c-3.1,0-3.6-1.8-3.6-2.8L38.1,91.8"/>
	<path class="st3" d="M46.4,88.2h1v1.2h-1v3.4c0,0.4,0,0.5,0.7,0.5c0.1,0,0.2,0,0.3,0v1.3c-0.3,0-0.5,0-0.8,0h-0.2
		c-1.4,0-1.7-0.5-1.7-1.4v-3.8h-0.9v-1.2h0.9v-1.7h1.7V88.2"/>
	<path class="st3" d="M51.1,94.6c-1.7,0-3.2-1-3.2-3.3s1.5-3.3,3.2-3.3s3.2,1,3.2,3.3S52.8,94.6,51.1,94.6 M51.1,89.4
		c-1.3,0-1.5,1.1-1.5,1.9s0.2,1.9,1.5,1.9s1.5-1.1,1.5-1.9S52.4,89.4,51.1,89.4"/>
	<path class="st3" d="M57,89.1c0.3-0.5,0.8-1.1,1.9-1.1c1.4,0,2.6,1.1,2.6,3.2c0,1.7-0.8,3.4-2.6,3.4c-1.2,0-1.6-0.6-1.8-1v3.2h-1.7
		v-8.7H57V89.1 M58.5,93.2c1.1,0,1.4-1.2,1.4-1.9c0-1-0.4-1.9-1.4-1.9c-1.1,0-1.4,1-1.4,2C57,92.4,57.4,93.2,58.5,93.2"/>
	<path class="st3" d="M67.5,89.1c0.3-0.5,0.8-1.1,1.9-1.1c1.4,0,2.6,1.1,2.6,3.2c0,1.7-0.8,3.4-2.6,3.4c-1.2,0-1.6-0.6-1.8-1v3.2
		h-1.7v-8.7h1.6V89.1 M69,93.2c1.1,0,1.4-1.2,1.4-1.9c0-1-0.4-1.9-1.4-1.9c-1.1,0-1.4,1-1.4,2C67.5,92.4,67.9,93.2,69,93.2"/>
	<path class="st3" d="M73.2,88.2h1.6v1.1c0.3-0.6,0.7-1.3,1.7-1.3c0.1,0,0.2,0,0.3,0v1.7c-0.1,0-0.3,0-0.5,0c-1.3,0-1.5,0.8-1.5,1.5
		v3.3h-1.7L73.2,88.2L73.2,88.2z"/>
	<path class="st3" d="M80.4,94.6c-1.7,0-3.2-1-3.2-3.3s1.5-3.3,3.2-3.3s3.2,1,3.2,3.3S82.1,94.6,80.4,94.6 M80.4,89.4
		c-1.3,0-1.5,1.1-1.5,1.9s0.2,1.9,1.5,1.9s1.5-1.1,1.5-1.9S81.6,89.4,80.4,89.4"/>
	<path class="st3" d="M90.5,88.2v6c0,1.1-0.1,2.9-3.2,2.9c-1.3,0-2.7-0.6-2.7-1.9h1.8c0.1,0.3,0.2,0.6,1.2,0.6
		c0.9,0,1.3-0.4,1.3-1.4v-0.8c-0.3,0.5-0.7,0.9-1.7,0.9c-1.5,0-2.7-1.1-2.7-3.2c0-2.2,1.2-3.2,2.6-3.2c1.2,0,1.6,0.7,1.8,1.1v-0.9
		L90.5,88.2L90.5,88.2z M87.5,93.1c1.1,0,1.4-1,1.4-1.8c0-1-0.5-1.8-1.4-1.8c-0.6,0-1.3,0.4-1.3,1.9C86.1,92.1,86.5,93.1,87.5,93.1"
		/>
	<path class="st3" d="M91.9,88.2h1.6v1.1c0.3-0.6,0.7-1.3,1.7-1.3c0.1,0,0.2,0,0.3,0v1.7c-0.1,0-0.3,0-0.5,0c-1.3,0-1.5,0.8-1.5,1.5
		v3.3h-1.7L91.9,88.2L91.9,88.2z"/>
	<path class="st3" d="M101.7,92.6c-0.4,1.5-1.7,2-2.8,2c-1.8,0-3.1-0.8-3.1-3.4c0-0.8,0.3-3.2,3-3.2c1.2,0,3,0.6,3,3.5v0.3h-4.3
		c0,0.5,0.1,1.5,1.5,1.5c0.5,0,0.9-0.2,1.1-0.7L101.7,92.6 M100.1,90.7c-0.1-1-0.7-1.3-1.3-1.3c-0.8,0-1.2,0.5-1.3,1.3H100.1"/>
	<path class="st3" d="M106.4,90.1c-0.1-0.4-0.2-0.8-1.1-0.8s-1,0.3-1,0.6c0,1,3.9,0.3,3.9,2.6c0,1.8-1.8,2.2-2.8,2.2
		c-1.4,0-3-0.5-3-2.2h1.7c0,0.5,0.3,0.9,1.4,0.9c0.9,0,1.1-0.4,1.1-0.6c0-1.1-3.9-0.3-3.9-2.6c0-0.9,0.6-2.1,2.5-2.1
		c1.2,0,2.7,0.3,2.8,2.1L106.4,90.1L106.4,90.1z"/>
	<path class="st3" d="M113,90.1c-0.1-0.4-0.2-0.8-1.1-0.8s-1,0.3-1,0.6c0,1,3.9,0.3,3.9,2.6c0,1.8-1.8,2.2-2.8,2.2
		c-1.4,0-3-0.5-3-2.2h1.7c0,0.5,0.3,0.9,1.4,0.9c0.9,0,1.1-0.4,1.1-0.6c0-1.1-3.9-0.3-3.9-2.6c0-0.9,0.6-2.1,2.5-2.1
		c1.2,0,2.7,0.3,2.8,2.1L113,90.1L113,90.1z"/>
	<path class="st3" d="M113.3,158.5c-0.1-0.5-0.4-1.5-1.9-1.5c-0.9,0-2.1,0.6-2.1,3c0,1.5,0.6,2.9,2.1,2.9c1,0,1.7-0.6,1.9-1.6h1.8
		c-0.4,1.8-1.6,3.1-3.7,3.1c-2.3,0-3.9-1.5-3.9-4.5s1.7-4.5,3.9-4.5c2.5,0,3.6,1.7,3.7,3h-1.8V158.5z"/>
	<path class="st3" d="M119.1,164.3c-1.7,0-3.2-1-3.2-3.3s1.5-3.3,3.2-3.3s3.2,1,3.2,3.3S120.8,164.3,119.1,164.3 M119.1,159.1
		c-1.3,0-1.5,1.1-1.5,1.9s0.2,1.9,1.5,1.9s1.5-1.1,1.5-1.9S120.4,159.1,119.1,159.1"/>
	<path class="st3" d="M129.2,164.2h-1.6v-0.8c-0.4,0.7-1.1,1-1.8,1c-1.9,0-2.6-1.7-2.6-3.4c0-2.2,1.2-3.2,2.6-3.2
		c1.1,0,1.6,0.6,1.8,1v-3h1.7v8.4H129.2z M126.1,163c1.1,0,1.5-0.9,1.5-1.8c0-1-0.3-2-1.4-2s-1.4,0.9-1.4,1.9
		C124.8,161.8,125.1,163,126.1,163"/>
	<path class="st3" d="M136.1,162.3c-0.4,1.5-1.7,2-2.8,2c-1.8,0-3.1-0.8-3.1-3.4c0-0.8,0.3-3.2,3-3.2c1.2,0,3,0.6,3,3.5v0.3h-4.3
		c0,0.5,0.1,1.5,1.5,1.5c0.5,0,0.9-0.2,1.1-0.7L136.1,162.3 M134.4,160.4c-0.1-1-0.7-1.3-1.3-1.3c-0.8,0-1.2,0.5-1.3,1.3H134.4"/>
	<path class="st3" d="M140.5,157.9h1.6v1.1c0.3-0.6,0.7-1.3,1.7-1.3c0.1,0,0.2,0,0.3,0v1.7c-0.1,0-0.3,0-0.5,0
		c-1.3,0-1.5,0.8-1.5,1.5v3.3h-1.7L140.5,157.9L140.5,157.9z"/>
	<path class="st3" d="M150.3,162.3c-0.4,1.5-1.7,2-2.8,2c-1.8,0-3.1-0.8-3.1-3.4c0-0.8,0.3-3.2,3-3.2c1.2,0,3,0.6,3,3.5v0.3H146
		c0,0.5,0.1,1.5,1.5,1.5c0.5,0,0.9-0.2,1.1-0.7L150.3,162.3 M148.6,160.4c-0.1-1-0.7-1.3-1.3-1.3c-0.8,0-1.2,0.5-1.3,1.3H148.6"/>
	<path class="st3" d="M154.6,164.2h-1.7l-2.3-6.3h1.8l1.3,4.6l1.3-4.6h1.8L154.6,164.2"/>
	<path class="st3" d="M159.5,157.1h-1.7v-1.5h1.7V157.1 M159.5,157.9v6.3h-1.7v-6.3H159.5"/>
	<path class="st3" d="M166.5,162.3c-0.4,1.5-1.7,2-2.8,2c-1.8,0-3.1-0.8-3.1-3.4c0-0.8,0.3-3.2,3-3.2c1.2,0,3,0.6,3,3.5v0.3h-4.3
		c0,0.5,0.1,1.5,1.5,1.5c0.5,0,0.9-0.2,1.1-0.7L166.5,162.3 M164.9,160.4c-0.1-1-0.7-1.3-1.3-1.3c-0.8,0-1.2,0.5-1.3,1.3H164.9"/>
	<path class="st3" d="M174,164.2h-1.7l-1-4.6l-1,4.6h-1.7l-1.8-6.3h1.8l1,4.5l0.9-4.5h1.7l0.9,4.5l1-4.5h1.7L174,164.2"/>
	<path class="st3" d="M181.9,164.2h-1.7v-5.1h-0.9v-1.2h0.9v-0.5c0-1.3,0.7-1.8,1.8-1.8c0.5,0,0.7,0,0.9,0v1.3h-0.5
		c-0.6,0-0.6,0.2-0.6,0.7v0.2h1.1v1.2h-1.1v5.2L181.9,164.2z"/>
	<path class="st3" d="M189,162.9c0,0.7,0.2,0.9,0.4,1v0.2h-1.8c-0.1-0.3-0.1-0.4-0.2-0.7c-0.4,0.4-0.9,0.9-2,0.9
		c-0.9,0-1.9-0.5-1.9-1.8c0-1.2,0.8-1.9,1.8-2l1.5-0.2c0.3,0,0.6-0.1,0.6-0.5c0-0.7-0.7-0.7-1.1-0.7c-0.8,0-1,0.5-1,0.9h-1.6
		c0.2-1.9,1.5-2.2,2.8-2.2c0.9,0,2.5,0.3,2.5,1.8V162.9 M187.4,161.1c-0.2,0.1-0.4,0.2-1.1,0.3c-0.6,0.1-1.1,0.3-1.1,0.9
		c0,0.6,0.4,0.8,0.8,0.8c0.7,0,1.5-0.5,1.5-1.2L187.4,161.1L187.4,161.1z"/>
	<path class="st3" d="M192.2,157.1h-1.7v-1.5h1.7V157.1 M192.2,157.9v6.3h-1.7v-6.3H192.2"/>
	<path class="st3" d="M195.4,164.2h-1.7v-8.5h1.7V164.2"/>
	<path class="st3" d="M202.4,162.3c-0.4,1.5-1.7,2-2.8,2c-1.8,0-3.1-0.8-3.1-3.4c0-0.8,0.3-3.2,3-3.2c1.2,0,3,0.6,3,3.5v0.3h-4.3
		c0,0.5,0.1,1.5,1.5,1.5c0.5,0,0.9-0.2,1.1-0.7L202.4,162.3 M200.8,160.4c-0.1-1-0.7-1.3-1.3-1.3c-0.8,0-1.2,0.5-1.3,1.3H200.8"/>
	<path class="st3" d="M209.3,164.2h-1.6v-0.8c-0.4,0.7-1.1,1-1.8,1c-1.9,0-2.6-1.7-2.6-3.4c0-2.2,1.2-3.2,2.6-3.2
		c1.1,0,1.6,0.6,1.8,1v-3h1.7L209.3,164.2L209.3,164.2z M206.3,163c1.1,0,1.5-0.9,1.5-1.8c0-1-0.3-2-1.4-2c-1.1,0-1.4,0.9-1.4,1.9
		C204.9,161.8,205.2,163,206.3,163"/>
	<path class="st3" d="M6.7,183H11c2.3,0,2.7,1.7,2.7,2.4c0,0.9-0.5,1.7-1.3,2c0.7,0.3,1.1,0.6,1.1,2.1c0,1.2,0,1.5,0.4,1.7v0.2h-2
		c-0.1-0.4-0.2-0.8-0.2-1.7c0-1.2-0.1-1.6-1.4-1.6H8.4v3.3H6.7L6.7,183 M10.5,186.8c0.9,0,1.4-0.3,1.4-1.2c0-0.4-0.2-1.1-1.2-1.1
		H8.4v2.3H10.5"/>
	<path class="st3" d="M20.2,189.7c-0.4,1.5-1.7,2-2.8,2c-1.8,0-3.1-0.8-3.1-3.4c0-0.8,0.3-3.2,3-3.2c1.2,0,3,0.6,3,3.5v0.3H16
		c0,0.5,0.1,1.5,1.5,1.5c0.5,0,0.9-0.2,1.1-0.7L20.2,189.7 M18.6,187.7c-0.1-1-0.7-1.3-1.3-1.3c-0.8,0-1.2,0.5-1.3,1.3H18.6"/>
	<path class="st3" d="M24.3,191.7c-1.7,0-3.2-1-3.2-3.3s1.5-3.3,3.2-3.3s3.2,1,3.2,3.3S25.9,191.7,24.3,191.7 M24.3,186.5
		c-1.3,0-1.5,1.1-1.5,1.9s0.2,1.9,1.5,1.9s1.5-1.1,1.5-1.9S25.5,186.5,24.3,186.5"/>
	<path class="st3" d="M30.2,186.1c0.3-0.5,0.8-1.1,1.9-1.1c1.4,0,2.6,1.1,2.6,3.2c0,1.7-0.8,3.4-2.6,3.4c-1.2,0-1.6-0.6-1.8-1v3.2
		h-1.7v-8.7h1.6L30.2,186.1 M31.6,190.3c1.1,0,1.4-1.2,1.4-1.9c0-1-0.4-1.9-1.4-1.9c-1.1,0-1.4,1-1.4,2
		C30.2,189.4,30.6,190.3,31.6,190.3"/>
	<path class="st3" d="M41.2,189.7c-0.4,1.5-1.7,2-2.8,2c-1.8,0-3.1-0.8-3.1-3.4c0-0.8,0.3-3.2,3-3.2c1.2,0,3,0.6,3,3.5v0.3H37
		c0,0.5,0.1,1.5,1.5,1.5c0.5,0,0.9-0.2,1.1-0.7L41.2,189.7 M39.6,187.7c-0.1-1-0.7-1.3-1.3-1.3c-0.8,0-1.2,0.5-1.3,1.3H39.6"/>
	<path class="st3" d="M48.1,191.5h-1.7v-3.8c0-0.5,0-1.2-1.1-1.2c-0.7,0-1.3,0.5-1.3,1.5v3.6h-1.7v-6.3H44v0.9
		c0.2-0.4,0.7-1.1,1.9-1.1s2.2,0.7,2.2,2.1L48.1,191.5"/>
	<path class="st3" d="M312.9,111h4.3c2.3,0,2.7,1.7,2.7,2.4c0,0.9-0.5,1.7-1.3,2c0.7,0.3,1.1,0.6,1.1,2.1c0,1.2,0,1.5,0.4,1.7v0.2
		h-2c-0.1-0.4-0.2-0.8-0.2-1.7c0-1.2-0.1-1.6-1.4-1.6h-1.8v3.3H313V111H312.9z M316.7,114.8c0.9,0,1.4-0.3,1.4-1.2
		c0-0.4-0.2-1.1-1.2-1.1h-2.2v2.3L316.7,114.8"/>
	<path class="st3" d="M326.5,117.7c-0.4,1.5-1.7,2-2.8,2c-1.8,0-3.1-0.8-3.1-3.4c0-0.8,0.3-3.2,3-3.2c1.2,0,3,0.6,3,3.5v0.3h-4.3
		c0,0.5,0.1,1.5,1.5,1.5c0.5,0,0.9-0.2,1.1-0.7L326.5,117.7 M324.8,115.7c-0.1-1-0.7-1.3-1.3-1.3c-0.8,0-1.2,0.5-1.3,1.3H324.8"/>
	<path class="st3" d="M332.7,118.3c0,0.7,0.2,0.9,0.4,1v0.2h-1.8c-0.1-0.3-0.1-0.4-0.2-0.7c-0.4,0.4-0.9,0.9-2,0.9
		c-0.9,0-1.9-0.5-1.9-1.8c0-1.2,0.8-1.9,1.8-2l1.5-0.2c0.3,0,0.6-0.1,0.6-0.5c0-0.7-0.7-0.7-1.1-0.7c-0.8,0-1,0.5-1,0.9h-1.6
		c0.2-1.9,1.5-2.2,2.8-2.2c0.9,0,2.5,0.3,2.5,1.8L332.7,118.3 M331.1,116.5c-0.2,0.1-0.4,0.2-1.1,0.3c-0.6,0.1-1.1,0.3-1.1,0.9
		s0.4,0.8,0.8,0.8c0.7,0,1.5-0.5,1.5-1.2L331.1,116.5L331.1,116.5z"/>
	<path class="st3" d="M339.9,119.5h-1.6v-0.8c-0.4,0.7-1.1,1-1.8,1c-1.9,0-2.6-1.7-2.6-3.4c0-2.2,1.2-3.2,2.6-3.2
		c1.1,0,1.6,0.6,1.8,1v-3h1.7v8.4H339.9z M336.9,118.3c1.1,0,1.5-0.9,1.5-1.8c0-1-0.3-2-1.4-2s-1.4,0.9-1.4,1.9
		C335.5,117.2,335.8,118.3,336.9,118.3"/>
	<path class="st3" d="M344.7,119.4c-0.8,2.3-1,2.6-2.4,2.6c-0.2,0-0.5,0-0.7,0v-1.3c0.1,0,0.2,0,0.3,0c0.6,0,0.9-0.1,1.1-0.9
		l-2.3-6.5h1.8l1.3,4.6l1.3-4.6h1.7L344.7,119.4"/>
	<path class="st3" d="M353,119.5h-1.7v-5.1h-0.9v-1.2h0.9v-0.5c0-1.3,0.7-1.8,1.8-1.8c0.5,0,0.7,0,0.9,0v1.3h-0.5
		c-0.6,0-0.6,0.2-0.6,0.7v0.2h1.1v1.2h-1L353,119.5"/>
	<path class="st3" d="M357.6,119.7c-1.7,0-3.2-1-3.2-3.3s1.5-3.3,3.2-3.3s3.2,1,3.2,3.3S359.3,119.7,357.6,119.7 M357.6,114.5
		c-1.3,0-1.5,1.1-1.5,1.9s0.2,1.9,1.5,1.9s1.5-1.1,1.5-1.9S358.9,114.5,357.6,114.5"/>
	<path class="st3" d="M362,113.2h1.6v1.1c0.3-0.6,0.7-1.3,1.7-1.3c0.1,0,0.2,0,0.3,0v1.7c-0.1,0-0.3,0-0.5,0c-1.3,0-1.5,0.8-1.5,1.5
		v3.3H362V113.2"/>
	<path class="st3" d="M369.8,113.2h1.6v1.1c0.3-0.6,0.7-1.3,1.7-1.3c0.1,0,0.2,0,0.3,0v1.7c-0.1,0-0.3,0-0.5,0
		c-1.3,0-1.5,0.8-1.5,1.5v3.3h-1.7v-6.3L369.8,113.2z"/>
	<path class="st3" d="M379.6,117.7c-0.4,1.5-1.7,2-2.8,2c-1.8,0-3.1-0.8-3.1-3.4c0-0.8,0.3-3.2,3-3.2c1.2,0,3,0.6,3,3.5v0.3h-4.3
		c0,0.5,0.1,1.5,1.5,1.5c0.5,0,0.9-0.2,1.1-0.7L379.6,117.7 M378,115.7c-0.1-1-0.7-1.3-1.3-1.3c-0.8,0-1.2,0.5-1.3,1.3H378"/>
	<path class="st3" d="M384,119.5h-1.7l-2.3-6.3h1.8l1.3,4.6l1.3-4.6h1.8L384,119.5"/>
	<path class="st3" d="M388.9,112.5h-1.7V111h1.7V112.5 M388.9,113.2v6.3h-1.7v-6.3H388.9"/>
	<path class="st3" d="M395.8,117.7c-0.4,1.5-1.7,2-2.8,2c-1.8,0-3.1-0.8-3.1-3.4c0-0.8,0.3-3.2,3-3.2c1.2,0,3,0.6,3,3.5v0.3h-4.3
		c0,0.5,0.1,1.5,1.5,1.5c0.5,0,0.9-0.2,1.1-0.7L395.8,117.7 M394.2,115.7c-0.1-1-0.7-1.3-1.3-1.3c-0.8,0-1.2,0.5-1.3,1.3H394.2"/>
	<path class="st3" d="M403.3,119.5h-1.7l-1-4.6l-1,4.6H398l-1.8-6.3h1.8l1,4.5l0.9-4.5h1.7l0.9,4.5l1-4.5h1.7L403.3,119.5"/>
	<path class="st3" d="M451.4,181.6c-0.1-0.5-0.4-1.5-1.9-1.5c-0.9,0-2.1,0.6-2.1,3c0,1.5,0.6,2.9,2.1,2.9c1,0,1.7-0.6,1.9-1.6h1.8
		c-0.4,1.8-1.6,3.1-3.7,3.1c-2.3,0-3.9-1.5-3.9-4.5s1.7-4.5,3.9-4.5c2.5,0,3.6,1.7,3.7,3h-1.8V181.6z"/>
	<path class="st3" d="M457.2,187.4c-1.7,0-3.2-1-3.2-3.3s1.5-3.3,3.2-3.3s3.2,1,3.2,3.3S458.9,187.4,457.2,187.4 M457.2,182.2
		c-1.3,0-1.5,1.1-1.5,1.9s0.2,1.9,1.5,1.9s1.5-1.1,1.5-1.9S458.5,182.2,457.2,182.2"/>
	<path class="st3" d="M467.3,187.3h-1.6v-0.8c-0.4,0.7-1.1,1-1.8,1c-1.9,0-2.6-1.7-2.6-3.4c0-2.2,1.2-3.2,2.6-3.2
		c1.1,0,1.6,0.6,1.8,1v-3h1.7v8.4H467.3z M464.3,186.1c1.1,0,1.5-0.9,1.5-1.8c0-1-0.3-2-1.4-2s-1.4,0.9-1.4,1.9
		C462.9,184.9,463.2,186.1,464.3,186.1"/>
	<path class="st3" d="M474.2,185.4c-0.4,1.5-1.7,2-2.8,2c-1.8,0-3.1-0.8-3.1-3.4c0-0.8,0.3-3.2,3-3.2c1.2,0,3,0.6,3,3.5v0.3H470
		c0,0.5,0.1,1.5,1.5,1.5c0.5,0,0.9-0.2,1.1-0.7L474.2,185.4 M472.6,183.5c-0.1-1-0.7-1.3-1.3-1.3c-0.8,0-1.2,0.5-1.3,1.3H472.6"/>
	<path class="st3" d="M478.6,181h1.6v1.1c0.3-0.6,0.7-1.3,1.7-1.3c0.1,0,0.2,0,0.3,0v1.7c-0.1,0-0.3,0-0.5,0c-1.3,0-1.5,0.8-1.5,1.5
		v3.3h-1.7V181H478.6z"/>
	<path class="st3" d="M488.4,185.4c-0.4,1.5-1.7,2-2.8,2c-1.8,0-3.1-0.8-3.1-3.4c0-0.8,0.3-3.2,3-3.2c1.2,0,3,0.6,3,3.5v0.3h-4.3
		c0,0.5,0.1,1.5,1.5,1.5c0.5,0,0.9-0.2,1.1-0.7L488.4,185.4 M486.8,183.5c-0.1-1-0.7-1.3-1.3-1.3c-0.8,0-1.2,0.5-1.3,1.3H486.8"/>
	<path class="st3" d="M492.8,187.3H491l-2.3-6.3h1.8l1.3,4.6l1.3-4.6h1.8L492.8,187.3"/>
	<path class="st3" d="M497.7,180.2H496v-1.5h1.7V180.2 M497.7,181v6.3H496V181H497.7"/>
	<path class="st3" d="M504.6,185.4c-0.4,1.5-1.7,2-2.8,2c-1.8,0-3.1-0.8-3.1-3.4c0-0.8,0.3-3.2,3-3.2c1.2,0,3,0.6,3,3.5v0.3h-4.3
		c0,0.5,0.1,1.5,1.5,1.5c0.5,0,0.9-0.2,1.1-0.7L504.6,185.4 M503,183.5c-0.1-1-0.7-1.3-1.3-1.3c-0.8,0-1.2,0.5-1.3,1.3H503"/>
	<path class="st3" d="M512.1,187.3h-1.7l-1-4.6l-1,4.6h-1.7L505,181h1.8l1,4.5l0.9-4.5h1.7l0.9,4.5l1-4.5h1.7L512.1,187.3"/>
	<path class="st3" d="M519.6,181.9c0.3-0.5,0.8-1.1,1.9-1.1c1.4,0,2.6,1.1,2.6,3.2c0,1.7-0.8,3.4-2.6,3.4c-1.2,0-1.6-0.6-1.8-1v3.2
		H518V181h1.6V181.9 M521.1,186.1c1.1,0,1.4-1.2,1.4-1.9c0-1-0.4-1.9-1.4-1.9c-1.1,0-1.4,1-1.4,2C519.6,185.2,520,186.1,521.1,186.1
		"/>
	<path class="st3" d="M530.4,186c0,0.7,0.2,0.9,0.4,1v0.2H529c-0.1-0.3-0.1-0.4-0.2-0.7c-0.4,0.4-0.9,0.9-2,0.9
		c-0.9,0-1.9-0.5-1.9-1.8c0-1.2,0.8-1.9,1.8-2l1.5-0.2c0.3,0,0.6-0.1,0.6-0.5c0-0.7-0.7-0.7-1.1-0.7c-0.8,0-1,0.5-1,0.9h-1.6
		c0.2-1.9,1.5-2.2,2.8-2.2c0.9,0,2.5,0.3,2.5,1.8V186 M528.8,184.2c-0.2,0.1-0.4,0.2-1.1,0.3c-0.6,0.1-1.1,0.3-1.1,0.9
		c0,0.6,0.4,0.8,0.8,0.8c0.7,0,1.5-0.5,1.5-1.2v-0.8H528.8z"/>
	<path class="st3" d="M535.4,182.9c-0.1-0.4-0.2-0.8-1.1-0.8c-0.9,0-1,0.3-1,0.6c0,1,3.9,0.3,3.9,2.6c0,1.8-1.8,2.2-2.8,2.2
		c-1.4,0-3-0.5-3-2.2h1.7c0,0.5,0.3,0.9,1.4,0.9c0.9,0,1.1-0.4,1.1-0.6c0-1.1-3.9-0.3-3.9-2.6c0-0.9,0.6-2.1,2.5-2.1
		c1.2,0,2.7,0.3,2.8,2.1L535.4,182.9L535.4,182.9z"/>
	<path class="st3" d="M542,182.9c-0.1-0.4-0.2-0.8-1.1-0.8c-0.9,0-1,0.3-1,0.6c0,1,3.9,0.3,3.9,2.6c0,1.8-1.8,2.2-2.8,2.2
		c-1.4,0-3-0.5-3-2.2h1.7c0,0.5,0.3,0.9,1.4,0.9c0.9,0,1.1-0.4,1.1-0.6c0-1.1-3.9-0.3-3.9-2.6c0-0.9,0.6-2.1,2.5-2.1
		c1.2,0,2.7,0.3,2.8,2.1L542,182.9L542,182.9z"/>
	<path class="st3" d="M550.4,185.4c-0.4,1.5-1.7,2-2.8,2c-1.8,0-3.1-0.8-3.1-3.4c0-0.8,0.3-3.2,3-3.2c1.2,0,3,0.6,3,3.5v0.3h-4.3
		c0,0.5,0.1,1.5,1.5,1.5c0.5,0,0.9-0.2,1.1-0.7L550.4,185.4 M548.8,183.5c-0.1-1-0.7-1.3-1.3-1.3c-0.8,0-1.2,0.5-1.3,1.3H548.8"/>
	<path class="st3" d="M557.3,187.3h-1.6v-0.8c-0.4,0.7-1.1,1-1.8,1c-1.9,0-2.6-1.7-2.6-3.4c0-2.2,1.2-3.2,2.6-3.2
		c1.1,0,1.6,0.6,1.8,1v-3h1.7v8.4H557.3z M554.3,186.1c1.1,0,1.5-0.9,1.5-1.8c0-1-0.3-2-1.4-2c-1.1,0-1.4,0.9-1.4,1.9
		C552.9,184.9,553.2,186.1,554.3,186.1"/>
</g>
<g>
	<path class="st4" d="M53,34.2l3.3-3.3c0.3-0.3,0.3-0.7,0-1s-0.7-0.3-1,0L53.2,32v-8.9h-1.4V32l-2.1-2.1c-0.3-0.3-0.7-0.3-1,0
		c-0.1,0.1-0.2,0.3-0.2,0.5s0.1,0.4,0.2,0.5l3.3,3.3C52.3,34.4,52.8,34.4,53,34.2"/>
	<path class="st4" d="M360.5,137.9l3.3-3.3c0.3-0.3,0.3-0.7,0-1s-0.7-0.3-1,0l-2.1,2.1v-8.9h-1.4v8.9l-2.1-2.1c-0.3-0.3-0.7-0.3-1,0
		c-0.1,0.1-0.2,0.3-0.2,0.5s0.1,0.4,0.2,0.5l3.3,3.3C359.8,138.2,360.3,138.2,360.5,137.9"/>
	<path class="st4" d="M504,205.9l3.3-3.3c0.3-0.3,0.3-0.7,0-1s-0.7-0.3-1,0l-2.1,2.1v-10h-1.4v10l-2.1-2.1c-0.3-0.3-0.7-0.3-1,0
		c-0.1,0.1-0.2,0.3-0.2,0.5s0.1,0.4,0.2,0.5l3.3,3.3C503.3,206.2,503.7,206.2,504,205.9"/>
</g>
<path class="st2" d="M94.8,69.3c0,1.8-1.5,3.2-3.2,3.2H13.2c-1.8,0-3.2-1.5-3.2-3.2V42.8c0-1.8,1.5-3.2,3.2-3.2h78.3
	c1.8,0,3.2,1.5,3.2,3.2L94.8,69.3L94.8,69.3z"/>
<g>
	<path id="_x30__2_" class="st5" d="M265.9,115.5c0,2.3-1.9,4.2-4.2,4.2H134.4c-2.3,0-4.2-1.9-4.2-4.2V91c0-2.3,1.9-4.2,4.2-4.2
		h127.2c2.3,0,4.2,1.9,4.2,4.2v24.5H265.9z"/>
</g>
<g>
	<path id="_x30__3_" class="st1" d="M265.9,115.5c0,2.3-1.9,4.2-4.2,4.2H134.4c-2.3,0-4.2-1.9-4.2-4.2V91c0-2.3,1.9-4.2,4.2-4.2
		h127.2c2.3,0,4.2,1.9,4.2,4.2v24.5H265.9z"/>
</g>
<g>
	<path class="st6" d="M39.9,52.1c1.1,0,4.1,0.5,4.1,4.5s-3,4.5-4.1,4.5s-4.1-0.5-4.1-4.5S38.8,52.1,39.9,52.1 M39.9,59.5
		c1,0,2.3-0.6,2.3-3s-1.3-3-2.3-3s-2.3,0.6-2.3,3S38.9,59.5,39.9,59.5"/>
	<path class="st6" d="M47.3,60.8h-1.8v-8.5h3.9c1.6,0,2.6,1.1,2.6,2.7c0,0.8-0.4,2.7-2.7,2.7h-2V60.8 M48.9,56.3
		c1.3,0,1.3-0.9,1.3-1.3c0-0.8-0.5-1.2-1.6-1.2h-1.4v2.5H48.9"/>
	<path class="st6" d="M59.7,53.8h-4.5v1.8h4.1v1.5h-4.1v2.2h4.7v1.5h-6.4v-8.5h6.2V53.8"/>
	<path class="st6" d="M66.7,52.3h1.7v8.5h-1.8l-3.5-6v6h-1.7v-8.5h1.9l3.4,5.9L66.7,52.3"/>
</g>
<g>
	<g>
		<path id="_x31__1_" class="st3" d="M159.5,106.9h-1.8v-8.5h1.8V106.9"/>
	</g>
	<g>
		<path id="_x32__1_" class="st3" d="M166.4,98.5h1.7v8.5h-1.8l-3.5-6v6h-1.7v-8.5h1.9l3.4,5.9L166.4,98.5"/>
	</g>
	<g>
		<path id="_x33__1_" class="st3" d="M175.1,106.9h-1.8v-8.5h3.9c1.6,0,2.6,1.1,2.6,2.7c0,0.8-0.4,2.7-2.7,2.7h-2V106.9
			 M176.7,102.4c1.3,0,1.3-0.9,1.3-1.3c0-0.8-0.5-1.2-1.6-1.2H175v2.5H176.7"/>
	</g>
	<g>
		<path id="_x34__1_" class="st3" d="M181.3,98.5h4.3c2.3,0,2.7,1.7,2.7,2.4c0,0.9-0.5,1.7-1.3,2c0.7,0.3,1.1,0.6,1.1,2.1
			c0,1.2,0,1.5,0.4,1.7v0.2h-2c-0.1-0.4-0.2-0.8-0.2-1.7c0-1.2-0.1-1.6-1.4-1.6H183v3.3h-1.7L181.3,98.5 M185.1,102.2
			c0.9,0,1.4-0.3,1.4-1.2c0-0.4-0.2-1.1-1.2-1.1H183v2.3L185.1,102.2"/>
	</g>
	<g>
		<path id="_x35__1_" class="st3" d="M193.4,98.2c1.1,0,4.1,0.5,4.1,4.5s-3,4.5-4.1,4.5s-4.1-0.5-4.1-4.5S192.3,98.2,193.4,98.2
			 M193.4,105.7c1,0,2.3-0.6,2.3-3s-1.3-3-2.3-3s-2.3,0.6-2.3,3S192.4,105.7,193.4,105.7"/>
	</g>
	<g>
		<path id="_x36__1_" class="st3" d="M203,102.4h3.5v4.6h-1.2l-0.2-1.1c-0.4,0.5-1.1,1.3-2.6,1.3c-2,0-3.9-1.5-3.9-4.4
			c0-2.3,1.3-4.5,4.1-4.5c2.6,0,3.6,1.7,3.7,2.9h-1.8c0-0.3-0.6-1.4-1.9-1.4c-1.3,0-2.4,0.9-2.4,3c0,2.3,1.3,2.9,2.5,2.9
			c0.4,0,1.7-0.2,2.1-1.9h-2L203,102.4L203,102.4z"/>
	</g>
	<g>
		<path id="_x37__1_" class="st3" d="M208.3,98.5h4.3c2.3,0,2.7,1.7,2.7,2.4c0,0.9-0.5,1.7-1.3,2c0.7,0.3,1.1,0.6,1.1,2.1
			c0,1.2,0,1.5,0.4,1.7v0.2h-2c-0.1-0.4-0.2-0.8-0.2-1.7c0-1.2-0.1-1.6-1.4-1.6H210v3.3h-1.7L208.3,98.5 M212.1,102.2
			c0.9,0,1.4-0.3,1.4-1.2c0-0.4-0.2-1.1-1.2-1.1H210v2.3L212.1,102.2"/>
	</g>
	<g>
		<path id="_x38__1_" class="st3" d="M223.2,100h-4.5v1.8h4.1v1.5h-4.1v2.2h4.7v1.5H217v-8.5h6.2V100"/>
	</g>
	<g>
		<path id="_x39__1_" class="st3" d="M226.2,104.3c0,0.5,0.2,1.4,1.8,1.4c0.8,0,1.8-0.2,1.8-1.1c0-0.7-0.6-0.8-1.5-1.1l-0.9-0.2
			c-1.4-0.3-2.7-0.6-2.7-2.5c0-0.9,0.5-2.6,3.3-2.6c2.6,0,3.3,1.7,3.3,2.7h-1.7c0-0.4-0.2-1.3-1.7-1.3c-0.7,0-1.5,0.2-1.5,1
			c0,0.7,0.5,0.8,0.9,0.9l2.1,0.5c1.2,0.3,2.2,0.8,2.2,2.3c0,2.6-2.6,2.8-3.3,2.8c-3.1,0-3.6-1.8-3.6-2.8L226.2,104.3"/>
	</g>
	<g>
		<path id="A_1_" class="st3" d="M234.2,104.3c0,0.5,0.2,1.4,1.8,1.4c0.8,0,1.8-0.2,1.8-1.1c0-0.7-0.6-0.8-1.5-1.1l-0.9-0.2
			c-1.4-0.3-2.7-0.6-2.7-2.5c0-0.9,0.5-2.6,3.3-2.6c2.6,0,3.3,1.7,3.3,2.7h-1.7c0-0.4-0.2-1.3-1.7-1.3c-0.7,0-1.5,0.2-1.5,1
			c0,0.7,0.5,0.8,0.9,0.9l2.1,0.5c1.2,0.3,2.2,0.8,2.2,2.3c0,2.6-2.6,2.8-3.3,2.8c-3.1,0-3.6-1.8-3.6-2.8L234.2,104.3"/>
	</g>
</g>
<path class="st5" d="M427.5,173.8c0,2.3-1.9,4.2-4.2,4.2H296.1c-2.3,0-4.2-1.9-4.2-4.2v-24.5c0-2.3,1.9-4.2,4.2-4.2h127.2
	c2.3,0,4.2,1.9,4.2,4.2V173.8"/>
<g>
	<path class="st3" d="M323.8,159.5c-0.1-0.5-0.4-1.5-1.9-1.5c-0.9,0-2.1,0.6-2.1,3c0,1.5,0.6,2.9,2.1,2.9c1,0,1.7-0.6,1.9-1.6h1.8
		c-0.4,1.8-1.6,3.1-3.7,3.1c-2.3,0-3.9-1.5-3.9-4.5s1.7-4.5,3.9-4.5c2.5,0,3.6,1.7,3.7,3h-1.8V159.5z"/>
	<path class="st3" d="M330.7,156.5c1.1,0,4.1,0.5,4.1,4.5s-3,4.5-4.1,4.5s-4.1-0.5-4.1-4.5S329.6,156.5,330.7,156.5 M330.7,164
		c1,0,2.3-0.6,2.3-3s-1.3-3-2.3-3s-2.3,0.6-2.3,3S329.8,164,330.7,164"/>
	<path class="st3" d="M336.3,156.8h3.7c2.9,0,3.4,2.4,3.4,4c0,1.8-0.7,4.4-3.5,4.4h-3.7v-8.4H336.3z M338.1,163.8h1.7
		c1.4,0,1.9-1.5,1.9-2.8c0-2.5-1.2-2.7-1.9-2.7h-1.7V163.8"/>
	<path class="st3" d="M351.2,158.3h-4.5v1.8h4.1v1.5h-4.1v2.2h4.7v1.5H345v-8.5h6.2L351.2,158.3"/>
	<path class="st3" d="M356.3,156.8h4.3c2.3,0,2.7,1.7,2.7,2.4c0,0.9-0.5,1.7-1.3,2c0.7,0.3,1.1,0.6,1.1,2.1c0,1.2,0,1.5,0.4,1.7v0.2
		h-2c-0.1-0.4-0.2-0.8-0.2-1.7c0-1.2-0.1-1.6-1.4-1.6h-1.8v3.3h-1.7v-8.4H356.3z M360.2,160.5c0.9,0,1.4-0.3,1.4-1.2
		c0-0.4-0.2-1.1-1.2-1.1h-2.2v2.3H360.2"/>
	<path class="st3" d="M371.2,158.3h-4.5v1.8h4.1v1.5h-4.1v2.2h4.7v1.5H365v-8.5h6.2L371.2,158.3"/>
	<path class="st3" d="M377.9,156.8h1.8l-2.9,8.5h-1.7l-2.9-8.5h1.9l1.8,6.4L377.9,156.8"/>
	<path class="st3" d="M382.6,165.2h-1.8v-8.5h1.8V165.2"/>
	<path class="st3" d="M390.6,158.3h-4.5v1.8h4.1v1.5h-4.1v2.2h4.7v1.5h-6.4v-8.5h6.2L390.6,158.3"/>
	<path class="st3" d="M391.7,156.8h1.9c1.1,4.6,1.2,5.2,1.3,6.2c0.2-0.9,0.3-1.7,1.2-6.2h1.9c1,4.7,1.1,5.1,1.3,6.2
		c0.1-0.8,0.3-1.5,1.4-6.2h1.8l-2.4,8.5h-1.7c-0.9-4.2-1-5-1.3-6.6c-0.3,1.6-0.4,2.2-1.3,6.6h-1.7L391.7,156.8"/>
</g>
<path class="st7" d="M550.2,241.8c0,1.9-1.6,3.5-3.5,3.5h-85.6c-1.9,0-3.5-1.6-3.5-3.5v-26c0-1.9,1.6-3.5,3.5-3.5h85.6
	c1.9,0,3.5,1.6,3.5,3.5V241.8"/>
<g>
	<path class="st6" d="M487.5,223.7h3.7c2.9,0,3.4,2.4,3.4,4c0,1.8-0.7,4.4-3.5,4.4h-3.7v-8.4H487.5z M489.3,230.7h1.7
		c1.4,0,1.9-1.5,1.9-2.8c0-2.5-1.2-2.7-1.9-2.7h-1.7V230.7"/>
	<path class="st6" d="M499.9,223.4c1.1,0,4.1,0.5,4.1,4.5s-3,4.5-4.1,4.5s-4.1-0.5-4.1-4.5S498.7,223.4,499.9,223.4 M499.9,230.9
		c1,0,2.3-0.6,2.3-3s-1.3-3-2.3-3s-2.3,0.6-2.3,3S498.9,230.9,499.9,230.9"/>
	<path class="st6" d="M510.6,223.7h1.7v8.5h-1.8l-3.5-6v6h-1.7v-8.5h1.9l3.4,5.9L510.6,223.7"/>
	<path class="st6" d="M520.3,225.2h-4.5v1.8h4.1v1.5h-4.1v2.2h4.7v1.5h-6.4v-8.5h6.2V225.2"/>
</g>
<g>
	<path class="st8" d="M98.1,57.1h56.2"/>
	<g>
		<circle class="st9" cx="159.7" cy="86.2" r="4"/>
		<circle class="st9" cx="198" cy="86.2" r="4"/>
		<circle class="st9" cx="236.1" cy="86.2" r="4"/>
		<circle class="st9" cx="265.9" cy="103.3" r="4"/>
		<circle class="st9" cx="236.1" cy="119.8" r="4"/>
		<circle class="st9" cx="198" cy="119.8" r="4"/>
		<circle class="st9" cx="159.7" cy="119.8" r="4"/>
		<circle class="st9" cx="130.2" cy="103.3" r="4"/>
	</g>
	<g>
		<path class="st8" d="M273.1,103.3H360v3.8"/>
		<path class="st8" d="M123.8,102.8H74.4V99"/>
		<path class="st8" d="M432.7,160.8h70.8v13.4"/>
		<path class="st8" d="M452,230.6H28.3V197"/>
	</g>
</g>
<g>
	<path class="st4" d="M27.9,76.8l-3.3,3.3c-0.3,0.3-0.3,0.7,0,1s0.7,0.3,1,0l2.1-2.1v99H29V78.9l2.1,2.1c0.3,0.3,0.7,0.3,1,0
		c0.1-0.1,0.2-0.3,0.2-0.5s-0.1-0.4-0.2-0.5l-3.3-3.3C28.6,76.5,28.1,76.5,27.9,76.8"/>
	<path class="st4" d="M73.9,75.7L70.6,79c-0.3,0.3-0.3,0.7,0,1s0.7,0.3,1,0l2.1-2.1v5.7h1.4v-5.7l2.1,2.1c0.3,0.3,0.7,0.3,1,0
		c0.1-0.1,0.2-0.3,0.2-0.5s-0.1-0.4-0.2-0.5l-3.3-3.3C74.6,75.4,74.2,75.4,73.9,75.7"/>
</g>
<path class="st8" d="M287.4,160.8h-73"/>
<g>
	<path class="st4" d="M159.2,128.4l-3.3,3.3c-0.3,0.3-0.3,0.7,0,1s0.7,0.3,1,0l2.1-2.1v20.7h1.4v-20.7l2.1,2.1c0.3,0.3,0.7,0.3,1,0
		c0.1-0.1,0.2-0.3,0.2-0.5s-0.1-0.4-0.2-0.5l-3.3-3.3C159.9,128.1,159.5,128.1,159.2,128.4"/>
	<path class="st4" d="M198.5,77.3l3.3-3.3c0.3-0.3,0.3-0.7,0-1s-0.7-0.3-1,0l-2.1,2.1v-8.9h-1.4v8.9l-2.1-2.1c-0.3-0.3-0.7-0.3-1,0
		c-0.1,0.1-0.2,0.3-0.2,0.5s0.1,0.4,0.2,0.5l3.3,3.3C197.8,77.5,198.3,77.5,198.5,77.3"/>
</g>
</svg>
