<?xml version="1.0" encoding="utf-8"?>
<!-- Generator: Adobe Illustrator 21.1.0, SVG Export Plug-In . SVG Version: 6.00 Build 0)  -->
<svg version="1.1" id="Layer_1" xmlns="http://www.w3.org/2000/svg" xmlns:xlink="http://www.w3.org/1999/xlink" x="0px" y="0px"
	 viewBox="0 0 564 396" style="enable-background:new 0 0 564 396;" xml:space="preserve">
<style type="text/css">
	.st0{fill:#333333;}
	.st1{fill:url(#SVGID_1_);}
	.st2{fill:url(#SVGID_2_);}
	.st3{fill:url(#SVGID_3_);}
	.st4{fill:url(#SVGID_4_);}
	.st5{fill:url(#SVGID_5_);}
	.st6{fill:url(#SVGID_6_);}
	.st7{fill:url(#SVGID_7_);}
	.st8{fill:url(#SVGID_8_);}
	.st9{fill:url(#SVGID_9_);}
	.st10{fill:url(#SVGID_10_);}
	.st11{fill:#010101;}
	.st12{fill:url(#SVGID_11_);}
	.st13{fill:url(#SVGID_12_);}
	.st14{fill:none;stroke:#CDCCCC;stroke-width:1.139;stroke-miterlimit:10;}
</style>
<g>
	<path class="st0" d="M311.8,378.9c0-1.1-1-1.5-1.8-1.5c-0.6,0-1.6,0.2-1.6,1.3c0,0.6,0.4,0.8,0.8,0.9l2,0.5
		c0.9,0.2,1.6,0.8,1.6,1.9c0,1.7-1.6,2.2-2.8,2.2c-1.3,0-1.8-0.4-2.2-0.7c-0.6-0.5-0.7-1.1-0.7-1.8h0.9c0,1.3,1.1,1.7,2,1.7
		c0.7,0,1.9-0.2,1.9-1.2c0-0.7-0.3-1-1.5-1.3l-1.5-0.3c-0.5-0.1-1.5-0.4-1.5-1.7c0-1.1,0.7-2.2,2.5-2.2c2.5,0,2.8,1.5,2.8,2.3
		L311.8,378.9L311.8,378.9z"/>
	<path class="st0" d="M313.9,378.7h0.8v0.7c0.2-0.3,0.6-0.9,1.6-0.9c1.4,0,2.2,1.1,2.2,2.6c0,1.2-0.5,2.9-2.3,2.9
		c-0.7,0-1.2-0.3-1.4-0.7v2.6h-0.9L313.9,378.7 M316.2,383.4c1,0,1.4-0.9,1.4-2c0-0.7-0.1-2-1.4-2s-1.4,1.4-1.4,2.2
		C314.8,383,315.6,383.4,316.2,383.4"/>
	<path class="st0" d="M320.6,384h-0.9v-5.2h0.8v0.9c0.3-0.6,0.8-1,1.5-1c0.1,0,0.2,0,0.2,0v0.9h-0.3c-0.8,0-1.3,0.6-1.3,1.4
		L320.6,384"/>
	<path class="st0" d="M323.1,377.8v-1h0.9v1H323.1 M323.9,384H323v-5.2h0.9V384"/>
	<path class="st0" d="M329.5,384h-0.9v-3.2c0-0.9-0.3-1.4-1.1-1.4c-0.5,0-1.4,0.3-1.4,1.7v2.8h-0.9v-5.2h0.8v0.7
		c0.2-0.3,0.7-0.9,1.6-0.9c0.8,0,1.8,0.3,1.8,1.8v3.7H329.5z"/>
	<path class="st0" d="M331.9,379.5v3.4c0,0.4,0.4,0.4,0.5,0.4h0.3v0.7c-0.3,0-0.6,0.1-0.7,0.1c-0.9,0-1.1-0.5-1.1-1.1v-3.4h-0.7
		v-0.7h0.7v-1.5h0.9v1.5h0.8v0.7h-0.7L331.9,379.5z"/>
	<path class="st0" d="M336.6,380.2c0-0.3-0.1-0.9-1.2-0.9c-0.3,0-1,0.1-1,0.7c0,0.4,0.3,0.5,0.9,0.7l0.9,0.2
		c1.1,0.3,1.5,0.7,1.5,1.4c0,1.1-0.9,1.7-2.1,1.7c-2.1,0-2.2-1.2-2.2-1.8h0.8c0,0.4,0.2,1.1,1.4,1.1c0.6,0,1.2-0.2,1.2-0.8
		c0-0.4-0.3-0.6-1-0.8l-1-0.2c-0.7-0.2-1.2-0.5-1.2-1.3c0-1.1,0.9-1.7,2-1.7c1.9,0,2,1.4,2,1.6L336.6,380.2L336.6,380.2z"/>
	<path class="st0" d="M76.2,357.7c-0.1-1.1-1-1.5-1.8-1.5c-0.6,0-1.6,0.2-1.6,1.3c0,0.6,0.4,0.8,0.8,0.9l2,0.5
		c0.9,0.2,1.6,0.8,1.6,1.9c0,1.7-1.6,2.2-2.8,2.2c-1.3,0-1.8-0.4-2.2-0.7c-0.6-0.5-0.7-1.1-0.7-1.8h0.9c0,1.3,1.1,1.7,2,1.7
		c0.7,0,1.9-0.2,1.9-1.2c0-0.8-0.4-1-1.5-1.3l-1.5-0.3c-0.5-0.1-1.5-0.4-1.5-1.7c0-1.1,0.7-2.2,2.5-2.2c2.5,0,2.8,1.5,2.8,2.3
		L76.2,357.7L76.2,357.7z"/>
	<path class="st0" d="M78.4,357.6h0.8v0.7c0.2-0.3,0.6-0.9,1.6-0.9c1.4,0,2.2,1.1,2.2,2.6c0,1.2-0.5,2.9-2.3,2.9
		c-0.7,0-1.2-0.3-1.4-0.7v2.6h-0.9L78.4,357.6 M80.7,362.2c1,0,1.4-0.9,1.4-2c0-0.7-0.1-2-1.4-2s-1.4,1.4-1.4,2.2
		C79.2,361.8,80.1,362.2,80.7,362.2"/>
	<path class="st0" d="M85,362.8h-0.9v-5.2H85v0.9c0.3-0.6,0.8-1,1.5-1c0.1,0,0.2,0,0.2,0v0.9h-0.3c-0.8,0-1.3,0.6-1.3,1.4L85,362.8
		L85,362.8z"/>
	<path class="st0" d="M87.5,356.6v-1h0.9v1H87.5 M88.4,362.8h-0.9v-5.2h0.9V362.8"/>
	<path class="st0" d="M94,362.8h-0.9v-3.2c0-0.9-0.3-1.4-1.1-1.4c-0.5,0-1.4,0.3-1.4,1.7v2.8h-0.9v-5.2h0.8v0.7
		c0.2-0.3,0.7-0.9,1.6-0.9c0.8,0,1.8,0.3,1.8,1.8L94,362.8L94,362.8z"/>
	<path class="st0" d="M96.4,358.3v3.4c0,0.4,0.4,0.4,0.5,0.4h0.3v0.7c-0.3,0-0.6,0.1-0.7,0.1c-0.9,0-1.1-0.5-1.1-1.1v-3.4h-0.7v-0.7
		h0.7v-1.5h0.9v1.5h0.8v0.7h-0.7L96.4,358.3z"/>
	<path class="st0" d="M103.8,362.8h-0.9v-5h-1.6v-0.7c1.1-0.1,1.6-0.2,1.9-1.3h0.7L103.8,362.8L103.8,362.8z"/>
	<path class="st0" d="M176.8,357.7c-0.1-1.1-1-1.5-1.8-1.5c-0.6,0-1.6,0.2-1.6,1.3c0,0.6,0.4,0.8,0.8,0.9l2,0.5
		c0.9,0.2,1.6,0.8,1.6,1.9c0,1.7-1.6,2.2-2.8,2.2c-1.3,0-1.8-0.4-2.2-0.7c-0.6-0.5-0.7-1.1-0.7-1.8h0.9c0,1.3,1.1,1.7,2,1.7
		c0.7,0,1.9-0.2,1.9-1.2c0-0.8-0.4-1-1.5-1.3l-1.5-0.3c-0.5-0.1-1.5-0.4-1.5-1.7c0-1.1,0.7-2.2,2.5-2.2c2.5,0,2.8,1.5,2.8,2.3
		L176.8,357.7L176.8,357.7z"/>
	<path class="st0" d="M179,357.6h0.8v0.7c0.2-0.3,0.6-0.9,1.6-0.9c1.4,0,2.2,1.1,2.2,2.6c0,1.2-0.5,2.9-2.3,2.9
		c-0.7,0-1.2-0.3-1.4-0.7v2.6H179L179,357.6 M181.2,362.2c1,0,1.4-0.9,1.4-2c0-0.7-0.1-2-1.4-2c-1.3,0-1.4,1.4-1.4,2.2
		C179.8,361.8,180.7,362.2,181.2,362.2"/>
	<path class="st0" d="M185.6,362.8h-0.9v-5.2h0.8v0.9c0.3-0.6,0.8-1,1.5-1c0.1,0,0.2,0,0.2,0v0.9h-0.3c-0.8,0-1.3,0.6-1.3,1.4V362.8
		"/>
	<path class="st0" d="M188.1,356.6v-1h0.9v1H188.1 M189,362.8h-0.9v-5.2h0.9V362.8"/>
	<path class="st0" d="M194.6,362.8h-0.9v-3.2c0-0.9-0.3-1.4-1.1-1.4c-0.5,0-1.4,0.3-1.4,1.7v2.8h-0.9v-5.2h0.8v0.7
		c0.2-0.3,0.7-0.9,1.6-0.9c0.8,0,1.8,0.3,1.8,1.8L194.6,362.8L194.6,362.8z"/>
	<path class="st0" d="M196.9,358.3v3.4c0,0.4,0.4,0.4,0.5,0.4h0.3v0.7c-0.3,0-0.6,0.1-0.7,0.1c-0.9,0-1.1-0.5-1.1-1.1v-3.4h-0.7
		v-0.7h0.7v-1.5h0.9v1.5h0.8v0.7h-0.7V358.3z"/>
	<path class="st0" d="M201.2,358.3c0-2.3,1.7-2.5,2.4-2.5c1.2,0,2.2,0.8,2.2,2.1c0,1.3-0.8,1.8-1.9,2.3l-0.7,0.4
		c-1,0.5-1.2,1.1-1.2,1.3h3.8v0.8H201c0.1-1.5,0.7-2.2,1.6-2.8l0.9-0.5c0.7-0.4,1.3-0.7,1.3-1.6c0-0.6-0.4-1.3-1.4-1.3
		c-1.3,0-1.4,1.2-1.4,1.7h-0.8L201.2,358.3z"/>
	<path class="st0" d="M277.4,357.7c-0.1-1.1-1-1.5-1.8-1.5c-0.6,0-1.6,0.2-1.6,1.3c0,0.6,0.4,0.8,0.8,0.9l2,0.5
		c0.9,0.2,1.6,0.8,1.6,1.9c0,1.7-1.6,2.2-2.8,2.2c-1.3,0-1.8-0.4-2.2-0.7c-0.6-0.5-0.7-1.1-0.7-1.8h0.9c0,1.3,1.1,1.7,2,1.7
		c0.7,0,1.9-0.2,1.9-1.2c0-0.8-0.4-1-1.5-1.3l-1.5-0.3c-0.5-0.1-1.5-0.4-1.5-1.7c0-1.1,0.7-2.2,2.5-2.2c2.5,0,2.8,1.5,2.8,2.3
		L277.4,357.7L277.4,357.7z"/>
	<path class="st0" d="M279.5,357.6h0.8v0.7c0.2-0.3,0.6-0.9,1.6-0.9c1.4,0,2.2,1.1,2.2,2.6c0,1.2-0.5,2.9-2.3,2.9
		c-0.7,0-1.2-0.3-1.4-0.7v2.6h-0.9L279.5,357.6 M281.8,362.2c1,0,1.4-0.9,1.4-2c0-0.7-0.1-2-1.4-2s-1.4,1.4-1.4,2.2
		C280.4,361.8,281.2,362.2,281.8,362.2"/>
	<path class="st0" d="M286.2,362.8h-0.9v-5.2h0.8v0.9c0.3-0.6,0.8-1,1.5-1c0.1,0,0.2,0,0.2,0v0.9h-0.3c-0.8,0-1.3,0.6-1.3,1.4
		L286.2,362.8"/>
	<path class="st0" d="M288.7,356.6v-1h0.9v1H288.7 M289.5,362.8h-0.9v-5.2h0.9V362.8"/>
	<path class="st0" d="M295.1,362.8h-0.9v-3.2c0-0.9-0.3-1.4-1.1-1.4c-0.5,0-1.4,0.3-1.4,1.7v2.8h-0.9v-5.2h0.8v0.7
		c0.2-0.3,0.7-0.9,1.6-0.9c0.8,0,1.8,0.3,1.8,1.8v3.7H295.1z"/>
	<path class="st0" d="M297.5,358.3v3.4c0,0.4,0.4,0.4,0.5,0.4h0.3v0.7c-0.3,0-0.6,0.1-0.7,0.1c-0.9,0-1.1-0.5-1.1-1.1v-3.4h-0.7
		v-0.7h0.7v-1.5h0.9v1.5h0.8v0.7h-0.7L297.5,358.3z"/>
	<path class="st0" d="M303.6,358.8c0.2,0,0.3,0,0.5,0c0.7,0,1.3-0.3,1.3-1.1c0-0.4-0.2-1.1-1.3-1.1c-1.2,0-1.3,1-1.4,1.5h-0.9
		c0-1,0.4-2.3,2.3-2.3c1.4,0,2.2,0.8,2.2,1.8c0,0.9-0.5,1.3-0.9,1.4c0.7,0.2,1.2,0.7,1.2,1.6c0,1.1-0.7,2.3-2.5,2.3
		c-0.5,0-1-0.1-1.3-0.3c-0.8-0.4-1-1.2-1-2h0.9c0,0.7,0.2,1.5,1.5,1.5c0.9,0,1.5-0.5,1.5-1.4c0-1.2-1-1.3-1.6-1.3
		c-0.1,0-0.3,0-0.4,0v-0.6H303.6z"/>
	<path class="st0" d="M377.9,357.7c-0.1-1.1-1-1.5-1.8-1.5c-0.6,0-1.6,0.2-1.6,1.3c0,0.6,0.4,0.8,0.8,0.9l2,0.5
		c0.9,0.2,1.6,0.8,1.6,1.9c0,1.7-1.6,2.2-2.8,2.2c-1.3,0-1.8-0.4-2.2-0.7c-0.6-0.5-0.7-1.1-0.7-1.8h0.9c0,1.3,1.1,1.7,2,1.7
		c0.7,0,1.9-0.2,1.9-1.2c0-0.8-0.4-1-1.5-1.3l-1.5-0.3c-0.5-0.1-1.5-0.4-1.5-1.7c0-1.1,0.7-2.2,2.5-2.2c2.5,0,2.8,1.5,2.8,2.3
		L377.9,357.7L377.9,357.7z"/>
	<path class="st0" d="M380.1,357.6h0.8v0.7c0.2-0.3,0.6-0.9,1.6-0.9c1.4,0,2.2,1.1,2.2,2.6c0,1.2-0.5,2.9-2.3,2.9
		c-0.7,0-1.2-0.3-1.4-0.7v2.6h-0.9L380.1,357.6 M382.4,362.2c1,0,1.4-0.9,1.4-2c0-0.7-0.1-2-1.4-2s-1.4,1.4-1.4,2.2
		C380.9,361.8,381.8,362.2,382.4,362.2"/>
	<path class="st0" d="M386.7,362.8h-0.9v-5.2h0.8v0.9c0.3-0.6,0.8-1,1.5-1c0.1,0,0.2,0,0.2,0v0.9H388c-0.8,0-1.3,0.6-1.3,1.4
		L386.7,362.8"/>
	<path class="st0" d="M389.2,356.6v-1h0.9v1H389.2 M390.1,362.8h-0.9v-5.2h0.9V362.8"/>
	<path class="st0" d="M395.7,362.8h-0.9v-3.2c0-0.9-0.3-1.4-1.1-1.4c-0.5,0-1.4,0.3-1.4,1.7v2.8h-0.9v-5.2h0.8v0.7
		c0.2-0.3,0.7-0.9,1.6-0.9c0.8,0,1.8,0.3,1.8,1.8v3.7H395.7z"/>
	<path class="st0" d="M398.1,358.3v3.4c0,0.4,0.3,0.4,0.5,0.4h0.3v0.7c-0.3,0-0.6,0.1-0.7,0.1c-0.9,0-1.1-0.5-1.1-1.1v-3.4h-0.7
		v-0.7h0.7v-1.5h0.9v1.5h0.8v0.7h-0.7L398.1,358.3z"/>
	<path class="st0" d="M406.1,361.1v1.7h-0.9v-1.7h-3.1v-0.9l3.2-4.5h0.7v4.6h1v0.8H406.1 M403,360.3h2.3v-3.2L403,360.3"/>
	<path class="st0" d="M478.5,357.7c0-1.1-1-1.5-1.8-1.5c-0.6,0-1.6,0.2-1.6,1.3c0,0.6,0.4,0.8,0.8,0.9l2,0.5
		c0.9,0.2,1.6,0.8,1.6,1.9c0,1.7-1.6,2.2-2.8,2.2c-1.3,0-1.8-0.4-2.2-0.7c-0.6-0.5-0.7-1.1-0.7-1.8h0.9c0,1.3,1.1,1.7,2,1.7
		c0.7,0,1.9-0.2,1.9-1.2c0-0.8-0.3-1-1.5-1.3l-1.5-0.3c-0.5-0.1-1.5-0.4-1.5-1.7c0-1.1,0.7-2.2,2.5-2.2c2.5,0,2.8,1.5,2.8,2.3
		L478.5,357.7L478.5,357.7z"/>
	<path class="st0" d="M480.7,357.6h0.8v0.7c0.2-0.3,0.6-0.9,1.6-0.9c1.4,0,2.2,1.1,2.2,2.6c0,1.2-0.5,2.9-2.3,2.9
		c-0.7,0-1.2-0.3-1.4-0.7v2.6h-0.9L480.7,357.6 M482.9,362.2c1,0,1.4-0.9,1.4-2c0-0.7-0.1-2-1.4-2s-1.4,1.4-1.4,2.2
		C481.5,361.8,482.4,362.2,482.9,362.2"/>
	<path class="st0" d="M487.3,362.8h-0.9v-5.2h0.8v0.9c0.3-0.6,0.8-1,1.5-1c0.1,0,0.2,0,0.2,0v0.9h-0.3c-0.8,0-1.3,0.6-1.3,1.4
		L487.3,362.8"/>
	<path class="st0" d="M489.8,356.6v-1h0.9v1H489.8 M490.7,362.8h-0.9v-5.2h0.9V362.8"/>
	<path class="st0" d="M496.3,362.8h-0.9v-3.2c0-0.9-0.3-1.4-1.1-1.4c-0.5,0-1.4,0.3-1.4,1.7v2.8H492v-5.2h0.8v0.7
		c0.2-0.3,0.7-0.9,1.6-0.9c0.8,0,1.8,0.3,1.8,1.8v3.7H496.3z"/>
	<path class="st0" d="M498.6,358.3v3.4c0,0.4,0.4,0.4,0.5,0.4h0.3v0.7c-0.3,0-0.6,0.1-0.7,0.1c-0.9,0-1.1-0.5-1.1-1.1v-3.4H497v-0.7
		h0.7v-1.5h0.9v1.5h0.8v0.7h-0.8L498.6,358.3z"/>
	<path class="st0" d="M503.9,358.7c0.3-0.2,0.7-0.4,1.4-0.4c1.1,0,2.3,0.8,2.3,2.2c0,0.8-0.3,2.5-2.5,2.5c-0.9,0-2.1-0.4-2.3-1.9
		h0.9c0.1,0.8,0.7,1.2,1.5,1.2c0.9,0,1.5-0.7,1.5-1.6c0-1-0.7-1.6-1.6-1.6c-0.5,0-1,0.2-1.3,0.7H503l0.5-3.8h3.6v0.9h-3L503.9,358.7
		"/>
	<path class="st0" d="M6.9,196c-1.1,0.1-1.5,1-1.5,1.8c0,0.6,0.2,1.6,1.3,1.6c0.6,0,0.8-0.4,0.9-0.8l0.5-2c0.2-0.9,0.8-1.6,1.9-1.6
		c1.7,0,2.2,1.6,2.2,2.8c0,1.3-0.4,1.8-0.7,2.2c-0.5,0.6-1.1,0.7-1.8,0.7v-0.9c1.3,0,1.7-1.1,1.7-2c0-0.7-0.2-1.9-1.2-1.9
		c-0.8,0-1,0.4-1.3,1.5l-0.3,1.5c-0.1,0.5-0.4,1.5-1.7,1.5c-1.1,0-2.2-0.7-2.2-2.5c0-2.5,1.5-2.8,2.3-2.8L6.9,196L6.9,196z"/>
	<path class="st0" d="M7.5,192.7h3.4c0.4,0,0.4-0.3,0.4-0.5v-0.3H12c0,0.3,0.1,0.6,0.1,0.7c0,0.9-0.5,1.1-1.1,1.1H7.5v0.7H6.8v-0.7
		H5.3v-0.9h1.5V192h0.7L7.5,192.7"/>
	<path class="st0" d="M6.6,189.1c0-1.7,1.4-2.4,2.8-2.4c1.3,0,2.8,0.8,2.8,2.4c0,1.7-1.4,2.4-2.8,2.4C8.1,191.5,6.6,190.7,6.6,189.1
		 M11.4,189.1c0-1.3-1.3-1.5-2-1.5s-2,0.3-2,1.5s1.3,1.5,2,1.5S11.4,190.3,11.4,189.1"/>
	<path class="st0" d="M12,184.6v0.9H6.8v-0.8h0.9c-0.6-0.3-1-0.8-1-1.5c0-0.1,0-0.2,0-0.2h0.9v0.3c0,0.8,0.6,1.3,1.4,1.3H12"/>
	<path class="st0" d="M6.8,178.7v-1c1.7,0.6,3.4,1.2,5.1,1.9c2.1,0.8,2.2,0.9,2.2,2c0,0.1,0,0.2-0.1,0.4h-0.8c0-0.1,0.1-0.3,0.1-0.5
		c0-0.5-0.1-0.5-1.2-0.9l-5.4,1.9v-1l4.3-1.4L6.8,178.7"/>
	<path class="st0" d="M6.8,174.3v-0.8h0.7c-0.3-0.2-0.9-0.6-0.9-1.6c0-1.4,1.1-2.2,2.6-2.2c1.2,0,2.9,0.5,2.9,2.3
		c0,0.7-0.3,1.2-0.7,1.4H14v0.9L6.8,174.3 M11.4,172c0-1-0.9-1.4-2-1.4c-0.7,0-2,0.1-2,1.4c0,1.3,1.4,1.4,2.2,1.4
		C11,173.4,11.4,172.6,11.4,172"/>
	<path class="st0" d="M6.6,166.5c0-1.7,1.4-2.4,2.8-2.4c1.3,0,2.8,0.8,2.8,2.4c0,1.7-1.4,2.4-2.8,2.4C8.1,169,6.6,168.2,6.6,166.5
		 M11.4,166.5c0-1.3-1.3-1.5-2-1.5s-2,0.3-2,1.5s1.3,1.5,2,1.5S11.4,167.8,11.4,166.5"/>
	<path class="st0" d="M5.8,163.1h-1v-0.9h1V163.1 M12,162.2v0.9H6.8v-0.9H12"/>
	<path class="st0" d="M12,156.6v0.9H8.8c-0.9,0-1.4,0.3-1.4,1.1c0,0.5,0.3,1.4,1.7,1.4H12v0.9H6.8V160h0.7c-0.3-0.2-0.9-0.7-0.9-1.6
		c0-0.8,0.3-1.8,1.8-1.8L12,156.6"/>
	<path class="st0" d="M7.5,154.2h3.4c0.4,0,0.4-0.4,0.4-0.5v-0.3H12c0,0.3,0.1,0.6,0.1,0.7c0,0.9-0.5,1.1-1.1,1.1H7.5v0.7H6.8v-0.7
		H5.3v-0.9h1.5v-0.8h0.7L7.5,154.2"/>
	<path class="st0" d="M8.3,149.6c-0.3,0-0.9,0.1-0.9,1.2c0,0.3,0.1,1,0.7,1c0.4,0,0.5-0.3,0.7-0.9L9,150c0.3-1.1,0.7-1.5,1.4-1.5
		c1.1,0,1.7,0.9,1.7,2.1c0,2.1-1.2,2.2-1.8,2.2V152c0.4,0,1.1-0.1,1.1-1.4c0-0.6-0.2-1.2-0.8-1.2c-0.4,0-0.6,0.3-0.7,1l-0.2,1
		c-0.2,0.7-0.5,1.2-1.3,1.2c-1.1,0-1.7-0.9-1.7-2c0-1.9,1.4-2,1.6-2V149.6"/>
	<path class="st0" d="M29.1,346.6c-1.6,0-1.9-1.7-1.9-2.9c0-1.2,0.3-2.9,1.9-2.9s1.9,1.7,1.9,2.9C31,344.9,30.7,346.6,29.1,346.6
		 M29.1,341.5c-0.8,0-1.2,0.8-1.2,2.3s0.4,2.3,1.2,2.3s1.2-0.8,1.2-2.3S29.9,341.5,29.1,341.5"/>
	<path class="st0" d="M25.6,172.5h-0.8v-4h-1.3v-0.6c0.9-0.1,1.3-0.2,1.5-1.1h0.6L25.6,172.5"/>
	<path class="st0" d="M28,169.2c0.2-0.2,0.6-0.4,1.1-0.4c0.9,0,1.8,0.6,1.8,1.8c0,0.6-0.3,2-2,2c-0.7,0-1.7-0.3-1.8-1.6h0.7
		c0.1,0.7,0.6,0.9,1.2,0.9c0.7,0,1.2-0.6,1.2-1.3c0-0.8-0.6-1.2-1.2-1.2c-0.4,0-0.8,0.2-1,0.5h-0.6l0.4-3h2.9v0.7h-2.4L28,169.2"/>
	<path class="st0" d="M22.7,110.9c0-1.8,1.3-2,1.9-2c1,0,1.8,0.6,1.8,1.7c0,1-0.7,1.4-1.5,1.9l-0.6,0.3c-0.8,0.4-0.9,0.9-1,1.1h3.1
		v0.7h-3.8c0-1.2,0.6-1.8,1.3-2.2l0.7-0.4c0.6-0.3,1-0.6,1-1.3c0-0.4-0.3-1-1.1-1c-1.1,0-1.1,1-1.1,1.4h-0.7L22.7,110.9z"/>
	<path class="st0" d="M29.1,114.6c-1.6,0-1.9-1.7-1.9-2.9c0-1.2,0.3-2.9,1.9-2.9s1.9,1.7,1.9,2.9C31,112.9,30.7,114.6,29.1,114.6
		 M29.1,109.5c-0.8,0-1.2,0.8-1.2,2.3s0.4,2.3,1.2,2.3s1.2-0.8,1.2-2.3S29.9,109.5,29.1,109.5"/>
	<path class="st0" d="M22.7,52.6c0-1.8,1.3-2,1.9-2c1,0,1.8,0.6,1.8,1.7c0,1-0.7,1.4-1.5,1.9l-0.6,0.3c-0.8,0.4-0.9,0.9-1,1.1h3.1
		v0.7h-3.8c0-1.2,0.6-1.8,1.3-2.2l0.7-0.4c0.6-0.3,1-0.6,1-1.3c0-0.4-0.3-1-1.1-1c-1.1,0-1.1,1-1.1,1.4h-0.7L22.7,52.6z"/>
	<path class="st0" d="M28,52.9c0.2-0.2,0.6-0.4,1.1-0.4c0.9,0,1.8,0.6,1.8,1.8c0,0.6-0.3,2-2,2c-0.7,0-1.7-0.3-1.8-1.6h0.7
		c0.1,0.7,0.6,0.9,1.2,0.9c0.7,0,1.2-0.6,1.2-1.3c0-0.8-0.6-1.2-1.2-1.2c-0.4,0-0.8,0.2-1,0.5h-0.6l0.4-3h2.9v0.7h-2.4L28,52.9"/>
	<path class="st0" d="M28,286c0.2-0.2,0.6-0.4,1.1-0.4c0.9,0,1.8,0.6,1.8,1.8c0,0.6-0.3,2-2,2c-0.7,0-1.7-0.3-1.8-1.6h0.7
		c0.1,0.7,0.6,0.9,1.2,0.9c0.7,0,1.2-0.6,1.2-1.3c0-0.8-0.6-1.2-1.2-1.2c-0.4,0-0.8,0.2-1,0.5h-0.6l0.4-3h2.9v0.7h-2.4L28,286"/>
	<path class="st0" d="M25.7,230.2H25v-4h-1.3v-0.6c0.9-0.1,1.3-0.2,1.5-1.1h0.6v5.7L25.7,230.2z"/>
	<path class="st0" d="M29.1,230.4c-1.6,0-1.9-1.7-1.9-2.9s0.3-2.9,1.9-2.9s1.9,1.7,1.9,2.9S30.7,230.4,29.1,230.4 M29.1,225.2
		c-0.8,0-1.2,0.8-1.2,2.3s0.4,2.3,1.2,2.3s1.2-0.8,1.2-2.3S29.9,225.2,29.1,225.2"/>
</g>
<linearGradient id="SVGID_1_" gradientUnits="userSpaceOnUse" x1="19.725" y1="304.425" x2="127.575" y2="196.575">
	<stop  offset="0" style="stop-color:#0052CC"/>
	<stop  offset="1" style="stop-color:#2684FF"/>
</linearGradient>
<path class="st1" d="M58.8,157.5h29.7v186H58.8V157.5z"/>
<linearGradient id="SVGID_2_" gradientUnits="userSpaceOnUse" x1="49.425" y1="304.225" x2="157.275" y2="196.375">
	<stop  offset="0" style="stop-color:#37B47F"/>
	<stop  offset="1" style="stop-color:#57D9A3"/>
</linearGradient>
<path class="st2" d="M88.5,157.3h29.7v186H88.5V157.3z"/>
<linearGradient id="SVGID_3_" gradientUnits="userSpaceOnUse" x1="112.025" y1="296.125" x2="236.475" y2="171.675">
	<stop  offset="0" style="stop-color:#0052CC"/>
	<stop  offset="1" style="stop-color:#2684FF"/>
</linearGradient>
<path class="st3" d="M159.4,124.3h29.7v219.2h-29.7V124.3z"/>
<linearGradient id="SVGID_4_" gradientUnits="userSpaceOnUse" x1="160.425" y1="314.725" x2="247.275" y2="227.875">
	<stop  offset="0" style="stop-color:#37B47F"/>
	<stop  offset="1" style="stop-color:#57D9A3"/>
</linearGradient>
<path class="st4" d="M189,199.3h29.7v144H189V199.3z"/>
<linearGradient id="SVGID_5_" gradientUnits="userSpaceOnUse" x1="202.025" y1="285.625" x2="347.475" y2="140.175">
	<stop  offset="0" style="stop-color:#0052CC"/>
	<stop  offset="1" style="stop-color:#2684FF"/>
</linearGradient>
<path class="st5" d="M259.9,82.3h29.7v261.2h-29.7V82.3z"/>
<g>
	<linearGradient id="SVGID_6_" gradientUnits="userSpaceOnUse" x1="246.025" y1="299.725" x2="362.875" y2="182.875">
		<stop  offset="0" style="stop-color:#37B47F"/>
		<stop  offset="1" style="stop-color:#57D9A3"/>
	</linearGradient>
	<path class="st6" d="M289.6,139.3h29.7v204h-29.7V139.3z"/>
	<linearGradient id="SVGID_7_" gradientUnits="userSpaceOnUse" x1="325.25" y1="278.45" x2="484.85" y2="118.85">
		<stop  offset="0" style="stop-color:#37B47F"/>
		<stop  offset="1" style="stop-color:#57D9A3"/>
	</linearGradient>
	<path class="st7" d="M390.2,53.9h29.7v289.5h-29.7V53.9z"/>
</g>
<linearGradient id="SVGID_8_" gradientUnits="userSpaceOnUse" x1="295.55" y1="278.45" x2="455.15" y2="118.85">
	<stop  offset="0" style="stop-color:#0052CC"/>
	<stop  offset="1" style="stop-color:#2684FF"/>
</linearGradient>
<path class="st8" d="M360.5,53.9h29.7v289.5h-29.7V53.9z"/>
<linearGradient id="SVGID_9_" gradientUnits="userSpaceOnUse" x1="437.375" y1="289.975" x2="573.725" y2="153.625">
	<stop  offset="0" style="stop-color:#37B47F"/>
	<stop  offset="1" style="stop-color:#57D9A3"/>
</linearGradient>
<path class="st9" d="M490.7,100.3h29.7v243h-29.7V100.3z"/>
<linearGradient id="SVGID_10_" gradientUnits="userSpaceOnUse" x1="407.775" y1="289.975" x2="544.125" y2="153.625">
	<stop  offset="0" style="stop-color:#0052CC"/>
	<stop  offset="1" style="stop-color:#2684FF"/>
</linearGradient>
<path class="st10" d="M461.1,100.3h29.7v243h-29.7V100.3z"/>
<g>
	<path class="st11" d="M43.9,10h1.3L42,18.6h-1.2L37.7,10H39l2.5,7.3L43.9,10"/>
	<path class="st11" d="M50.6,16.6c0,0.3-0.3,1.2-1.1,1.7c-0.3,0.2-0.7,0.4-1.7,0.4c-1.8,0-2.8-1.3-2.8-3.1c0-1.9,0.9-3.5,3-3.5
		c1.8,0,2.7,1.4,2.7,3.7h-4.6c0,1.3,0.6,2.1,1.8,2.1c1,0,1.6-0.8,1.6-1.2L50.6,16.6L50.6,16.6z M49.6,14.9c-0.1-1-0.5-1.9-1.8-1.9
		c-1,0-1.7,0.9-1.7,1.9H49.6"/>
	<path class="st11" d="M53,18.6h-1.1V10H53V18.6z"/>
	<path class="st11" d="M57.1,12.1c2,0,2.9,1.7,2.9,3.3s-0.9,3.3-2.9,3.3s-2.9-1.7-2.9-3.3S55.1,12.1,57.1,12.1 M57.1,17.8
		c1.5,0,1.8-1.6,1.8-2.4c0-0.8-0.3-2.4-1.8-2.4s-1.8,1.6-1.8,2.4C55.3,16.3,55.6,17.8,57.1,17.8"/>
	<path class="st11" d="M65.2,14.4c-0.1-0.8-0.6-1.3-1.5-1.3c-1.3,0-1.7,1.2-1.7,2.4c0,1.1,0.3,2.4,1.7,2.4c0.7,0,1.3-0.5,1.5-1.5h1
		c-0.1,1-0.7,2.4-2.6,2.4c-1.8,0-2.8-1.3-2.8-3.1c0-1.9,0.9-3.5,3-3.5c1.6,0,2.3,1.2,2.4,2.3L65.2,14.4L65.2,14.4z"/>
	<path class="st11" d="M67.3,11.2V10h1.1v1.2H67.3 M68.3,18.6h-1.1v-6.3h1.1V18.6"/>
	<path class="st11" d="M71.2,13.2v4.1c0,0.5,0.4,0.5,0.6,0.5h0.4v0.8c-0.4,0-0.7,0.1-0.8,0.1c-1,0-1.3-0.6-1.3-1.3v-4.1h-0.9v-0.9
		h0.9v-1.8h1.1v1.8h1v0.9L71.2,13.2L71.2,13.2z"/>
	<path class="st11" d="M77.4,12.3h1.2c-0.7,2.1-1.5,4.1-2.3,6.2c-1,2.5-1.1,2.7-2.5,2.7c-0.2,0-0.3,0-0.4-0.1v-1
		c0.1,0,0.3,0.1,0.6,0.1c0.6,0,0.6-0.2,1.1-1.5l-2.3-6.4H74l1.7,5.1L77.4,12.3"/>
	<path class="st11" d="M86.8,14.4c-0.1-0.8-0.6-1.3-1.5-1.3c-1.3,0-1.7,1.2-1.7,2.4c0,1.1,0.3,2.4,1.7,2.4c0.7,0,1.3-0.5,1.5-1.5h1
		c-0.1,1-0.7,2.4-2.6,2.4c-1.8,0-2.8-1.3-2.8-3.1c0-1.9,0.9-3.5,3-3.5c1.6,0,2.3,1.2,2.4,2.3L86.8,14.4L86.8,14.4z"/>
	<path class="st11" d="M93.9,18.6h-1.1v-4.1c0-0.9-0.2-1.4-1.2-1.4c-0.9,0-1.8,0.5-1.8,2.1v3.4h-1.1V10h1.1v3.2c0.3-0.4,0.8-1,1.8-1
		s2.2,0.4,2.2,2.2L93.9,18.6L93.9,18.6z"/>
	<path class="st11" d="M95.5,14.2c0-1.5,1-2.1,2.6-2.1c0.5,0,2.3,0.1,2.3,1.8v3.6c0,0.3,0.1,0.4,0.3,0.4c0.1,0,0.2,0,0.3,0v0.8
		c-0.2,0-0.3,0.1-0.6,0.1c-0.9,0-1.1-0.5-1.1-1c-0.4,0.4-1,1-2.3,1c-1.2,0-2-0.7-2-1.8c0-0.5,0.2-1.8,1.9-2l1.7-0.2
		c0.3,0,0.6-0.1,0.6-0.7c0-0.7-0.5-1-1.5-1c-1.2,0-1.4,0.7-1.4,1.2h-0.8V14.2z M99.3,15.4c-0.2,0.1-0.4,0.2-1.7,0.4
		c-0.5,0.1-1.3,0.2-1.3,1c0,0.7,0.3,1.1,1.1,1.1c1,0,1.9-0.6,1.9-1.5V15.4"/>
	<path class="st11" d="M103.4,18.6h-1.1v-6.3h1v1c0.4-0.7,1-1.2,1.8-1.2c0.1,0,0.2,0,0.3,0v1.1H105c-1,0-1.6,0.8-1.6,1.7L103.4,18.6
		"/>
	<path class="st11" d="M108,13.2v4.1c0,0.5,0.4,0.5,0.6,0.5h0.4v0.8c-0.4,0-0.7,0.1-0.8,0.1c-1,0-1.3-0.6-1.3-1.3v-4.1H106v-0.9h0.9
		v-1.8h1.1v1.8h1v0.9L108,13.2L108,13.2z"/>
</g>
<g>
	<path class="st0" d="M466.8,13.8c-0.2-1-1.1-1.2-1.6-1.2c-1,0-1.9,0.8-1.9,2.3c0,1.4,0.5,2.4,1.9,2.4c0.5,0,1.4-0.2,1.6-1.6h0.8
		c-0.3,2.2-2.1,2.3-2.5,2.3c-1.3,0-2.6-0.8-2.6-3.1c0-1.8,1-3,2.7-3c1.5,0,2.2,0.9,2.4,1.9L466.8,13.8"/>
	<path class="st0" d="M470,13.5c1.3,0,1.9,1.1,1.9,2.2s-0.6,2.2-1.9,2.2s-1.9-1.1-1.9-2.2C468.1,14.7,468.7,13.5,470,13.5 M470,17.3
		c1,0,1.2-1,1.2-1.6s-0.2-1.6-1.2-1.6s-1.2,1-1.2,1.6S469,17.3,470,17.3"/>
	<path class="st0" d="M472.8,13.6h0.7v0.6c0.2-0.2,0.5-0.7,1.3-0.7s1,0.5,1.1,0.7c0.4-0.4,0.6-0.7,1.3-0.7c0.4,0,1.3,0.2,1.3,1.4
		v2.9h-0.7v-2.7c0-0.6-0.2-1-0.8-1c-0.6,0-1,0.6-1,1.1v2.6h-0.7v-2.9c0-0.4-0.1-0.8-0.7-0.8c-0.4,0-1.1,0.3-1.1,1.4v2.3h-0.7
		L472.8,13.6"/>
	<path class="st0" d="M479.4,13.6h0.7v0.6c0.2-0.2,0.5-0.7,1.3-0.7s1,0.5,1.1,0.7c0.4-0.4,0.6-0.7,1.3-0.7c0.4,0,1.3,0.2,1.3,1.4
		v2.9h-0.7v-2.7c0-0.6-0.2-1-0.8-1c-0.6,0-1,0.6-1,1.1v2.6h-0.7v-2.9c0-0.4-0.1-0.8-0.7-0.8c-0.4,0-1.1,0.3-1.1,1.4v2.3h-0.7
		L479.4,13.6"/>
	<path class="st0" d="M486.1,12.9v-0.8h0.7v0.8H486.1 M486.8,17.8h-0.7v-4.2h0.7V17.8"/>
	<path class="st0" d="M488.7,14.2V17c0,0.3,0.3,0.3,0.4,0.3h0.2v0.6c-0.3,0-0.5,0.1-0.5,0.1c-0.7,0-0.8-0.4-0.8-0.9v-2.8h-0.6v-0.6
		h0.6v-1.2h0.7v1.2h0.7v0.6h-0.7L488.7,14.2z"/>
	<path class="st0" d="M490.1,13.6h0.7v0.6c0.2-0.2,0.5-0.7,1.3-0.7s1,0.5,1.1,0.7c0.4-0.4,0.6-0.7,1.3-0.7c0.4,0,1.3,0.2,1.3,1.4
		v2.9H495v-2.7c0-0.6-0.2-1-0.8-1c-0.6,0-1,0.6-1,1.1v2.6h-0.7v-2.9c0-0.4-0.1-0.8-0.7-0.8c-0.4,0-1.1,0.3-1.1,1.4v2.3H490v-4.2
		L490.1,13.6z"/>
	<path class="st0" d="M500.3,16.5c0,0.2-0.2,0.8-0.7,1.1c-0.2,0.1-0.5,0.3-1.1,0.3c-1.2,0-1.9-0.9-1.9-2.1c0-1.3,0.6-2.3,2-2.3
		c1.2,0,1.8,1,1.8,2.4h-3.1c0,0.9,0.4,1.4,1.2,1.4c0.7,0,1.1-0.5,1.1-0.8H500.3 M499.6,15.4c0-0.6-0.3-1.2-1.2-1.2
		c-0.6,0-1.2,0.6-1.2,1.2H499.6"/>
	<path class="st0" d="M504.6,17.8h-0.7v-2.6c0-0.7-0.2-1.1-0.9-1.1c-0.4,0-1.1,0.3-1.1,1.4v2.3h-0.7v-4.2h0.7v0.6
		c0.2-0.2,0.5-0.7,1.3-0.7c0.6,0,1.5,0.3,1.5,1.5L504.6,17.8L504.6,17.8z"/>
	<path class="st0" d="M506.5,14.2V17c0,0.3,0.3,0.3,0.4,0.3h0.2v0.6c-0.3,0-0.5,0.1-0.5,0.1c-0.7,0-0.8-0.4-0.8-0.9v-2.8h-0.6v-0.6
		h0.6v-1.2h0.7v1.2h0.7v0.6h-0.7L506.5,14.2z"/>
	<path class="st0" d="M464.6,33.3h-0.8l-1.5-5.7h0.8l1.1,4.7l1.3-4.7h0.8l1.3,4.7l1.1-4.7h0.9l-1.5,5.7h-0.8l-1.3-4.8L464.6,33.3"/>
	<path class="st0" d="M471.7,29c1.3,0,1.9,1.1,1.9,2.2c0,1.1-0.6,2.2-1.9,2.2s-1.9-1.1-1.9-2.2C469.7,30.1,470.3,29,471.7,29
		 M471.7,32.8c1,0,1.2-1,1.2-1.6s-0.2-1.6-1.2-1.6s-1.2,1-1.2,1.6S470.7,32.8,471.7,32.8"/>
	<path class="st0" d="M475.2,33.3h-0.7v-4.2h0.7v0.7c0.3-0.5,0.6-0.8,1.2-0.8c0.1,0,0.1,0,0.2,0v0.7h-0.3c-0.7,0-1.1,0.5-1.1,1.1
		L475.2,33.3"/>
	<path class="st0" d="M480.7,33.3h-0.9l-1.3-2.1l-0.6,0.5v1.6h-0.7v-5.7h0.7v3.3l1.8-1.8h0.9l-1.6,1.6L480.7,33.3"/>
	<path class="st0" d="M486,30.5c-0.1-0.6-0.4-0.9-1-0.9c-0.9,0-1.2,0.8-1.2,1.6c0,0.7,0.2,1.6,1.1,1.6c0.5,0,0.9-0.4,1-1h0.7
		c-0.1,0.7-0.5,1.6-1.7,1.6s-1.9-0.9-1.9-2.1c0-1.3,0.6-2.3,2-2.3c1.1,0,1.5,0.8,1.6,1.5L486,30.5"/>
	<path class="st0" d="M489.1,29c1.3,0,1.9,1.1,1.9,2.2c0,1.1-0.6,2.2-1.9,2.2s-1.9-1.1-1.9-2.2C487.2,30.1,487.8,29,489.1,29
		 M489.1,32.8c1,0,1.2-1,1.2-1.6s-0.2-1.6-1.2-1.6s-1.2,1-1.2,1.6S488.1,32.8,489.1,32.8"/>
	<path class="st0" d="M491.9,29.1h0.7v0.6c0.2-0.2,0.5-0.7,1.3-0.7s1,0.5,1.1,0.7c0.4-0.4,0.6-0.7,1.3-0.7c0.4,0,1.3,0.2,1.3,1.4
		v2.9h-0.7v-2.7c0-0.6-0.2-1-0.8-1c-0.6,0-1,0.6-1,1.1v2.6h-0.7v-2.9c0-0.4-0.1-0.8-0.7-0.8c-0.4,0-1.1,0.3-1.1,1.4v2.3h-0.7
		L491.9,29.1"/>
	<path class="st0" d="M498.5,29.1h0.7v0.6c0.2-0.2,0.5-0.7,1.2-0.7c1.1,0,1.7,0.9,1.7,2.1c0,1-0.4,2.3-1.8,2.3
		c-0.6,0-0.9-0.3-1.1-0.6v2.1h-0.7L498.5,29.1 M500.3,32.8c0.8,0,1.1-0.7,1.1-1.6c0-0.5-0.1-1.6-1.1-1.6s-1.1,1.1-1.1,1.8
		C499.1,32.5,499.8,32.8,500.3,32.8"/>
	<path class="st0" d="M503.7,33.3H503v-5.7h0.7V33.3"/>
	<path class="st0" d="M508.3,32c0,0.2-0.2,0.8-0.7,1.1c-0.2,0.1-0.5,0.3-1.1,0.3c-1.2,0-1.9-0.9-1.9-2.1c0-1.3,0.6-2.3,2-2.3
		c1.2,0,1.8,1,1.8,2.4h-3.1c0,0.9,0.4,1.4,1.2,1.4c0.7,0,1.1-0.5,1.1-0.8H508.3 M507.6,30.8c0-0.6-0.3-1.2-1.2-1.2
		c-0.6,0-1.2,0.6-1.2,1.2H507.6"/>
	<path class="st0" d="M510.1,29.7v2.7c0,0.3,0.3,0.3,0.4,0.3h0.2v0.6c-0.3,0-0.5,0.1-0.5,0.1c-0.7,0-0.8-0.4-0.8-0.9v-2.8h-0.6v-0.6
		h0.6v-1.2h0.7v1.2h0.7v0.6L510.1,29.7"/>
	<path class="st0" d="M514.8,32c0,0.2-0.2,0.8-0.7,1.1c-0.2,0.1-0.5,0.3-1.1,0.3c-1.2,0-1.9-0.9-1.9-2.1c0-1.3,0.6-2.3,2-2.3
		c1.2,0,1.8,1,1.8,2.4h-3.1c0,0.9,0.4,1.4,1.2,1.4c0.7,0,1.1-0.5,1.1-0.8H514.8 M514.1,30.8c0-0.6-0.3-1.2-1.2-1.2
		c-0.6,0-1.2,0.6-1.2,1.2H514.1"/>
	<path class="st0" d="M519.2,33.3h-0.7v-0.6c-0.3,0.6-0.8,0.7-1.2,0.7c-1.4,0-1.8-1.3-1.8-2.3c0-1.2,0.6-2.1,1.7-2.1
		c0.8,0,1.1,0.5,1.2,0.7v-0.1v-2.1h0.7L519.2,33.3L519.2,33.3z M517.3,32.8c0.4,0,1.1-0.3,1.1-1.4c0-0.7-0.1-1.8-1.1-1.8
		c-1.1,0-1.1,1-1.1,1.6C516.2,32.1,516.6,32.8,517.3,32.8"/>
</g>
<linearGradient id="SVGID_11_" gradientUnits="userSpaceOnUse" x1="447.5" y1="36.4" x2="458" y2="25.9">
	<stop  offset="0" style="stop-color:#37B47F"/>
	<stop  offset="1" style="stop-color:#57D9A3"/>
</linearGradient>
<path class="st12" d="M447.5,25.9H458v10.5h-10.5V25.9z"/>
<linearGradient id="SVGID_12_" gradientUnits="userSpaceOnUse" x1="447.5" y1="20.7" x2="458" y2="10.2">
	<stop  offset="0" style="stop-color:#0052CC"/>
	<stop  offset="1" style="stop-color:#2684FF"/>
</linearGradient>
<path class="st13" d="M447.5,10.2H458v10.5h-10.5V10.2z"/>
<path class="st14" d="M38.8,40v304.2h523.5"/>
</svg>
