<?xml version="1.0" encoding="utf-8"?>
<!-- Generator: Adobe Illustrator 21.1.0, SVG Export Plug-In . SVG Version: 6.00 Build 0)  -->
<svg version="1.1" id="Layer_1" xmlns="http://www.w3.org/2000/svg" xmlns:xlink="http://www.w3.org/1999/xlink" x="0px" y="0px"
	 viewBox="0 0 564 385" style="enable-background:new 0 0 564 385;" xml:space="preserve">
<style type="text/css">
	.st0{fill:#333333;}
	.st1{opacity:0.6;fill:#EBECF0;enable-background:new    ;}
	.st2{fill:#ECF2F9;stroke:#FF8B00;stroke-width:2;stroke-miterlimit:10;}
	.st3{fill:none;stroke:#0065FF;stroke-width:2;stroke-miterlimit:10;}
	.st4{fill:none;stroke:#DFE1E5;stroke-width:1.139;stroke-miterlimit:10;}
	.st5{fill:#36B37E;}
	.st6{fill:#FFFFFF;stroke:#36B37E;stroke-width:2;stroke-miterlimit:10;}
	.st7{fill:#010101;}
	.st8{fill:#989898;}
	.st9{fill:none;stroke:#FF8B00;stroke-miterlimit:10;}
	.st10{fill:none;stroke:#0065FF;stroke-miterlimit:10;}
	.st11{fill:#EBECF0;}
</style>
<g>
	<path class="st0" d="M29.1,336.7c-1.6,0-1.9-1.7-1.9-2.9s0.3-2.9,1.9-2.9s1.9,1.7,1.9,2.9S30.7,336.7,29.1,336.7 M29.1,331.5
		c-0.8,0-1.2,0.8-1.2,2.3s0.4,2.3,1.2,2.3s1.2-0.8,1.2-2.3S29.9,331.5,29.1,331.5"/>
	<path class="st0" d="M25.7,175.9H25v-4h-1.3v-0.6c0.9-0.1,1.3-0.2,1.5-1.1h0.6v5.7L25.7,175.9z"/>
	<path class="st0" d="M29.1,176c-1.6,0-1.9-1.7-1.9-2.9s0.3-2.9,1.9-2.9s1.9,1.7,1.9,2.9S30.7,176,29.1,176 M29.1,170.9
		c-0.8,0-1.2,0.8-1.2,2.3s0.4,2.3,1.2,2.3s1.2-0.8,1.2-2.3S29.9,170.9,29.1,170.9"/>
	<path class="st0" d="M22.8,130.2c0-1.8,1.3-2,1.9-2c1,0,1.8,0.6,1.8,1.7c0,1-0.7,1.4-1.5,1.9l-0.6,0.3c-0.8,0.4-0.9,0.9-1,1.1h3.1
		v0.7h-3.8c0-1.2,0.6-1.8,1.3-2.2l0.7-0.4c0.6-0.3,1-0.6,1-1.3c0-0.4-0.3-1-1.1-1c-1.1,0-1.1,1-1.1,1.4h-0.7L22.8,130.2z"/>
	<path class="st0" d="M29.1,133.9c-1.6,0-1.9-1.7-1.9-2.9s0.3-2.9,1.9-2.9s1.9,1.7,1.9,2.9S30.7,133.9,29.1,133.9 M29.1,128.8
		c-0.8,0-1.2,0.8-1.2,2.3s0.4,2.3,1.2,2.3s1.2-0.8,1.2-2.3S29.9,128.8,29.1,128.8"/>
	<path class="st0" d="M24.2,101.4c0.1,0,0.2,0,0.4,0c0.5,0,1.1-0.2,1.1-0.9c0-0.3-0.2-0.9-1-0.9c-1,0-1.1,0.8-1.1,1.2h-0.7
		c0-0.8,0.3-1.8,1.8-1.8c1.1,0,1.7,0.6,1.7,1.5c0,0.7-0.4,1.1-0.7,1.2c0.5,0.2,0.9,0.6,0.9,1.3c0,0.9-0.6,1.8-2,1.8
		c-0.4,0-0.8-0.1-1-0.2c-0.6-0.3-0.8-1-0.8-1.6h0.7c0,0.5,0.2,1.2,1.2,1.2c0.7,0,1.2-0.4,1.2-1.1c0-0.9-0.8-1-1.3-1
		c-0.1,0-0.2,0-0.3,0v-0.7H24.2z"/>
	<path class="st0" d="M29.1,104.8c-1.6,0-1.9-1.7-1.9-2.9c0-1.2,0.3-2.9,1.9-2.9s1.9,1.7,1.9,2.9C31,103.1,30.7,104.8,29.1,104.8
		 M29.1,99.6c-0.8,0-1.2,0.8-1.2,2.3s0.4,2.3,1.2,2.3s1.2-0.8,1.2-2.3S29.9,99.6,29.1,99.6"/>
	<path class="st0" d="M23.6,59.3c0.2-0.2,0.6-0.4,1.1-0.4c0.9,0,1.8,0.6,1.8,1.8c0,0.6-0.3,2-2,2c-0.7,0-1.7-0.3-1.8-1.6h0.7
		c0.1,0.7,0.6,0.9,1.2,0.9c0.7,0,1.2-0.6,1.2-1.3c0-0.8-0.6-1.2-1.2-1.2c-0.4,0-0.8,0.2-1,0.5H23l0.4-3h2.9v0.7h-2.4L23.6,59.3"/>
	<path class="st0" d="M29.1,62.7c-1.6,0-1.9-1.7-1.9-2.9s0.3-2.9,1.9-2.9s1.9,1.7,1.9,2.9S30.7,62.7,29.1,62.7 M29.1,57.6
		c-0.8,0-1.2,0.8-1.2,2.3s0.4,2.3,1.2,2.3s1.2-0.8,1.2-2.3S29.9,57.6,29.1,57.6"/>
	<path class="st0" d="M25.8,80.8v1.4h-0.7v-1.4h-2.5v-0.7l2.6-3.6h0.6v3.6h0.8v0.6L25.8,80.8L25.8,80.8z M23.3,80.2h1.8v-2.6
		L23.3,80.2"/>
	<path class="st0" d="M29.1,82.3c-1.6,0-1.9-1.7-1.9-2.9c0-1.2,0.3-2.9,1.9-2.9s1.9,1.7,1.9,2.9C31,80.6,30.7,82.3,29.1,82.3
		 M29.1,77.1c-0.8,0-1.2,0.8-1.2,2.3s0.4,2.3,1.2,2.3s1.2-0.8,1.2-2.3S29.9,77.1,29.1,77.1"/>
	<path class="st0" d="M65,347.6h-0.9v-5h-1.6v-0.7c1.1-0.1,1.6-0.2,1.9-1.3H65V347.6"/>
	<path class="st0" d="M69.2,347.8c-2,0-2.4-2.1-2.4-3.6s0.4-3.6,2.4-3.6s2.4,2.1,2.4,3.6S71.2,347.8,69.2,347.8 M69.2,341.4
		c-1,0-1.5,1.1-1.5,2.8s0.5,2.8,1.5,2.8s1.5-1.1,1.5-2.8S70.2,341.4,69.2,341.4"/>
	<path class="st0" d="M76.2,345.5l-0.8,2.1h-1l2.7-7.2h1.1l2.6,7.2h-1.1l-0.7-2.1H76.2 M78.7,344.7l-1.1-3.2l-1.1,3.2H78.7"/>
	<path class="st0" d="M84.7,347.6v-0.8c-0.4,0.6-0.8,0.9-1.7,0.9c-0.8,0-1.7-0.4-1.7-1.6v-3.8h0.9v3.5c0,0.9,0.4,1.1,1,1.1
		c1.1,0,1.4-1,1.4-1.7v-2.9h0.9v5.2L84.7,347.6L84.7,347.6z"/>
	<path class="st0" d="M91.2,347.2c0,0.8,0,2.6-2.4,2.6c-0.6,0-1.8-0.2-2-1.6h0.9c0.2,0.8,1,0.8,1.2,0.8c1.5,0,1.5-1.2,1.5-1.8V347
		c-0.2,0.4-0.7,0.7-1.4,0.7c-1.8,0-2.3-1.7-2.3-2.9c0-1.5,0.8-2.6,2.2-2.6c0.9,0,1.3,0.6,1.6,0.9v-0.7h0.8L91.2,347.2L91.2,347.2z
		 M88.9,347c0.6,0,1.4-0.4,1.4-1.8c0-0.8-0.1-2.2-1.4-2.2c-1.4,0-1.4,1.3-1.4,2C87.5,346.1,88,347,88.9,347"/>
	<path class="st0" d="M144.7,347.6h-0.9v-5h-1.6v-0.7c1.1-0.1,1.6-0.2,1.9-1.3h0.7L144.7,347.6L144.7,347.6z"/>
	<path class="st0" d="M146.6,340.7h4.9v0.8c-0.7,0.7-2.4,3-2.9,6.1h-1c0.2-1.9,1.5-4.4,2.9-6h-3.9V340.7"/>
	<path class="st0" d="M156,345.5l-0.8,2.1h-1l2.7-7.2h1.1l2.6,7.2h-1.1l-0.7-2.1H156 M158.5,344.7l-1.1-3.2l-1.1,3.2H158.5"/>
	<path class="st0" d="M164.5,347.6v-0.8c-0.4,0.6-0.8,0.9-1.7,0.9c-0.8,0-1.7-0.4-1.7-1.6v-3.8h0.9v3.5c0,0.9,0.4,1.1,1,1.1
		c1.1,0,1.4-1,1.4-1.7v-2.9h0.9v5.2L164.5,347.6L164.5,347.6z"/>
	<path class="st0" d="M171,347.2c0,0.8,0,2.6-2.4,2.6c-0.6,0-1.8-0.2-2-1.6h0.9c0.2,0.8,1,0.8,1.2,0.8c1.5,0,1.5-1.2,1.5-1.8V347
		c-0.2,0.4-0.7,0.7-1.4,0.7c-1.8,0-2.3-1.7-2.3-2.9c0-1.5,0.8-2.6,2.2-2.6c0.9,0,1.3,0.6,1.6,0.9v-0.7h0.8v4.8L171,347.2z
		 M168.7,347c0.6,0,1.4-0.4,1.4-1.8c0-0.8-0.1-2.2-1.4-2.2c-1.4,0-1.4,1.3-1.4,2C167.3,346.1,167.8,347,168.7,347"/>
	<path class="st0" d="M223.6,343.1c0-2.3,1.7-2.5,2.4-2.5c1.2,0,2.2,0.8,2.2,2.1c0,1.3-0.8,1.8-1.9,2.3l-0.7,0.4
		c-1,0.5-1.2,1.1-1.2,1.3h3.8v0.8h-4.8c0.1-1.5,0.7-2.2,1.6-2.8l0.9-0.5c0.7-0.4,1.3-0.7,1.3-1.6c0-0.6-0.4-1.3-1.4-1.3
		c-1.3,0-1.4,1.2-1.4,1.7h-0.8L223.6,343.1z"/>
	<path class="st0" d="M232.9,345.9v1.7H232v-1.7h-3.1V345l3.2-4.5h0.7v4.6h1v0.8H232.9 M229.7,345.1h2.3V342L229.7,345.1"/>
	<path class="st0" d="M238.4,345.5l-0.8,2.1h-1l2.7-7.2h1.1l2.6,7.2h-1l-0.7-2.1H238.4 M240.9,344.7l-1.1-3.2l-1.1,3.2H240.9"/>
	<path class="st0" d="M247,347.6v-0.8c-0.4,0.6-0.8,0.9-1.7,0.9c-0.8,0-1.7-0.4-1.7-1.6v-3.8h0.9v3.5c0,0.9,0.4,1.1,1,1.1
		c1.1,0,1.4-1,1.4-1.7v-2.9h0.9v5.2L247,347.6L247,347.6z"/>
	<path class="st0" d="M253.4,347.2c0,0.8,0,2.6-2.4,2.6c-0.6,0-1.8-0.2-2-1.6h0.9c0.2,0.8,1,0.8,1.2,0.8c1.5,0,1.5-1.2,1.5-1.8V347
		c-0.2,0.4-0.7,0.7-1.4,0.7c-1.8,0-2.3-1.7-2.3-2.9c0-1.5,0.8-2.6,2.2-2.6c0.9,0,1.3,0.6,1.6,0.9v-0.7h0.8v4.8L253.4,347.2z
		 M251.2,347c0.6,0,1.4-0.4,1.4-1.8c0-0.8-0.1-2.2-1.4-2.2c-1.4,0-1.4,1.3-1.4,2C249.8,346.1,250.2,347,251.2,347"/>
	<path class="st0" d="M304.1,343.6c0.2,0,0.3,0,0.5,0c0.7,0,1.3-0.3,1.3-1.1c0-0.4-0.2-1.1-1.3-1.1c-1.2,0-1.3,1-1.4,1.5h-0.9
		c0-1,0.4-2.3,2.3-2.3c1.4,0,2.2,0.8,2.2,1.8c0,0.9-0.5,1.3-0.9,1.4c0.7,0.2,1.2,0.7,1.2,1.6c0,1.1-0.7,2.3-2.5,2.3
		c-0.5,0-1-0.1-1.3-0.3c-0.8-0.4-1-1.2-1-2h0.9c0,0.7,0.2,1.5,1.5,1.5c0.9,0,1.5-0.5,1.5-1.4c0-1.2-1-1.3-1.6-1.3
		c-0.1,0-0.3,0-0.4,0v-0.6H304.1z"/>
	<path class="st0" d="M311,347.6h-0.9v-5h-1.6v-0.7c1.1-0.1,1.6-0.2,1.9-1.3h0.7v7H311z"/>
	<path class="st0" d="M317.2,345.5l-0.8,2.1h-1l2.7-7.2h1.1l2.6,7.2h-1.1l-0.7-2.1H317.2 M319.7,344.7l-1.1-3.2l-1.2,3.2H319.7"/>
	<path class="st0" d="M325.7,347.6v-0.8c-0.4,0.6-0.8,0.9-1.7,0.9c-0.8,0-1.7-0.4-1.7-1.6v-3.8h0.9v3.5c0,0.9,0.4,1.1,1,1.1
		c1.1,0,1.4-1,1.4-1.7v-2.9h0.9v5.2L325.7,347.6L325.7,347.6z"/>
	<path class="st0" d="M332.2,347.2c0,0.8,0,2.6-2.4,2.6c-0.6,0-1.8-0.2-2-1.6h0.9c0.2,0.8,1,0.8,1.2,0.8c1.5,0,1.5-1.2,1.5-1.8V347
		c-0.2,0.4-0.7,0.7-1.4,0.7c-1.8,0-2.3-1.7-2.3-2.9c0-1.5,0.8-2.6,2.2-2.6c0.9,0,1.3,0.6,1.6,0.9v-0.7h0.8v4.8L332.2,347.2z
		 M329.9,347c0.6,0,1.4-0.4,1.4-1.8c0-0.8-0.1-2.2-1.4-2.2c-1.4,0-1.4,1.3-1.4,2C328.5,346.1,329,347,329.9,347"/>
	<path class="st0" d="M383.3,347.8c-2,0-2.4-2.1-2.4-3.6s0.4-3.6,2.4-3.6s2.4,2.1,2.4,3.6S385.3,347.8,383.3,347.8 M383.3,341.4
		c-1,0-1.5,1.1-1.5,2.8s0.5,2.8,1.5,2.8s1.5-1.1,1.5-2.8S384.3,341.4,383.3,341.4"/>
	<path class="st0" d="M386.4,340.7h4.9v0.8c-0.7,0.7-2.4,3-2.9,6.1h-1c0.2-1.9,1.5-4.4,2.9-6h-3.9V340.7"/>
	<path class="st0" d="M399.5,342.5c0-1.1-1-1.5-1.8-1.5c-0.6,0-1.6,0.2-1.6,1.3c0,0.6,0.4,0.8,0.8,0.9l2,0.5
		c0.9,0.2,1.6,0.8,1.6,1.9c0,1.7-1.6,2.2-2.8,2.2c-1.3,0-1.8-0.4-2.2-0.7c-0.6-0.5-0.7-1.1-0.7-1.8h0.9c0,1.3,1.1,1.7,2,1.7
		c0.7,0,1.9-0.2,1.9-1.2c0-0.8-0.4-1-1.5-1.3l-1.5-0.3c-0.5-0.1-1.5-0.4-1.5-1.7c0-1.1,0.7-2.2,2.5-2.2c2.5,0,2.8,1.5,2.8,2.3
		L399.5,342.5L399.5,342.5z"/>
	<path class="st0" d="M406.1,346c0,0.2-0.3,1-0.9,1.4c-0.2,0.2-0.6,0.4-1.4,0.4c-1.5,0-2.3-1.1-2.3-2.6c0-1.6,0.8-2.9,2.5-2.9
		c1.5,0,2.2,1.2,2.2,3h-3.8c0,1.1,0.5,1.7,1.5,1.7c0.8,0,1.3-0.6,1.3-1H406.1 M405.3,344.6c0-0.8-0.4-1.6-1.5-1.6
		c-0.8,0-1.4,0.7-1.4,1.6H405.3"/>
	<path class="st0" d="M407.2,342.4h0.8v0.7c0.2-0.3,0.6-0.9,1.6-0.9c1.4,0,2.2,1.1,2.2,2.6c0,1.2-0.5,2.9-2.3,2.9
		c-0.7,0-1.2-0.3-1.4-0.7v2.6h-0.9L407.2,342.4 M409.5,347c1,0,1.4-0.9,1.4-2c0-0.7-0.1-2-1.4-2s-1.4,1.4-1.4,2.2
		C408,346.6,408.9,347,409.5,347"/>
	<path class="st0" d="M466.5,347.6h-0.9v-5H464v-0.7c1.1-0.1,1.6-0.2,1.9-1.3h0.7v7H466.5z"/>
	<path class="st0" d="M472.3,345.9v1.7h-0.9v-1.7h-3.1V345l3.2-4.5h0.7v4.6h1v0.8H472.3 M469.1,345.1h2.3V342L469.1,345.1"/>
	<path class="st0" d="M481.5,342.5c-0.1-1.1-1-1.5-1.8-1.5c-0.6,0-1.6,0.2-1.6,1.3c0,0.6,0.4,0.8,0.8,0.9l2,0.5
		c0.9,0.2,1.6,0.8,1.6,1.9c0,1.7-1.6,2.2-2.8,2.2c-1.3,0-1.8-0.4-2.2-0.7c-0.6-0.5-0.7-1.1-0.7-1.8h0.9c0,1.3,1.1,1.7,2,1.7
		c0.7,0,1.9-0.2,1.9-1.2c0-0.8-0.4-1-1.5-1.3l-1.5-0.3c-0.5-0.1-1.5-0.4-1.5-1.7c0-1.1,0.7-2.2,2.5-2.2c2.5,0,2.8,1.5,2.8,2.3
		L481.5,342.5L481.5,342.5z"/>
	<path class="st0" d="M488.2,346c0,0.2-0.3,1-0.9,1.4c-0.2,0.2-0.6,0.4-1.4,0.4c-1.5,0-2.3-1.1-2.3-2.6c0-1.6,0.8-2.9,2.5-2.9
		c1.5,0,2.2,1.2,2.2,3h-3.8c0,1.1,0.5,1.7,1.5,1.7c0.8,0,1.3-0.6,1.3-1H488.2 M487.3,344.6c0-0.8-0.4-1.6-1.5-1.6
		c-0.8,0-1.4,0.7-1.4,1.6H487.3"/>
	<path class="st0" d="M489.2,342.4h0.8v0.7c0.2-0.3,0.6-0.9,1.6-0.9c1.4,0,2.2,1.1,2.2,2.6c0,1.2-0.5,2.9-2.3,2.9
		c-0.7,0-1.2-0.3-1.4-0.7v2.6h-0.9L489.2,342.4 M491.5,347c1,0,1.4-0.9,1.4-2c0-0.7-0.1-2-1.4-2s-1.4,1.4-1.4,2.2
		C490.1,346.6,490.9,347,491.5,347"/>
	<path class="st0" d="M245.9,375h-1v-7.2h1V375"/>
	<path class="st0" d="M250.4,371.3c0-0.3-0.1-0.9-1.2-0.9c-0.3,0-1,0.1-1,0.7c0,0.4,0.3,0.5,0.9,0.7l0.9,0.2
		c1.1,0.3,1.5,0.7,1.5,1.4c0,1.1-0.9,1.7-2.1,1.7c-2.1,0-2.2-1.2-2.2-1.8h0.8c0,0.4,0.1,1.1,1.4,1.1c0.6,0,1.2-0.2,1.2-0.8
		c0-0.4-0.3-0.6-1-0.8l-1-0.2c-0.7-0.2-1.2-0.5-1.2-1.3c0-1.1,0.9-1.7,2-1.7c1.9,0,2,1.4,2,1.6L250.4,371.3L250.4,371.3z"/>
	<path class="st0" d="M255.4,371.3c0-0.3-0.1-0.9-1.2-0.9c-0.3,0-1,0.1-1,0.7c0,0.4,0.3,0.5,0.9,0.7l0.9,0.2
		c1.1,0.3,1.5,0.7,1.5,1.4c0,1.1-0.9,1.7-2.1,1.7c-2.1,0-2.2-1.2-2.2-1.8h0.8c0,0.4,0.1,1.1,1.4,1.1c0.6,0,1.2-0.2,1.2-0.8
		c0-0.4-0.3-0.6-1-0.8l-1-0.2c-0.7-0.2-1.2-0.5-1.2-1.3c0-1.1,0.9-1.7,2-1.7c1.9,0,2,1.4,2,1.6L255.4,371.3L255.4,371.3z"/>
	<path class="st0" d="M260.9,375v-0.8c-0.4,0.6-0.8,0.9-1.7,0.9c-0.8,0-1.7-0.4-1.7-1.6v-3.8h0.9v3.5c0,0.9,0.4,1.1,1,1.1
		c1.1,0,1.4-1,1.4-1.7v-2.9h0.9v5.2L260.9,375L260.9,375z"/>
	<path class="st0" d="M267.5,373.4c0,0.2-0.3,1-0.9,1.4c-0.2,0.2-0.6,0.4-1.4,0.4c-1.5,0-2.3-1.1-2.3-2.6c0-1.6,0.8-2.9,2.5-2.9
		c1.5,0,2.2,1.2,2.2,3h-3.8c0,1.1,0.5,1.7,1.5,1.7c0.8,0,1.3-0.6,1.3-1H267.5 M266.6,372c0-0.8-0.4-1.6-1.5-1.6
		c-0.8,0-1.4,0.7-1.4,1.6H266.6"/>
	<path class="st0" d="M272.4,370.5v3.4c0,0.4,0.3,0.4,0.5,0.4h0.3v0.7c-0.3,0-0.6,0.1-0.7,0.1c-0.9,0-1.1-0.5-1.1-1.1v-3.4h-0.7
		v-0.7h0.7v-1.5h0.9v1.5h0.8v0.7h-0.7L272.4,370.5z"/>
	<path class="st0" d="M275.1,375h-0.9v-5.2h0.8v0.9c0.3-0.6,0.8-1,1.5-1c0.1,0,0.2,0,0.2,0v0.9h-0.3c-0.8,0-1.3,0.6-1.3,1.4
		L275.1,375"/>
	<path class="st0" d="M277.3,371.4c0-1.2,0.9-1.7,2.2-1.7c0.4,0,1.9,0.1,1.9,1.5v3c0,0.2,0.1,0.3,0.3,0.3c0.1,0,0.2,0,0.3,0v0.6
		c-0.1,0-0.3,0.1-0.5,0.1c-0.8,0-0.9-0.4-0.9-0.8c-0.3,0.4-0.9,0.8-1.9,0.8s-1.6-0.6-1.6-1.5c0-0.4,0.1-1.5,1.6-1.6l1.4-0.2
		c0.2,0,0.5-0.1,0.5-0.6s-0.4-0.8-1.2-0.8c-1,0-1.1,0.6-1.2,1L277.3,371.4L277.3,371.4z M280.6,372.4c-0.1,0.1-0.4,0.2-1.4,0.3
		c-0.4,0.1-1.1,0.2-1.1,0.8c0,0.6,0.3,0.9,0.9,0.9c0.8,0,1.6-0.5,1.6-1.2V372.4"/>
	<path class="st0" d="M287.2,375h-0.9v-3.2c0-0.9-0.3-1.4-1.1-1.4c-0.5,0-1.4,0.3-1.4,1.7v2.8h-0.9v-5.2h0.8v0.7
		c0.2-0.3,0.7-0.9,1.6-0.9c0.8,0,1.8,0.3,1.8,1.8v3.7H287.2z"/>
	<path class="st0" d="M291.5,371.3c0-0.3-0.1-0.9-1.2-0.9c-0.3,0-1,0.1-1,0.7c0,0.4,0.3,0.5,0.9,0.7l0.9,0.2
		c1.1,0.3,1.5,0.7,1.5,1.4c0,1.1-0.9,1.7-2.1,1.7c-2.1,0-2.2-1.2-2.2-1.8h0.8c0,0.4,0.2,1.1,1.4,1.1c0.6,0,1.2-0.2,1.2-0.8
		c0-0.4-0.3-0.6-1-0.8l-1-0.2c-0.7-0.2-1.2-0.5-1.2-1.3c0-1.1,0.9-1.7,2-1.7c1.9,0,2,1.4,2,1.6L291.5,371.3L291.5,371.3z"/>
	<path class="st0" d="M293.5,368.9v-1h0.9v1H293.5 M294.4,375h-0.9v-5.2h0.9V375"/>
	<path class="st0" d="M296.8,370.5v3.4c0,0.4,0.3,0.4,0.5,0.4h0.3v0.7c-0.3,0-0.6,0.1-0.7,0.1c-0.9,0-1.1-0.5-1.1-1.1v-3.4h-0.7
		v-0.7h0.7v-1.5h0.9v1.5h0.8v0.7h-0.7L296.8,370.5z"/>
	<path class="st0" d="M298.5,368.9v-1h0.9v1H298.5 M299.4,375h-0.9v-5.2h0.9V375"/>
	<path class="st0" d="M302.8,369.7c1.7,0,2.4,1.4,2.4,2.8c0,1.3-0.8,2.8-2.4,2.8c-1.7,0-2.4-1.4-2.4-2.8S301.2,369.7,302.8,369.7
		 M302.8,374.4c1.3,0,1.5-1.3,1.5-2s-0.3-2-1.5-2c-1.3,0-1.5,1.3-1.5,2S301.6,374.4,302.8,374.4"/>
	<path class="st0" d="M310.5,375h-0.9v-3.2c0-0.9-0.3-1.4-1.1-1.4c-0.5,0-1.4,0.3-1.4,1.7v2.8h-0.9v-5.2h0.8v0.7
		c0.2-0.3,0.7-0.9,1.6-0.9c0.8,0,1.8,0.3,1.8,1.8v3.7H310.5z"/>
	<path class="st0" d="M318.9,375h-0.8v-0.7c-0.4,0.7-1,0.9-1.5,0.9c-1.8,0-2.3-1.7-2.3-2.9c0-1.5,0.8-2.6,2.2-2.6
		c0.9,0,1.3,0.6,1.6,0.9v-0.1v-2.6h0.9v7.1L318.9,375z M316.6,374.4c0.6,0,1.4-0.4,1.4-1.8c0-0.8-0.1-2.2-1.4-2.2
		c-1.4,0-1.4,1.3-1.4,2C315.2,373.6,315.7,374.4,316.6,374.4"/>
	<path class="st0" d="M320.1,371.4c0-1.2,0.9-1.7,2.2-1.7c0.4,0,1.9,0.1,1.9,1.5v3c0,0.2,0.1,0.3,0.3,0.3c0.1,0,0.2,0,0.3,0v0.6
		c-0.1,0-0.3,0.1-0.5,0.1c-0.8,0-0.9-0.4-0.9-0.8c-0.3,0.4-0.9,0.8-1.9,0.8s-1.6-0.6-1.6-1.5c0-0.4,0.1-1.5,1.6-1.6l1.4-0.2
		c0.2,0,0.5-0.1,0.5-0.6s-0.4-0.8-1.2-0.8c-1,0-1.1,0.6-1.2,1L320.1,371.4L320.1,371.4z M323.4,372.4c-0.1,0.1-0.4,0.2-1.4,0.3
		c-0.4,0.1-1.1,0.2-1.1,0.8c0,0.6,0.3,0.9,0.9,0.9c0.8,0,1.6-0.5,1.6-1.2V372.4"/>
	<path class="st0" d="M326.8,370.5v3.4c0,0.4,0.3,0.4,0.5,0.4h0.3v0.7c-0.3,0-0.6,0.1-0.7,0.1c-0.9,0-1.1-0.5-1.1-1.1v-3.4h-0.7
		v-0.7h0.7v-1.5h0.9v1.5h0.8v0.7h-0.7L326.8,370.5z"/>
	<path class="st0" d="M332.7,373.4c0,0.2-0.3,1-0.9,1.4c-0.2,0.2-0.6,0.4-1.4,0.4c-1.5,0-2.3-1.1-2.3-2.6c0-1.6,0.8-2.9,2.5-2.9
		c1.5,0,2.2,1.2,2.2,3H329c0,1.1,0.5,1.7,1.5,1.7c0.8,0,1.3-0.6,1.3-1H332.7 M331.9,372c0-0.8-0.4-1.6-1.5-1.6
		c-0.8,0-1.4,0.7-1.4,1.6H331.9"/>
	<path class="st0" d="M11.5,225.8v5.3H4.4v-5.2h0.9v4.3h2.2v-3.9h0.9v3.9h2.4v-4.3h0.7L11.5,225.8z"/>
	<path class="st0" d="M11.5,223.7v0.9H4.4v-0.9H11.5"/>
	<path class="st0" d="M7.9,222.4c-1.2,0-1.7-0.9-1.7-2.2c0-0.4,0.1-1.9,1.5-1.9h3c0.2,0,0.3-0.1,0.3-0.3c0-0.1,0-0.2,0-0.3h0.6
		c0,0.1,0.1,0.3,0.1,0.5c0,0.8-0.4,0.9-0.8,0.9c0.4,0.3,0.8,0.9,0.8,1.9s-0.6,1.6-1.5,1.6c-0.4,0-1.5-0.1-1.6-1.6l-0.2-1.4
		c0-0.2-0.1-0.5-0.6-0.5S7,219.5,7,220.3c0,1,0.6,1.1,1,1.2L7.9,222.4L7.9,222.4z M8.9,219.2c0.1,0.1,0.2,0.4,0.3,1.4
		c0.1,0.4,0.2,1.1,0.8,1.1s0.9-0.3,0.9-0.9c0-0.8-0.5-1.6-1.2-1.6H8.9"/>
	<path class="st0" d="M6.3,216.9v-0.8H7c-0.3-0.2-0.9-0.6-0.9-1.6c0-1.4,1.1-2.2,2.6-2.2c1.2,0,2.9,0.5,2.9,2.3
		c0,0.7-0.3,1.2-0.7,1.4h2.6v0.9L6.3,216.9 M10.9,214.7c0-1-0.9-1.4-2-1.4c-0.7,0-2,0.1-2,1.4c0,1.3,1.4,1.4,2.2,1.4
		C10.5,216.1,10.9,215.2,10.9,214.7"/>
	<path class="st0" d="M7.8,208.3c-0.3,0-0.9,0.1-0.9,1.2c0,0.3,0.1,1,0.7,1c0.4,0,0.5-0.3,0.7-0.9l0.2-0.9c0.3-1.1,0.7-1.5,1.4-1.5
		c1.1,0,1.7,0.9,1.7,2.1c0,2.1-1.2,2.2-1.8,2.2v-0.8c0.4,0,1.1-0.1,1.1-1.4c0-0.6-0.2-1.2-0.8-1.2c-0.4,0-0.6,0.3-0.7,1l-0.2,1
		c-0.2,0.7-0.5,1.2-1.3,1.2c-1.1,0-1.7-0.9-1.7-2c0-1.9,1.4-2,1.6-2L7.8,208.3"/>
	<path class="st0" d="M9.9,201.9c0.2,0,1,0.3,1.4,0.9c0.2,0.2,0.4,0.6,0.4,1.4c0,1.5-1.1,2.3-2.6,2.3c-1.6,0-2.9-0.8-2.9-2.5
		c0-1.5,1.2-2.2,3-2.2v3.8c1.1,0,1.7-0.5,1.7-1.5c0-0.8-0.6-1.3-1-1.3L9.9,201.9 M8.5,202.7c-0.8,0-1.6,0.4-1.6,1.5
		c0,0.8,0.7,1.4,1.6,1.4V202.7"/>
	<path class="st0" d="M11.5,196.4v0.8h-0.7c0.7,0.4,0.9,1,0.9,1.5c0,1.8-1.7,2.3-2.9,2.3c-1.5,0-2.6-0.8-2.6-2.2
		c0-0.9,0.6-1.3,0.9-1.6H7H4.4v-0.9L11.5,196.4L11.5,196.4z M10.9,198.7c0-0.6-0.4-1.4-1.8-1.4c-0.8,0-2.2,0.1-2.2,1.4
		c0,1.4,1.3,1.4,2,1.4C10,200.1,10.9,199.7,10.9,198.7"/>
	<path class="st0" d="M7,191.3h3.4c0.4,0,0.4-0.4,0.4-0.5v-0.3h0.7c0,0.3,0.1,0.6,0.1,0.7c0,0.9-0.5,1.1-1.1,1.1H7v0.7H6.3v-0.7H4.8
		v-0.9h1.5v-0.8H7L7,191.3"/>
	<path class="st0" d="M5.4,189.6h-1v-0.9h1V189.6 M11.5,188.7v0.9H6.3v-0.9H11.5"/>
	<path class="st0" d="M6.3,187.4v-0.8H7c-0.3-0.2-0.9-0.6-0.9-1.6s0.6-1.2,0.8-1.4c-0.5-0.4-0.8-0.8-0.8-1.6c0-0.6,0.3-1.6,1.8-1.6
		h3.6v0.9H8.1c-0.7,0-1.2,0.2-1.2,1c0,0.7,0.7,1.2,1.4,1.2h3.2v0.9H7.9c-0.4,0-1,0.2-1,0.8c0,0.5,0.3,1.4,1.7,1.4h2.8v0.9L6.3,187.4
		L6.3,187.4z"/>
	<path class="st0" d="M9.9,174.6c0.2,0,1,0.3,1.4,0.9c0.2,0.2,0.4,0.6,0.4,1.4c0,1.5-1.1,2.3-2.6,2.3c-1.6,0-2.9-0.8-2.9-2.5
		c0-1.5,1.2-2.2,3-2.2v3.8c1.1,0,1.7-0.5,1.7-1.5c0-0.8-0.6-1.3-1-1.3L9.9,174.6 M8.5,175.5c-0.8,0-1.6,0.4-1.6,1.5
		c0,0.8,0.7,1.4,1.6,1.4V175.5"/>
	<path class="st0" d="M4.2,168.4c1.6,0.8,2.6,1.4,5,1.4c1.6,0,2.9-0.6,4.4-1.4v0.6c-1.6,1-2.8,1.7-4.7,1.7c-1.8,0-3.2-0.6-4.7-1.7
		L4.2,168.4"/>
	<path class="st0" d="M11.5,163.1v0.8h-0.7c0.7,0.4,0.9,1,0.9,1.5c0,1.8-1.7,2.3-2.9,2.3c-1.5,0-2.6-0.8-2.6-2.2
		c0-0.9,0.6-1.3,0.9-1.6H7H4.4V163L11.5,163.1L11.5,163.1z M10.9,165.4c0-0.6-0.4-1.4-1.8-1.4c-0.8,0-2.2,0.1-2.2,1.4
		c0,1.4,1.3,1.4,2,1.4C10,166.8,10.9,166.3,10.9,165.4"/>
	<path class="st0" d="M7.9,161.9c-1.2,0-1.7-0.9-1.7-2.2c0-0.4,0.1-1.9,1.5-1.9h3c0.2,0,0.3-0.1,0.3-0.3c0-0.1,0-0.2,0-0.3h0.6
		c0,0.1,0.1,0.3,0.1,0.5c0,0.8-0.4,0.9-0.8,0.9c0.4,0.3,0.8,0.9,0.8,1.9s-0.6,1.6-1.5,1.6c-0.4,0-1.5-0.1-1.6-1.6l-0.2-1.4
		c0-0.2-0.1-0.5-0.6-0.5S7,159,7,159.8c0,1,0.6,1.1,1,1.2L7.9,161.9L7.9,161.9z M8.9,158.7c0.1,0.1,0.2,0.4,0.3,1.4
		c0.1,0.4,0.2,1.1,0.8,1.1s0.9-0.3,0.9-0.9c0-0.8-0.5-1.6-1.2-1.6H8.9"/>
	<path class="st0" d="M6.3,153.3v-1c1.7,0.6,3.4,1.2,5.1,1.9c2.1,0.8,2.2,0.9,2.2,2c0,0.1,0,0.2-0.1,0.4h-0.8c0-0.1,0.1-0.3,0.1-0.5
		c0-0.5-0.1-0.5-1.2-0.9l-5.4,1.9v-1l4.3-1.4L6.3,153.3"/>
	<path class="st0" d="M7.8,148.8c-0.3,0-0.9,0.1-0.9,1.2c0,0.3,0.1,1,0.7,1c0.4,0,0.5-0.3,0.7-0.9l0.2-0.9c0.3-1.1,0.7-1.5,1.4-1.5
		c1.1,0,1.7,0.9,1.7,2.1c0,2.1-1.2,2.2-1.8,2.2v-0.8c0.4,0,1.1-0.1,1.1-1.4c0-0.6-0.2-1.2-0.8-1.2c-0.4,0-0.6,0.3-0.7,1l-0.2,1
		c-0.2,0.7-0.5,1.2-1.3,1.2c-1.1,0-1.7-0.9-1.7-2c0-1.9,1.4-2,1.6-2L7.8,148.8"/>
	<path class="st0" d="M13.6,147.1c-1.6-0.8-2.6-1.4-5-1.4c-1.6,0-2.9,0.6-4.4,1.4v-0.6c1.6-1,2.8-1.7,4.7-1.7c1.8,0,3.2,0.6,4.7,1.7
		L13.6,147.1"/>
</g>
<path class="st1" d="M37.8,155.8h60l10.5-3.5l95.5,1.8l11-9.8h33.5l3.5,4.7l18,1.1v4.2h4.8l2-4.2h7l1.7,4.2l12.8-2.8v-2.7l30.7-2.8
	v-8.5h9l36.3-2.2v4l33.7,0.5l5.5-4.5h8.5v3.7h14l3.5,2.8l1.5,3.8l1.8-5.3l1.5,0.7l10.2,4.6v5.9l38.8,0.8l8.5-13.8l59.7-1.5
	l0.5,195.8h-524L37.8,155.8z"/>
<g>
	<g>
		<path class="st2" d="M38.1,187.4h523.2"/>
		<path class="st3" d="M38.1,202.4h60l6.7-6.3l76.7,3.2h23l12.4-3.2h30.9v3.2h23.3v4.5l25.5-3.9l0.6-3.8l31.3-2v-9.7l46.2-4.6v4.6
			l56.1-4.6l23.3,16.6l34.4,3.7l13.3-15.7l59.5-0.3"/>
	</g>
	<path class="st4" d="M37.8,58.3v274.1h523.5"/>
</g>
<g>
	<circle class="st5" cx="105.1" cy="109.8" r="5.1"/>
	<circle class="st5" cx="268.4" cy="171.3" r="5.1"/>
	<circle class="st5" cx="182.1" cy="221.2" r="5.1"/>
	<circle class="st5" cx="117.3" cy="269.5" r="5.1"/>
	<circle class="st5" cx="197.7" cy="188.7" r="5.1"/>
	<circle class="st5" cx="93.6" cy="206.7" r="5.1"/>
	<circle class="st5" cx="341.4" cy="257.8" r="5.1"/>
	<circle class="st5" cx="274.7" cy="293.1" r="5.1"/>
	<circle class="st5" cx="447.8" cy="259.3" r="5.1"/>
	<circle class="st5" cx="422.1" cy="214.8" r="5.1"/>
	<circle class="st5" cx="448.8" cy="324.8" r="5.1"/>
	<circle class="st5" cx="488.8" cy="317" r="5.1"/>
	<circle class="st5" cx="499.2" cy="261" r="5.1"/>
	<circle class="st5" cx="496.5" cy="159" r="5.1"/>
	<circle class="st5" cx="332.5" cy="211" r="6.3"/>
	<circle class="st5" cx="374" cy="124.7" r="7.3"/>
	<circle class="st5" cx="338.1" cy="226.7" r="6.3"/>
	<circle class="st5" cx="331.3" cy="241.8" r="6.3"/>
	<circle class="st5" cx="281.1" cy="229.1" r="6.3"/>
	<circle class="st5" cx="271.1" cy="246.4" r="6.3"/>
	<circle class="st5" cx="277.4" cy="259.3" r="6.3"/>
	<circle class="st5" cx="274.7" cy="312.9" r="6.3"/>
	<circle class="st5" cx="382.2" cy="267.3" r="6.3"/>
	<circle class="st5" cx="422.1" cy="237.9" r="6.3"/>
	<circle class="st5" cx="517.8" cy="237.9" r="6.3"/>
	<circle class="st5" cx="434.8" cy="136.5" r="5.1"/>
	<circle class="st5" cx="436.6" cy="318" r="5.1"/>
	<circle class="st5" cx="118.8" cy="310.6" r="5.1"/>
	<circle class="st5" cx="298.1" cy="239.1" r="5.1"/>
</g>
<g>
	<circle class="st6" cx="247.2" cy="122.6" r="3.6"/>
	<circle class="st6" cx="202.8" cy="146.4" r="3.6"/>
	<circle class="st6" cx="165.9" cy="159" r="3.6"/>
	<circle class="st6" cx="182.1" cy="177.4" r="3.6"/>
	<circle class="st6" cx="217.2" cy="194" r="3.6"/>
	<circle class="st6" cx="123.9" cy="224.8" r="3.6"/>
	<circle class="st6" cx="123.9" cy="239.1" r="3.6"/>
	<circle class="st6" cx="90" cy="264.4" r="3.6"/>
	<circle class="st6" cx="105.1" cy="297.6" r="3.6"/>
	<circle class="st6" cx="102.2" cy="319.7" r="3.6"/>
	<circle class="st6" cx="254.2" cy="184.6" r="3.6"/>
	<circle class="st6" cx="166.7" cy="199" r="3.6"/>
	<circle class="st6" cx="247" cy="239.1" r="3.6"/>
	<circle class="st6" cx="215.7" cy="260.2" r="3.6"/>
	<circle class="st6" cx="326.1" cy="270.1" r="3.6"/>
	<circle class="st6" cx="361.6" cy="224.8" r="3.6"/>
	<circle class="st6" cx="406.9" cy="265.4" r="3.6"/>
	<circle class="st6" cx="420.6" cy="290.4" r="3.6"/>
	<circle class="st6" cx="413.4" cy="307.1" r="3.6"/>
	<circle class="st6" cx="445.3" cy="279.3" r="3.6"/>
	<circle class="st6" cx="444.7" cy="217.3" r="3.6"/>
	<circle class="st6" cx="329.7" cy="297.6" r="3.6"/>
	<circle class="st6" cx="338.8" cy="319.7" r="3.6"/>
	<circle class="st6" cx="422.1" cy="185.8" r="3.6"/>
	<circle class="st6" cx="492.4" cy="206.1" r="3.6"/>
	<circle class="st6" cx="519.9" cy="192.3" r="3.6"/>
	<circle class="st6" cx="512.7" cy="290.4" r="3.6"/>
	<circle class="st6" cx="407.8" cy="149.4" r="3.6"/>
	<circle class="st6" cx="374.9" cy="98" r="3.6"/>
	<circle class="st6" cx="341.2" cy="105.2" r="3.6"/>
	<circle class="st6" cx="285" cy="83.3" r="3.6"/>
	<circle class="st6" cx="202.8" cy="72.8" r="3.6"/>
</g>
<g>
	<path class="st7" d="M31.7,19.7c-2.4,0-2.9-2.6-2.9-4.3c0-1.8,0.5-4.3,2.9-4.3s2.9,2.6,2.9,4.3S34.1,19.7,31.7,19.7 M31.7,12
		c-1.2,0-1.8,1.3-1.8,3.4s0.6,3.4,1.8,3.4s1.8-1.3,1.8-3.4S32.9,12,31.7,12"/>
	<path class="st7" d="M40.1,13.2c-0.1-0.7-0.5-1.3-1.5-1.3c-1.7,0-2,2.2-2,3.1c0.3-0.5,0.9-1,2-1c1,0,2.6,0.7,2.6,2.7
		c0,0.9-0.2,1.5-0.8,2.1c-0.4,0.5-0.9,0.8-2.1,0.8c-0.6,0-1.6-0.3-2.2-1.2c-0.5-0.8-0.6-1.8-0.6-2.9c0-1.8,0.6-4.5,3.1-4.5
		c1,0,2.4,0.5,2.5,2.2H40.1 M38.5,18.7c1,0,1.7-0.8,1.7-1.9c0-0.7-0.4-1.8-1.7-1.8c-1.2,0-1.7,0.8-1.7,1.8
		C36.7,17.7,37.3,18.7,38.5,18.7"/>
	<path class="st7" d="M46.7,16.9l-0.9,2.5h-1.2l3.2-8.6h1.3l3.1,8.6H51l-0.9-2.5H46.7 M49.8,15.9l-1.3-3.8l-1.4,3.8H49.8"/>
	<path class="st7" d="M57,19.4v-0.9c-0.4,0.7-1,1.1-2,1.1c-0.9,0-2-0.4-2-1.9v-4.5h1v4.2c0,1,0.5,1.4,1.2,1.4c1.3,0,1.7-1.2,1.7-2.1
		v-3.5H58v6.3h-1V19.4z"/>
	<path class="st7" d="M64.8,18.9c0,0.9,0,3.2-2.9,3.2c-0.7,0-2.2-0.2-2.4-1.9h1.1c0.2,1,1.2,1,1.4,1c1.8,0,1.8-1.5,1.8-2.2v-0.3
		c-0.3,0.4-0.8,0.8-1.7,0.8c-2.1,0-2.8-2-2.8-3.5c0-1.8,0.9-3.1,2.6-3.1c1.1,0,1.6,0.7,1.9,1.1v-0.9h1V18.9 M62,18.7
		c0.7,0,1.7-0.4,1.7-2.1c0-1-0.2-2.7-1.7-2.7c-1.6,0-1.7,1.5-1.7,2.4C60.3,17.7,60.9,18.7,62,18.7"/>
	<path class="st7" d="M70.9,14v4.1c0,0.5,0.4,0.5,0.6,0.5h0.4v0.8c-0.4,0-0.7,0.1-0.8,0.1c-1,0-1.3-0.6-1.3-1.3V14H69v-0.9h0.9v-1.8
		H71v1.8h1V14L70.9,14"/>
	<path class="st7" d="M75.2,13c2,0,2.9,1.7,2.9,3.3s-0.9,3.3-2.9,3.3s-2.9-1.7-2.9-3.3S73.2,13,75.2,13 M75.2,18.7
		c1.5,0,1.8-1.6,1.8-2.4c0-0.8-0.3-2.4-1.8-2.4s-1.8,1.6-1.8,2.4S73.7,18.7,75.2,18.7"/>
	<path class="st7" d="M86.2,19.4h-1.1v-6h-2v-0.8c1.4-0.1,1.9-0.2,2.3-1.6h0.8L86.2,19.4"/>
	<path class="st7" d="M93.1,17.4v2.1H92v-2.1h-3.7v-1l3.9-5.3h0.9v5.5h1.2v0.9L93.1,17.4L93.1,17.4z M89.3,16.5H92v-3.8L89.3,16.5"
		/>
	<path class="st7" d="M104.2,13.3c-0.1-1.3-1.2-1.8-2.1-1.8c-0.7,0-2,0.2-2,1.5c0,0.7,0.5,1,1,1.1l2.5,0.6c1.1,0.3,2,0.9,2,2.3
		c0,2-1.9,2.6-3.4,2.6c-1.6,0-2.2-0.5-2.6-0.8c-0.7-0.7-0.9-1.4-0.9-2.2h1.1c0,1.6,1.3,2,2.4,2c0.8,0,2.3-0.2,2.3-1.5
		c0-0.9-0.4-1.2-1.8-1.5l-1.8-0.4c-0.6-0.1-1.8-0.5-1.8-2c0-1.3,0.9-2.7,3-2.7c3,0,3.3,1.8,3.4,2.7L104.2,13.3L104.2,13.3z"/>
	<path class="st7" d="M112.2,17.5c0,0.3-0.3,1.2-1.1,1.7c-0.3,0.2-0.7,0.4-1.7,0.4c-1.8,0-2.8-1.3-2.8-3.1c0-1.9,0.9-3.5,3-3.5
		c1.8,0,2.7,1.4,2.7,3.7h-4.6c0,1.3,0.6,2.1,1.8,2.1c1,0,1.6-0.8,1.6-1.2h1.1V17.5z M111.2,15.8c-0.1-1-0.5-1.9-1.8-1.9
		c-1,0-1.7,0.9-1.7,1.9H111.2"/>
	<path class="st7" d="M113.5,13.2h1v0.9c0.3-0.4,0.7-1.1,1.9-1.1c1.7,0,2.6,1.4,2.6,3.1c0,1.5-0.6,3.5-2.8,3.5
		c-0.8,0-1.4-0.4-1.7-0.8v3.1h-1.1L113.5,13.2L113.5,13.2z M116.2,18.7c1.2,0,1.7-1,1.7-2.4c0-0.8-0.1-2.4-1.7-2.4
		c-1.5,0-1.7,1.6-1.7,2.7C114.5,18.3,115.5,18.7,116.2,18.7"/>
	<path class="st7" d="M121.5,14v4.1c0,0.5,0.4,0.5,0.6,0.5h0.4v0.8c-0.4,0-0.7,0.1-0.8,0.1c-1,0-1.3-0.6-1.3-1.3V14h-0.9v-0.9h0.9
		v-1.8h1.1v1.8h1V14L121.5,14"/>
	<path class="st7" d="M32,40.4h-1v-5h-1.6v-0.7c1.1-0.1,1.6-0.2,1.9-1.3H32V40.4"/>
	<path class="st7" d="M36.5,40.4h-0.9l-1.5-5.2h1l1,4.1l1-4.1h1l1,4.1l1.1-4.1H41l-1.5,5.2h-0.9l-1.1-4L36.5,40.4"/>
	<path class="st7" d="M47.5,40.4h-0.9v-5H45v-0.7c1.1-0.1,1.6-0.2,1.9-1.3h0.7v7H47.5z"/>
	<path class="st7" d="M51.3,36.4c0.2,0,0.3,0,0.5,0c0.7,0,1.3-0.3,1.3-1.1c0-0.4-0.2-1.1-1.3-1.1c-1.2,0-1.3,1-1.4,1.5h-0.9
		c0-1,0.4-2.3,2.3-2.3c1.4,0,2.2,0.8,2.2,1.8c0,0.9-0.5,1.3-0.9,1.4c0.7,0.2,1.2,0.7,1.2,1.6c0,1.1-0.7,2.3-2.5,2.3
		c-0.5,0-1-0.1-1.3-0.3c-0.8-0.4-1-1.2-1-2h0.9c0,0.7,0.2,1.5,1.5,1.5c0.9,0,1.5-0.5,1.5-1.4c0-1.2-1-1.3-1.6-1.3
		c-0.1,0-0.3,0-0.4,0L51.3,36.4L51.3,36.4z"/>
	<path class="st7" d="M59.6,40.4h-0.9V37c0-0.7-0.2-1.2-1-1.2c-0.7,0-1.5,0.4-1.5,1.7v2.8h-0.9v-7.2h0.9v2.6
		c0.2-0.3,0.7-0.8,1.5-0.8s1.8,0.3,1.8,1.8v3.7L59.6,40.4z"/>
	<path class="st7" d="M66.6,40.4h-0.9v-5H64v-0.7c1.1-0.1,1.6-0.2,1.9-1.3h0.7L66.6,40.4"/>
	<path class="st7" d="M68.5,33.5h4.9v0.8c-0.7,0.7-2.4,3-2.9,6.1h-1c0.2-1.9,1.5-4.4,2.9-6h-3.9V33.5"/>
	<path class="st7" d="M74.4,35.1h0.8v0.7c0.2-0.3,0.6-0.9,1.6-0.9s1.2,0.6,1.4,0.8c0.4-0.5,0.8-0.8,1.6-0.8c0.6,0,1.6,0.3,1.6,1.8
		v3.6h-0.9V37c0-0.7-0.2-1.2-1-1.2c-0.7,0-1.2,0.7-1.2,1.4v3.2h-0.9v-3.6c0-0.4-0.2-1-0.8-1c-0.5,0-1.4,0.3-1.4,1.7v2.8h-0.9v-5.2
		H74.4z"/>
</g>
<g>
	<path class="st8" d="M85.4,36.7c0-1.2,0.9-1.7,2.2-1.7c0.4,0,1.9,0.1,1.9,1.5v3c0,0.2,0.1,0.3,0.3,0.3c0.1,0,0.2,0,0.3,0v0.6
		c-0.1,0-0.3,0.1-0.5,0.1c-0.8,0-0.9-0.4-0.9-0.8c-0.3,0.4-0.9,0.8-1.9,0.8s-1.6-0.6-1.6-1.5c0-0.4,0.1-1.5,1.6-1.6l1.4-0.2
		c0.2,0,0.5-0.1,0.5-0.6s-0.4-0.8-1.2-0.8c-1,0-1.1,0.6-1.2,1L85.4,36.7L85.4,36.7z M88.7,37.7c-0.1,0.1-0.4,0.2-1.4,0.3
		c-0.4,0.1-1.1,0.2-1.1,0.8s0.3,0.9,0.9,0.9c0.8,0,1.6-0.5,1.6-1.2V37.7"/>
	<path class="st8" d="M94.1,35.1h1l-2,5.2h-0.9l-1.9-5.2h1l1.4,4.3L94.1,35.1"/>
	<path class="st8" d="M100,38.7c0,0.2-0.3,1-0.9,1.4c-0.2,0.2-0.6,0.4-1.4,0.4c-1.5,0-2.3-1.1-2.3-2.6c0-1.6,0.8-2.9,2.5-2.9
		c1.5,0,2.2,1.2,2.2,3h-3.8c0,1.1,0.5,1.7,1.5,1.7c0.8,0,1.3-0.6,1.3-1L100,38.7 M99.2,37.3c-0.1-0.8-0.4-1.6-1.5-1.6
		c-0.8,0-1.4,0.7-1.4,1.6H99.2"/>
	<path class="st8" d="M102.1,40.4h-0.9v-5.2h0.8V36c0.3-0.6,0.8-1,1.5-1c0.1,0,0.2,0,0.2,0v0.9h-0.3c-0.8,0-1.3,0.6-1.3,1.4
		L102.1,40.4"/>
	<path class="st8" d="M104.3,36.7c0-1.2,0.9-1.7,2.2-1.7c0.4,0,1.9,0.1,1.9,1.5v3c0,0.2,0.1,0.3,0.3,0.3c0.1,0,0.2,0,0.3,0v0.6
		c-0.1,0-0.3,0.1-0.5,0.1c-0.8,0-0.9-0.4-0.9-0.8c-0.3,0.4-0.9,0.8-1.9,0.8s-1.6-0.6-1.6-1.5c0-0.4,0.1-1.5,1.6-1.6l1.4-0.2
		c0.2,0,0.5-0.1,0.5-0.6s-0.4-0.8-1.2-0.8c-1,0-1.1,0.6-1.2,1L104.3,36.7L104.3,36.7z M107.6,37.7c-0.1,0.1-0.4,0.2-1.4,0.3
		c-0.4,0.1-1.1,0.2-1.1,0.8s0.3,0.9,0.9,0.9c0.8,0,1.6-0.5,1.6-1.2V37.7"/>
	<path class="st8" d="M114.3,39.9c0,0.7,0,2.6-2.4,2.6c-0.6,0-1.8-0.2-2-1.6h0.9c0.2,0.8,1,0.8,1.2,0.8c1.5,0,1.5-1.2,1.5-1.8v-0.2
		c-0.2,0.4-0.7,0.7-1.4,0.7c-1.8,0-2.3-1.7-2.3-2.9c0-1.5,0.8-2.6,2.2-2.6c1,0,1.3,0.6,1.6,0.9v-0.7h0.8L114.3,39.9L114.3,39.9z
		 M112,39.7c0.6,0,1.4-0.4,1.4-1.8c0-0.8-0.1-2.2-1.4-2.2c-1.4,0-1.4,1.3-1.4,2C110.6,38.9,111,39.7,112,39.7"/>
	<path class="st8" d="M119.9,38.7c0,0.2-0.3,1-0.9,1.4c-0.2,0.2-0.6,0.4-1.4,0.4c-1.5,0-2.3-1.1-2.3-2.6c0-1.6,0.8-2.9,2.5-2.9
		c1.5,0,2.2,1.2,2.2,3h-3.8c0,1.1,0.5,1.7,1.5,1.7c0.8,0,1.3-0.6,1.3-1L119.9,38.7 M119.1,37.3c-0.1-0.8-0.4-1.6-1.5-1.6
		c-0.8,0-1.4,0.7-1.4,1.6H119.1"/>
</g>
<g>
	<path class="st7" d="M136.5,36.4c0.2,0,0.3,0,0.5,0c0.7,0,1.3-0.3,1.3-1.1c0-0.4-0.2-1.1-1.3-1.1c-1.2,0-1.3,1-1.4,1.5h-0.9
		c0-1,0.4-2.3,2.3-2.3c1.4,0,2.2,0.8,2.2,1.8c0,0.9-0.5,1.3-0.9,1.4c0.7,0.2,1.2,0.7,1.2,1.6c0,1.1-0.7,2.3-2.5,2.3
		c-0.5,0-1-0.1-1.3-0.3c-0.8-0.4-1-1.2-1-2h0.9c0,0.7,0.2,1.5,1.5,1.5c0.9,0,1.5-0.5,1.5-1.4c0-1.2-1-1.3-1.6-1.3
		c-0.1,0-0.3,0-0.4,0v-0.6L136.5,36.4z"/>
	<path class="st7" d="M144.9,40.4H144v-0.7c-0.4,0.7-1,0.9-1.5,0.9c-1.8,0-2.3-1.7-2.3-2.9c0-1.5,0.8-2.6,2.2-2.6
		c1,0,1.3,0.6,1.6,0.9v-0.1v-2.6h0.9V40.4 M142.5,39.7c0.6,0,1.4-0.4,1.4-1.8c0-0.8-0.1-2.2-1.4-2.2c-1.4,0-1.4,1.3-1.4,2
		C141.1,38.9,141.6,39.7,142.5,39.7"/>
</g>
<g>
	<path class="st8" d="M148.9,35.1h0.8v0.7c0.2-0.3,0.6-0.9,1.6-0.9s1.2,0.6,1.4,0.8c0.4-0.5,0.8-0.8,1.6-0.8c0.6,0,1.6,0.3,1.6,1.8
		v3.6H155V37c0-0.7-0.2-1.2-1-1.2c-0.7,0-1.2,0.7-1.2,1.4v3.2h-0.9v-3.6c0-0.4-0.2-1-0.8-1c-0.5,0-1.4,0.3-1.4,1.7v2.8h-0.9
		L148.9,35.1L148.9,35.1z"/>
	<path class="st8" d="M161.6,38.7c0,0.2-0.3,1-0.9,1.4c-0.2,0.2-0.6,0.4-1.4,0.4c-1.5,0-2.3-1.1-2.3-2.6c0-1.6,0.8-2.9,2.5-2.9
		c1.5,0,2.2,1.2,2.2,3h-3.8c0,1.1,0.5,1.7,1.5,1.7c0.8,0,1.3-0.6,1.3-1L161.6,38.7 M160.8,37.3c-0.1-0.8-0.4-1.6-1.5-1.6
		c-0.8,0-1.4,0.7-1.4,1.6H160.8"/>
	<path class="st8" d="M167.1,40.4h-0.8v-0.7c-0.4,0.7-1,0.9-1.5,0.9c-1.8,0-2.3-1.7-2.3-2.9c0-1.5,0.8-2.6,2.2-2.6
		c1,0,1.3,0.6,1.6,0.9v-0.1v-2.6h0.9L167.1,40.4L167.1,40.4z M164.8,39.7c0.6,0,1.4-0.4,1.4-1.8c0-0.8-0.1-2.2-1.4-2.2
		c-1.4,0-1.4,1.3-1.4,2C163.4,38.9,163.8,39.7,164.8,39.7"/>
	<path class="st8" d="M168.3,34.2v-1h0.9v1H168.3 M169.2,40.4h-0.9v-5.2h0.9V40.4"/>
	<path class="st8" d="M170.5,36.7c0-1.2,0.9-1.7,2.2-1.7c0.4,0,1.9,0.1,1.9,1.5v3c0,0.2,0.1,0.3,0.3,0.3c0.1,0,0.2,0,0.3,0v0.6
		c-0.1,0-0.3,0.1-0.5,0.1c-0.8,0-0.9-0.4-0.9-0.8c-0.3,0.4-0.9,0.8-1.9,0.8s-1.6-0.6-1.6-1.5c0-0.4,0.1-1.5,1.6-1.6l1.4-0.2
		c0.2,0,0.5-0.1,0.5-0.6s-0.4-0.8-1.2-0.8c-1,0-1.1,0.6-1.2,1L170.5,36.7L170.5,36.7z M173.7,37.7c-0.1,0.1-0.4,0.2-1.4,0.3
		c-0.4,0.1-1.1,0.2-1.1,0.8s0.3,0.9,0.9,0.9c0.8,0,1.6-0.5,1.6-1.2V37.7"/>
	<path class="st8" d="M180.3,40.4h-0.9v-3.2c0-0.9-0.3-1.4-1.1-1.4c-0.5,0-1.4,0.3-1.4,1.7v2.8H176v-5.2h0.8v0.7
		c0.2-0.3,0.7-0.9,1.6-0.9c0.8,0,1.8,0.3,1.8,1.8L180.3,40.4L180.3,40.4z"/>
</g>
<g>
	<path class="st7" d="M200.3,40.2l-4.9-2.1v-0.7l4.9-2.1v0.8l-3.9,1.6l3.9,1.6V40.2"/>
	<path class="st7" d="M204.3,40.4h-0.9v-5h-1.6v-0.7c1.1-0.1,1.6-0.2,1.9-1.3h0.7L204.3,40.4L204.3,40.4z"/>
	<path class="st7" d="M206.9,35.1h0.8v0.7c0.2-0.3,0.6-0.9,1.6-0.9s1.2,0.6,1.4,0.8c0.4-0.5,0.8-0.8,1.6-0.8c0.6,0,1.6,0.3,1.6,1.8
		v3.6H213V37c0-0.7-0.2-1.2-1-1.2c-0.7,0-1.2,0.7-1.2,1.4v3.2H210v-3.6c0-0.4-0.2-1-0.8-1c-0.5,0-1.4,0.3-1.4,1.7v2.8h-0.9
		L206.9,35.1"/>
</g>
<g>
	<path class="st8" d="M218.1,35.1h0.8v0.7c0.2-0.3,0.6-0.9,1.6-0.9s1.2,0.6,1.4,0.8c0.4-0.5,0.8-0.8,1.6-0.8c0.6,0,1.6,0.3,1.6,1.8
		v3.6h-0.9V37c0-0.7-0.2-1.2-1-1.2c-0.7,0-1.2,0.7-1.2,1.4v3.2h-0.9v-3.6c0-0.4-0.2-1-0.8-1c-0.5,0-1.4,0.3-1.4,1.7v2.8H218
		L218.1,35.1L218.1,35.1z"/>
	<path class="st8" d="M226.4,34.2v-1h0.9v1H226.4 M227.3,40.4h-0.9v-5.2h0.9V40.4"/>
	<path class="st8" d="M232.9,40.4H232v-3.2c0-0.9-0.3-1.4-1.1-1.4c-0.5,0-1.4,0.3-1.4,1.7v2.8h-0.9v-5.2h0.8v0.7
		c0.2-0.3,0.7-0.9,1.6-0.9c0.8,0,1.8,0.3,1.8,1.8L232.9,40.4L232.9,40.4z"/>
	<path class="st8" d="M238,35.9v3.4c0,0.4,0.3,0.4,0.5,0.4h0.3v0.7c-0.3,0-0.6,0.1-0.7,0.1c-0.9,0-1.1-0.5-1.1-1.1V36h-0.7v-0.7h0.7
		v-1.5h0.9v1.5h0.8V36H238V35.9z"/>
	<path class="st8" d="M239.7,34.2v-1h0.9v1H239.7 M240.6,40.4h-0.9v-5.2h0.9V40.4"/>
	<path class="st8" d="M241.9,35.1h0.8v0.7c0.2-0.3,0.6-0.9,1.6-0.9s1.2,0.6,1.4,0.8c0.4-0.5,0.8-0.8,1.6-0.8c0.6,0,1.6,0.3,1.6,1.8
		v3.6H248V37c0-0.7-0.2-1.2-1-1.2c-0.7,0-1.2,0.7-1.2,1.4v3.2H245v-3.6c0-0.4-0.2-1-0.8-1c-0.5,0-1.4,0.3-1.4,1.7v2.8h-0.9
		L241.9,35.1"/>
	<path class="st8" d="M254.7,38.7c0,0.2-0.3,1-0.9,1.4c-0.2,0.2-0.6,0.4-1.4,0.4c-1.5,0-2.3-1.1-2.3-2.6c0-1.6,0.8-2.9,2.5-2.9
		c1.5,0,2.2,1.2,2.2,3H251c0,1.1,0.5,1.7,1.5,1.7c0.8,0,1.3-0.6,1.3-1L254.7,38.7 M253.9,37.3c-0.1-0.8-0.4-1.6-1.5-1.6
		c-0.8,0-1.4,0.7-1.4,1.6H253.9"/>
</g>
<g>
	<path class="st7" d="M272.7,40.4h-0.9v-5h-1.6v-0.7c1.1-0.1,1.6-0.2,1.9-1.3h0.7v7H272.7z"/>
	<path class="st7" d="M276.5,36.4c0.1,0,0.3,0,0.5,0c0.7,0,1.3-0.3,1.3-1.1c0-0.4-0.2-1.1-1.3-1.1c-1.2,0-1.3,1-1.4,1.5h-0.9
		c0-1,0.4-2.3,2.3-2.3c1.4,0,2.2,0.8,2.2,1.8c0,0.9-0.5,1.3-0.9,1.4c0.7,0.2,1.2,0.7,1.2,1.6c0,1.1-0.7,2.3-2.5,2.3
		c-0.5,0-1-0.1-1.3-0.3c-0.8-0.4-1-1.2-1-2h0.9c0,0.7,0.2,1.5,1.5,1.5c0.9,0,1.5-0.5,1.5-1.4c0-1.2-1-1.3-1.6-1.3
		c-0.1,0-0.3,0-0.4,0v-0.6L276.5,36.4z"/>
	<path class="st7" d="M282.4,40.4h-0.9l-1.5-5.2h1l1,4.1l1-4.1h1l1,4.1l1.1-4.1h0.9l-1.5,5.2h-0.9l-1.1-4L282.4,40.4"/>
	<path class="st7" d="M294,35.2c-0.1-0.6-0.5-1.1-1.2-1.1c-1.4,0-1.7,1.9-1.7,2.6c0.2-0.4,0.7-0.9,1.7-0.9c0.9,0,2.2,0.5,2.2,2.2
		c0,0.7-0.2,1.2-0.7,1.8c-0.4,0.4-0.8,0.7-1.8,0.7c-0.5,0-1.3-0.2-1.8-1c-0.4-0.7-0.5-1.5-0.5-2.4c0-1.5,0.5-3.8,2.6-3.8
		c0.8,0,2,0.4,2,1.9H294 M292.7,39.8c0.8,0,1.4-0.7,1.4-1.6c0-0.6-0.3-1.5-1.4-1.5c-1,0-1.4,0.7-1.4,1.5
		C291.2,38.9,291.7,39.8,292.7,39.8"/>
	<path class="st7" d="M300.4,40.4h-0.8v-0.7c-0.4,0.7-1,0.9-1.5,0.9c-1.8,0-2.3-1.7-2.3-2.9c0-1.5,0.8-2.6,2.2-2.6
		c1,0,1.3,0.6,1.6,0.9v-0.1v-2.6h0.9v7.1L300.4,40.4z M298,39.7c0.6,0,1.4-0.4,1.4-1.8c0-0.8-0.1-2.2-1.4-2.2c-1.4,0-1.4,1.3-1.4,2
		C296.6,38.9,297.1,39.7,298,39.7"/>
	<path class="st7" d="M304.1,35.9c0-2.3,1.7-2.5,2.4-2.5c1.2,0,2.2,0.8,2.2,2.1s-0.8,1.8-1.9,2.3l-0.7,0.4c-1,0.5-1.2,1.1-1.2,1.3
		h3.8v0.8H304c0-1.5,0.7-2.2,1.6-2.8l0.9-0.5c0.7-0.4,1.3-0.7,1.3-1.6c0-0.6-0.4-1.3-1.4-1.3c-1.3,0-1.4,1.2-1.4,1.7L304.1,35.9
		L304.1,35.9z"/>
	<path class="st7" d="M311.5,36.4c0.2,0,0.3,0,0.5,0c0.7,0,1.3-0.3,1.3-1.1c0-0.4-0.2-1.1-1.3-1.1c-1.2,0-1.3,1-1.4,1.5h-0.9
		c0-1,0.4-2.3,2.3-2.3c1.4,0,2.2,0.8,2.2,1.8c0,0.9-0.5,1.3-0.9,1.4c0.7,0.2,1.2,0.7,1.2,1.6c0,1.1-0.7,2.3-2.5,2.3
		c-0.5,0-1-0.1-1.3-0.3c-0.8-0.4-1-1.2-1-2h0.9c0,0.7,0.2,1.5,1.5,1.5c0.9,0,1.5-0.5,1.5-1.4c0-1.2-1-1.3-1.6-1.3
		c-0.1,0-0.3,0-0.4,0v-0.6L311.5,36.4z"/>
	<path class="st7" d="M319.7,40.4h-0.9V37c0-0.7-0.2-1.2-1-1.2c-0.7,0-1.5,0.4-1.5,1.7v2.8h-0.9v-7.2h0.9v2.6
		c0.2-0.3,0.7-0.8,1.5-0.8s1.8,0.3,1.8,1.8v3.7L319.7,40.4z"/>
</g>
<g>
	<path class="st8" d="M323.8,35.1h0.8v0.7c0.2-0.3,0.6-0.9,1.6-0.9s1.2,0.6,1.4,0.8c0.4-0.5,0.8-0.8,1.6-0.8c0.6,0,1.6,0.3,1.6,1.8
		v3.6H330V37c0-0.7-0.2-1.2-1-1.2c-0.7,0-1.2,0.7-1.2,1.4v3.2h-0.9v-3.6c0-0.4-0.2-1-0.8-1c-0.5,0-1.4,0.3-1.4,1.7v2.8h-0.9
		L323.8,35.1"/>
	<path class="st8" d="M332.1,36.7c0-1.2,0.9-1.7,2.2-1.7c0.4,0,1.9,0.1,1.9,1.5v3c0,0.2,0.1,0.3,0.3,0.3c0.1,0,0.2,0,0.3,0v0.6
		c-0.1,0-0.3,0.1-0.5,0.1c-0.8,0-0.9-0.4-0.9-0.8c-0.3,0.4-0.9,0.8-1.9,0.8s-1.6-0.6-1.6-1.5c0-0.4,0.1-1.5,1.6-1.6l1.4-0.2
		c0.2,0,0.5-0.1,0.5-0.6s-0.4-0.8-1.2-0.8c-1,0-1.1,0.6-1.2,1L332.1,36.7L332.1,36.7z M335.3,37.7c-0.1,0.1-0.4,0.2-1.4,0.3
		c-0.4,0.1-1.1,0.2-1.1,0.8s0.3,0.9,0.9,0.9c0.8,0,1.6-0.5,1.6-1.2V37.7"/>
	<path class="st8" d="M342,40.4h-1.1l-1.3-2l-1.3,2h-1.1l1.8-2.7l-1.7-2.5h1.1l1.2,1.8l1.2-1.8h1.1l-1.8,2.5L342,40.4"/>
	<path class="st8" d="M346.6,35.9v3.4c0,0.4,0.3,0.4,0.5,0.4h0.3v0.7c-0.3,0-0.6,0.1-0.7,0.1c-0.9,0-1.1-0.5-1.1-1.1V36H345v-0.7
		h0.7v-1.5h0.9v1.5h0.8V36h-0.8L346.6,35.9z"/>
	<path class="st8" d="M348.3,34.2v-1h0.9v1H348.3 M349.2,40.4h-0.9v-5.2h0.9V40.4"/>
	<path class="st8" d="M350.5,35.1h0.8v0.7c0.2-0.3,0.6-0.9,1.6-0.9s1.2,0.6,1.4,0.8c0.4-0.5,0.8-0.8,1.6-0.8c0.6,0,1.6,0.3,1.6,1.8
		v3.6h-0.9V37c0-0.7-0.2-1.2-1-1.2c-0.7,0-1.2,0.7-1.2,1.4v3.2h-0.9v-3.6c0-0.4-0.2-1-0.8-1c-0.5,0-1.4,0.3-1.4,1.7v2.8h-0.9
		L350.5,35.1L350.5,35.1z"/>
	<path class="st8" d="M363.2,38.7c0,0.2-0.3,1-0.9,1.4c-0.2,0.2-0.6,0.4-1.4,0.4c-1.5,0-2.3-1.1-2.3-2.6c0-1.6,0.8-2.9,2.5-2.9
		c1.5,0,2.2,1.2,2.2,3h-3.8c0,1.1,0.5,1.7,1.5,1.7c0.8,0,1.3-0.6,1.3-1L363.2,38.7 M362.4,37.3c-0.1-0.8-0.4-1.6-1.5-1.6
		c-0.8,0-1.4,0.7-1.4,1.6H362.4"/>
</g>
<g>
	<path class="st7" d="M378.1,35.9c0-2.3,1.7-2.5,2.4-2.5c1.2,0,2.2,0.8,2.2,2.1s-0.8,1.8-1.9,2.3l-0.7,0.4c-1,0.5-1.2,1.1-1.2,1.3
		h3.8v0.8h-4.8c0-1.5,0.7-2.2,1.6-2.8l0.9-0.5c0.7-0.4,1.3-0.7,1.3-1.6c0-0.6-0.4-1.3-1.4-1.3c-1.3,0-1.4,1.2-1.4,1.7L378.1,35.9
		L378.1,35.9z"/>
	<path class="st7" d="M387.4,38.6v1.7h-0.9v-1.7h-3.1v-0.9l3.2-4.5h0.7v4.6h1v0.8L387.4,38.6 M384.2,37.9h2.3v-3.2L384.2,37.9"/>
	<path class="st7" d="M391.5,40.5c-2,0-2.4-2.1-2.4-3.6s0.4-3.6,2.4-3.6s2.4,2.1,2.4,3.6S393.5,40.5,391.5,40.5 M391.5,34.1
		c-1,0-1.5,1.1-1.5,2.8c0,1.8,0.5,2.8,1.5,2.8s1.5-1.1,1.5-2.8S392.5,34.1,391.5,34.1"/>
</g>
<g>
	<path class="st8" d="M397.8,34.2v-1h0.9v1H397.8 M398.6,40.4h-0.9v-5.2h0.9V40.4"/>
	<path class="st8" d="M402.9,36.6c0-0.3-0.1-0.9-1.2-0.9c-0.3,0-1,0.1-1,0.7c0,0.4,0.3,0.5,1,0.7l0.9,0.2c1.1,0.3,1.5,0.7,1.5,1.4
		c0,1.1-0.9,1.7-2.1,1.7c-2.1,0-2.2-1.2-2.2-1.8h0.8c0,0.4,0.2,1.1,1.4,1.1c0.6,0,1.2-0.2,1.2-0.8c0-0.4-0.3-0.6-1-0.7l-1-0.2
		c-0.7-0.2-1.2-0.5-1.2-1.3c0-1.1,1-1.7,2-1.7c1.9,0,2,1.4,2,1.6H402.9"/>
	<path class="st8" d="M407.9,36.6c0-0.3-0.1-0.9-1.2-0.9c-0.3,0-1,0.1-1,0.7c0,0.4,0.3,0.5,1,0.7l0.9,0.2c1.1,0.3,1.5,0.7,1.5,1.4
		c0,1.1-0.9,1.7-2.1,1.7c-2.1,0-2.2-1.2-2.2-1.8h0.8c0,0.4,0.2,1.1,1.4,1.1c0.6,0,1.2-0.2,1.2-0.8c0-0.4-0.3-0.6-1-0.7l-1-0.2
		c-0.7-0.2-1.2-0.5-1.2-1.3c0-1.1,1-1.7,2-1.7c1.9,0,2,1.4,2,1.6H407.9"/>
	<path class="st8" d="M413.4,40.4v-0.8c-0.4,0.6-0.8,0.9-1.7,0.9c-0.8,0-1.7-0.4-1.7-1.6v-3.8h0.9v3.5c0,0.9,0.4,1.1,1,1.1
		c1.1,0,1.4-1,1.4-1.7v-2.9h0.9v5.2L413.4,40.4L413.4,40.4z"/>
	<path class="st8" d="M419.9,38.7c0,0.2-0.3,1-0.9,1.4c-0.2,0.2-0.6,0.4-1.4,0.4c-1.5,0-2.3-1.1-2.3-2.6c0-1.6,0.8-2.9,2.5-2.9
		c1.5,0,2.2,1.2,2.2,3h-3.8c0,1.1,0.5,1.7,1.5,1.7c0.8,0,1.3-0.6,1.3-1L419.9,38.7 M419.1,37.3c-0.1-0.8-0.4-1.6-1.5-1.6
		c-0.8,0-1.4,0.7-1.4,1.6H419.1"/>
	<path class="st8" d="M424,36.6c0-0.3-0.1-0.9-1.2-0.9c-0.3,0-1,0.1-1,0.7c0,0.4,0.3,0.5,1,0.7l0.9,0.2c1.1,0.3,1.5,0.7,1.5,1.4
		c0,1.1-0.9,1.7-2.1,1.7c-2.1,0-2.2-1.2-2.2-1.8h0.8c0,0.4,0.2,1.1,1.4,1.1c0.6,0,1.2-0.2,1.2-0.8c0-0.4-0.3-0.6-1-0.7l-1-0.2
		c-0.7-0.2-1.2-0.5-1.2-1.3c0-1.1,1-1.7,2-1.7c1.9,0,2,1.4,2,1.6H424"/>
</g>
<circle class="st6" cx="477.8" cy="14.4" r="3.6"/>
<g>
	<path class="st0" d="M488.7,17h-0.8v-5.7h0.8V17"/>
	<path class="st0" d="M492.3,14c0-0.3-0.1-0.7-1-0.7c-0.2,0-0.8,0.1-0.8,0.6c0,0.3,0.2,0.4,0.8,0.6l0.7,0.2c0.9,0.2,1.2,0.5,1.2,1.1
		c0,0.9-0.7,1.4-1.7,1.4c-1.7,0-1.8-1-1.8-1.5h0.7c0,0.3,0.1,0.9,1.1,0.9c0.5,0,1-0.2,1-0.7c0-0.3-0.2-0.4-0.8-0.6l-0.8-0.2
		c-0.6-0.1-1-0.4-1-1c0-0.9,0.8-1.3,1.6-1.3c1.5,0,1.6,1.1,1.6,1.3h-0.8L492.3,14z"/>
	<path class="st0" d="M496.3,14c0-0.3-0.1-0.7-1-0.7c-0.2,0-0.8,0.1-0.8,0.6c0,0.3,0.2,0.4,0.8,0.6l0.7,0.2c0.9,0.2,1.2,0.5,1.2,1.1
		c0,0.9-0.7,1.4-1.7,1.4c-1.7,0-1.8-1-1.8-1.5h0.7c0,0.3,0.1,0.9,1.1,0.9c0.5,0,1-0.2,1-0.7c0-0.3-0.2-0.4-0.8-0.6l-0.8-0.2
		c-0.6-0.1-1-0.4-1-1c0-0.9,0.8-1.3,1.6-1.3c1.5,0,1.6,1.1,1.6,1.3h-0.8L496.3,14z"/>
	<path class="st0" d="M500.7,17v-0.6c-0.3,0.5-0.7,0.7-1.3,0.7c-0.6,0-1.4-0.3-1.4-1.3v-3h0.7v2.8c0,0.7,0.4,0.9,0.8,0.9
		c0.9,0,1.2-0.8,1.2-1.4v-2.3h0.7V17H500.7"/>
	<path class="st0" d="M505.9,15.7c0,0.2-0.2,0.8-0.7,1.1c-0.2,0.1-0.5,0.3-1.1,0.3c-1.2,0-1.9-0.9-1.9-2.1c0-1.3,0.6-2.3,2-2.3
		c1.2,0,1.8,1,1.8,2.4h-3.1c0,0.9,0.4,1.4,1.2,1.4c0.7,0,1.1-0.5,1.1-0.8L505.9,15.7 M505.3,14.6c0-0.6-0.3-1.2-1.2-1.2
		c-0.6,0-1.2,0.6-1.2,1.2H505.3"/>
</g>
<circle class="st5" cx="477.8" cy="30.1" r="4.5"/>
<g>
	<path class="st0" d="M491.8,28.7c-0.2-1-1.1-1.2-1.6-1.2c-1,0-1.9,0.8-1.9,2.3c0,1.4,0.5,2.4,1.9,2.4c0.5,0,1.4-0.2,1.6-1.6h0.8
		c-0.3,2.2-2.1,2.3-2.5,2.3c-1.3,0-2.6-0.8-2.6-3.1c0-1.8,1-3,2.7-3c1.5,0,2.2,0.9,2.4,1.9H491.8"/>
	<path class="st0" d="M494.2,32.7h-0.7V27h0.7V32.7"/>
	<path class="st0" d="M498,32.7v-0.6c-0.3,0.5-0.7,0.7-1.3,0.7c-0.6,0-1.4-0.3-1.4-1.3v-3h0.7v2.8c0,0.7,0.4,0.9,0.8,0.9
		c0.9,0,1.2-0.8,1.2-1.4v-2.3h0.7v4.2L498,32.7"/>
	<path class="st0" d="M502.1,29.7c0-0.3-0.1-0.7-1-0.7c-0.2,0-0.8,0.1-0.8,0.6c0,0.3,0.2,0.4,0.8,0.6l0.7,0.2
		c0.9,0.2,1.2,0.5,1.2,1.1c0,0.9-0.7,1.4-1.7,1.4c-1.7,0-1.8-1-1.8-1.5h0.7c0,0.3,0.1,0.9,1.1,0.9c0.5,0,1-0.2,1-0.7
		c0-0.3-0.2-0.4-0.8-0.6l-0.8-0.2c-0.6-0.1-1-0.4-1-1c0-0.9,0.8-1.3,1.6-1.3c1.5,0,1.6,1.1,1.6,1.3h-0.8L502.1,29.7z"/>
	<path class="st0" d="M504.6,29.1v2.7c0,0.3,0.3,0.3,0.4,0.3h0.2v0.6c-0.3,0-0.5,0.1-0.5,0.1c-0.7,0-0.8-0.4-0.8-0.9v-2.8h-0.6v-0.6
		h0.6v-1.2h0.7v1.2h0.7v0.6H504.6"/>
	<path class="st0" d="M509.3,31.4c0,0.2-0.2,0.8-0.7,1.1c-0.2,0.1-0.5,0.3-1.1,0.3c-1.2,0-1.9-0.9-1.9-2.1c0-1.3,0.6-2.3,2-2.3
		c1.2,0,1.8,1,1.8,2.4h-3.1c0,0.9,0.4,1.4,1.2,1.4c0.7,0,1.1-0.5,1.1-0.8L509.3,31.4 M508.7,30.3c0-0.6-0.3-1.2-1.2-1.2
		c-0.6,0-1.2,0.6-1.2,1.2H508.7"/>
	<path class="st0" d="M511,32.7h-0.7v-4.2h0.7v0.7c0.3-0.5,0.6-0.8,1.2-0.8c0.1,0,0.1,0,0.2,0v0.7h-0.3c-0.7,0-1.1,0.5-1.1,1.1
		L511,32.7"/>
	<path class="st0" d="M516.8,28.4c1.3,0,1.9,1.1,1.9,2.2s-0.6,2.2-1.9,2.2s-1.9-1.1-1.9-2.2S515.5,28.4,516.8,28.4 M516.8,32.2
		c1,0,1.2-1,1.2-1.6s-0.2-1.6-1.2-1.6s-1.2,1-1.2,1.6S515.8,32.2,516.8,32.2"/>
	<path class="st0" d="M520.4,29.1v3.6h-0.7v-3.6h-0.6v-0.6h0.6v-0.7c0-0.6,0.4-0.9,1.1-0.9c0.1,0,0.2,0,0.3,0v0.6
		c-0.1,0-0.2,0-0.3,0c-0.3,0-0.4,0.2-0.4,0.5v0.5h0.7v0.6H520.4"/>
	<path class="st0" d="M524,27.7v-0.8h0.7v0.8H524 M524.7,32.7H524v-4.2h0.7V32.7"/>
	<path class="st0" d="M528.2,29.7c0-0.3-0.1-0.7-1-0.7c-0.2,0-0.8,0.1-0.8,0.6c0,0.3,0.2,0.4,0.8,0.6l0.7,0.2
		c0.9,0.2,1.2,0.5,1.2,1.1c0,0.9-0.7,1.4-1.7,1.4c-1.7,0-1.8-1-1.8-1.5h0.7c0,0.3,0.1,0.9,1.1,0.9c0.5,0,1-0.2,1-0.7
		c0-0.3-0.2-0.4-0.8-0.6l-0.8-0.2c-0.6-0.1-1-0.4-1-1c0-0.9,0.8-1.3,1.6-1.3c1.5,0,1.6,1.1,1.6,1.3h-0.8V29.7z"/>
	<path class="st0" d="M532.2,29.7c0-0.3-0.1-0.7-1-0.7c-0.2,0-0.8,0.1-0.8,0.6c0,0.3,0.2,0.4,0.8,0.6l0.7,0.2
		c0.9,0.2,1.2,0.5,1.2,1.1c0,0.9-0.7,1.4-1.7,1.4c-1.7,0-1.8-1-1.8-1.5h0.7c0,0.3,0.1,0.9,1.1,0.9c0.5,0,1-0.2,1-0.7
		c0-0.3-0.2-0.4-0.8-0.6l-0.8-0.2c-0.6-0.1-1-0.4-1-1c0-0.9,0.8-1.3,1.6-1.3c1.5,0,1.6,1.1,1.6,1.3h-0.8V29.7z"/>
	<path class="st0" d="M536.5,32.7v-0.6c-0.3,0.5-0.7,0.7-1.3,0.7s-1.4-0.3-1.4-1.3v-3h0.7v2.8c0,0.7,0.4,0.9,0.8,0.9
		c0.9,0,1.2-0.8,1.2-1.4v-2.3h0.7v4.2L536.5,32.7"/>
	<path class="st0" d="M541.8,31.4c0,0.2-0.2,0.8-0.7,1.1c-0.2,0.1-0.5,0.3-1.1,0.3c-1.2,0-1.9-0.9-1.9-2.1c0-1.3,0.6-2.3,2-2.3
		c1.2,0,1.8,1,1.8,2.4h-3.1c0,0.9,0.4,1.4,1.2,1.4c0.7,0,1.1-0.5,1.1-0.8L541.8,31.4 M541.1,30.3c0-0.6-0.3-1.2-1.2-1.2
		c-0.6,0-1.2,0.6-1.2,1.2H541.1"/>
	<path class="st0" d="M545.1,29.7c0-0.3-0.1-0.7-1-0.7c-0.2,0-0.8,0.1-0.8,0.6c0,0.3,0.2,0.4,0.8,0.6l0.7,0.2
		c0.9,0.2,1.2,0.5,1.2,1.1c0,0.9-0.7,1.4-1.7,1.4c-1.7,0-1.8-1-1.8-1.5h0.7c0,0.3,0.1,0.9,1.1,0.9c0.5,0,1-0.2,1-0.7
		c0-0.3-0.2-0.4-0.8-0.6l-0.8-0.2c-0.6-0.1-1-0.4-1-1c0-0.9,0.8-1.3,1.6-1.3c1.5,0,1.6,1.1,1.6,1.3h-0.8V29.7z"/>
	<path class="st0" d="M488.7,46.8l-0.6,1.7h-0.8l2.2-5.7h0.9l2.1,5.7h-0.8l-0.6-1.7H488.7 M490.7,46.1l-0.8-2.5l-0.9,2.5H490.7"/>
	<path class="st0" d="M495.4,44.3h0.8l-1.6,4.2h-0.8l-1.5-4.2h0.8l1.1,3.4L495.4,44.3"/>
	<path class="st0" d="M500.1,47.2c0,0.2-0.2,0.8-0.7,1.1c-0.2,0.1-0.5,0.3-1.1,0.3c-1.2,0-1.9-0.9-1.9-2.1c0-1.3,0.6-2.3,2-2.3
		c1.2,0,1.8,1,1.8,2.4h-3.1c0,0.9,0.4,1.4,1.2,1.4c0.7,0,1.1-0.5,1.1-0.8L500.1,47.2 M499.4,46.1c0-0.6-0.3-1.2-1.2-1.2
		c-0.6,0-1.2,0.6-1.2,1.2H499.4"/>
	<path class="st0" d="M501.8,48.5h-0.7v-4.2h0.7V45c0.3-0.5,0.6-0.8,1.2-0.8c0.1,0,0.1,0,0.2,0v0.7h-0.3c-0.7,0-1.1,0.5-1.1,1.1
		L501.8,48.5"/>
	<path class="st0" d="M503.5,45.6c0-1,0.7-1.4,1.7-1.4c0.3,0,1.6,0.1,1.6,1.2v2.4c0,0.2,0.1,0.2,0.2,0.2s0.2,0,0.2,0v0.5
		c-0.1,0-0.2,0.1-0.4,0.1c-0.6,0-0.7-0.3-0.7-0.6c-0.3,0.3-0.7,0.7-1.5,0.7s-1.3-0.5-1.3-1.2c0-0.4,0.1-1.2,1.3-1.3l1.2-0.1
		c0.2,0,0.4-0.1,0.4-0.5s-0.3-0.7-1-0.7c-0.8,0-0.9,0.5-1,0.8h-0.7L503.5,45.6z M506.1,46.4c-0.1,0.1-0.3,0.2-1.2,0.3
		c-0.3,0-0.9,0.2-0.9,0.7s0.2,0.7,0.8,0.7c0.7,0,1.3-0.4,1.3-1L506.1,46.4"/>
	<path class="st0" d="M511.5,48.1c0,0.6,0,2.1-1.9,2.1c-0.5,0-1.5-0.1-1.6-1.2h0.7c0.1,0.7,0.8,0.7,0.9,0.7c1.2,0,1.2-1,1.2-1.5V48
		c-0.2,0.3-0.6,0.6-1.1,0.6c-1.4,0-1.8-1.3-1.8-2.3c0-1.2,0.6-2.1,1.7-2.1c0.8,0,1.1,0.5,1.2,0.7v-0.6h0.7L511.5,48.1 M509.7,48
		c0.4,0,1.1-0.3,1.1-1.4c0-0.7-0.1-1.8-1.1-1.8c-1.1,0-1.1,1-1.1,1.6C508.5,47.3,508.9,48,509.7,48"/>
	<path class="st0" d="M516,47.2c0,0.2-0.2,0.8-0.7,1.1c-0.2,0.1-0.5,0.3-1.1,0.3c-1.2,0-1.9-0.9-1.9-2.1c0-1.3,0.6-2.3,2-2.3
		c1.2,0,1.8,1,1.8,2.4H513c0,0.9,0.4,1.4,1.2,1.4c0.7,0,1.1-0.5,1.1-0.8L516,47.2 M515.3,46.1c0-0.6-0.3-1.2-1.2-1.2
		c-0.6,0-1.2,0.6-1.2,1.2H515.3"/>
</g>
<path class="st9" d="M474.2,49.8l8-8"/>
<g>
	<path class="st0" d="M488.7,64h-0.8v-5.7h2.7c0.9,0,1.9,0.3,1.9,1.5c0,0.8-0.4,1.2-0.8,1.4c0.3,0.1,0.7,0.3,0.7,1.1v1
		c0,0.3,0,0.4,0.3,0.6V64h-1c-0.1-0.4-0.1-1.2-0.1-1.4c0-0.5-0.1-1-1-1h-1.9L488.7,64 M488.7,60.9h1.8c0.6,0,1.2-0.1,1.2-1
		s-0.6-1-1-1h-1.9v2H488.7z"/>
	<path class="st0" d="M495,59.7c1.3,0,1.9,1.1,1.9,2.2c0,1.1-0.6,2.2-1.9,2.2s-1.9-1.1-1.9-2.2C493.1,60.9,493.7,59.7,495,59.7
		 M495,63.5c1,0,1.2-1,1.2-1.6s-0.2-1.6-1.2-1.6s-1.2,1-1.2,1.6S494,63.5,495,63.5"/>
	<path class="st0" d="M498.5,64h-0.7v-5.7h0.7V64"/>
	<path class="st0" d="M500.3,64h-0.7v-5.7h0.7V64"/>
	<path class="st0" d="M501.4,59.1v-0.8h0.7v0.8H501.4 M502.1,64h-0.7v-4.2h0.7V64"/>
	<path class="st0" d="M506.5,64h-0.7v-2.6c0-0.7-0.2-1.1-0.9-1.1c-0.4,0-1.1,0.3-1.1,1.4V64h-0.7v-4.2h0.7v0.6
		c0.2-0.2,0.5-0.7,1.3-0.7c0.6,0,1.5,0.3,1.5,1.5L506.5,64L506.5,64z"/>
	<path class="st0" d="M511,63.7c0,0.6,0,2.1-1.9,2.1c-0.5,0-1.5-0.1-1.6-1.2h0.7c0.1,0.7,0.8,0.7,0.9,0.7c1.2,0,1.2-1,1.2-1.5v-0.2
		c-0.2,0.3-0.6,0.6-1.1,0.6c-1.4,0-1.8-1.3-1.8-2.3c0-1.2,0.6-2.1,1.7-2.1c0.8,0,1.1,0.5,1.2,0.7v-0.6h0.7L511,63.7 M509.2,63.6
		c0.4,0,1.1-0.3,1.1-1.4c0-0.7-0.1-1.8-1.1-1.8c-1.1,0-1.1,1-1.1,1.6C508.1,62.9,508.4,63.6,509.2,63.6"/>
	<path class="st0" d="M514.2,61.1c0-1,0.7-1.4,1.7-1.4c0.3,0,1.6,0.1,1.6,1.2v2.4c0,0.2,0.1,0.2,0.2,0.2c0.1,0,0.2,0,0.2,0V64
		c-0.1,0-0.2,0.1-0.4,0.1c-0.6,0-0.7-0.3-0.7-0.6c-0.3,0.3-0.7,0.7-1.5,0.7S514,63.7,514,63c0-0.4,0.1-1.2,1.3-1.3l1.2-0.1
		c0.2,0,0.4-0.1,0.4-0.5s-0.3-0.7-1-0.7c-0.8,0-0.9,0.5-1,0.8L514.2,61.1L514.2,61.1z M516.8,61.9c-0.1,0.1-0.3,0.2-1.2,0.3
		c-0.3,0-0.9,0.2-0.9,0.7s0.2,0.7,0.8,0.7c0.7,0,1.3-0.4,1.3-1L516.8,61.9"/>
	<path class="st0" d="M521.2,59.9h0.8l-1.6,4.2h-0.8l-1.5-4.2h0.8l1.1,3.4L521.2,59.9"/>
	<path class="st0" d="M525.9,62.7c0,0.2-0.2,0.8-0.7,1.1c-0.2,0.1-0.5,0.3-1.1,0.3c-1.2,0-1.9-0.9-1.9-2.1c0-1.3,0.6-2.3,2-2.3
		c1.2,0,1.8,1,1.8,2.4h-3.1c0,0.9,0.4,1.4,1.2,1.4c0.7,0,1.1-0.5,1.1-0.8L525.9,62.7 M525.2,61.6c0-0.6-0.3-1.2-1.2-1.2
		c-0.6,0-1.2,0.6-1.2,1.2H525.2"/>
	<path class="st0" d="M527.6,64h-0.7v-4.2h0.7v0.7c0.3-0.5,0.6-0.8,1.2-0.8c0.1,0,0.1,0,0.2,0v0.7h-0.3c-0.7,0-1.1,0.5-1.1,1.1
		L527.6,64"/>
	<path class="st0" d="M529.3,61.1c0-1,0.7-1.4,1.7-1.4c0.3,0,1.6,0.1,1.6,1.2v2.4c0,0.2,0.1,0.2,0.2,0.2c0.1,0,0.2,0,0.2,0V64
		c-0.1,0-0.2,0.1-0.4,0.1c-0.6,0-0.7-0.3-0.7-0.6c-0.3,0.3-0.7,0.7-1.5,0.7s-1.3-0.5-1.3-1.2c0-0.4,0.1-1.2,1.3-1.3l1.2-0.1
		c0.2,0,0.4-0.1,0.4-0.5s-0.3-0.7-1-0.7c-0.8,0-0.9,0.5-1,0.8L529.3,61.1L529.3,61.1z M531.9,61.9c-0.1,0.1-0.3,0.2-1.2,0.3
		c-0.3,0-0.9,0.2-0.9,0.7s0.2,0.7,0.8,0.7c0.7,0,1.3-0.4,1.3-1L531.9,61.9"/>
	<path class="st0" d="M537.3,63.7c0,0.6,0,2.1-1.9,2.1c-0.5,0-1.5-0.1-1.6-1.2h0.7c0.1,0.7,0.8,0.7,0.9,0.7c1.2,0,1.2-1,1.2-1.5
		v-0.2c-0.2,0.3-0.6,0.6-1.1,0.6c-1.4,0-1.8-1.3-1.8-2.3c0-1.2,0.6-2.1,1.7-2.1c0.8,0,1.1,0.5,1.2,0.7v-0.6h0.7L537.3,63.7
		 M535.5,63.6c0.4,0,1.1-0.3,1.1-1.4c0-0.7-0.1-1.8-1.1-1.8c-1.1,0-1.1,1-1.1,1.6C534.3,62.9,534.7,63.6,535.5,63.6"/>
	<path class="st0" d="M541.8,62.7c0,0.2-0.2,0.8-0.7,1.1c-0.2,0.1-0.5,0.3-1.1,0.3c-1.2,0-1.9-0.9-1.9-2.1c0-1.3,0.6-2.3,2-2.3
		c1.2,0,1.8,1,1.8,2.4h-3.1c0,0.9,0.4,1.4,1.2,1.4c0.7,0,1.1-0.5,1.1-0.8L541.8,62.7 M541.1,61.6c0-0.6-0.3-1.2-1.2-1.2
		c-0.6,0-1.2,0.6-1.2,1.2H541.1"/>
</g>
<path class="st10" d="M474.2,65.4l8-8"/>
<g>
	<path class="st0" d="M491.3,75.8c0-0.9-0.8-1.2-1.4-1.2c-0.5,0-1.3,0.1-1.3,1c0,0.5,0.3,0.6,0.7,0.7l1.6,0.4
		c0.7,0.2,1.3,0.6,1.3,1.5c0,1.4-1.3,1.7-2.2,1.7c-1.1,0-1.5-0.3-1.7-0.6c-0.5-0.4-0.6-0.9-0.6-1.5h0.7c0,1,0.8,1.3,1.6,1.3
		c0.6,0,1.5-0.1,1.5-1c0-0.6-0.3-0.8-1.2-1l-1.2-0.3c-0.4-0.1-1.2-0.4-1.2-1.4c0-0.9,0.6-1.8,2-1.8c2,0,2.2,1.2,2.2,1.8h-0.8V75.8z"
		/>
	<path class="st0" d="M493.9,76.3V79c0,0.3,0.3,0.3,0.4,0.3h0.2v0.6c-0.3,0-0.5,0.1-0.5,0.1c-0.7,0-0.8-0.4-0.8-0.9v-2.8h-0.6v-0.6
		h0.6v-1.2h0.7v1.2h0.7v0.6L493.9,76.3"/>
	<path class="st0" d="M495.2,77c0-1,0.7-1.4,1.7-1.4c0.3,0,1.6,0.1,1.6,1.2v2.4c0,0.2,0.1,0.2,0.2,0.2s0.2,0,0.2,0v0.5
		c-0.1,0-0.2,0.1-0.4,0.1c-0.6,0-0.7-0.3-0.7-0.6c-0.3,0.3-0.7,0.7-1.5,0.7s-1.3-0.5-1.3-1.2c0-0.4,0.1-1.2,1.3-1.3l1.2-0.1
		c0.2,0,0.4-0.1,0.4-0.5s-0.3-0.7-1-0.7c-0.8,0-0.9,0.5-1,0.8L495.2,77L495.2,77z M497.7,77.8c-0.1,0.1-0.3,0.2-1.2,0.3
		c-0.3,0-0.9,0.2-0.9,0.7s0.2,0.7,0.8,0.7c0.7,0,1.3-0.4,1.3-1L497.7,77.8"/>
	<path class="st0" d="M503.1,79.9h-0.7v-2.6c0-0.7-0.2-1.1-0.9-1.1c-0.4,0-1.1,0.3-1.1,1.4v2.3h-0.7v-4.2h0.7v0.6
		c0.2-0.2,0.5-0.7,1.3-0.7c0.6,0,1.5,0.3,1.5,1.5L503.1,79.9L503.1,79.9z"/>
	<path class="st0" d="M507.6,79.9h-0.7v-0.6c-0.3,0.6-0.8,0.7-1.2,0.7c-1.4,0-1.8-1.3-1.8-2.3c0-1.2,0.6-2.1,1.7-2.1
		c0.8,0,1.1,0.5,1.2,0.7v-0.1v-2.1h0.7L507.6,79.9L507.6,79.9z M505.7,79.4c0.4,0,1.1-0.3,1.1-1.4c0-0.7-0.1-1.8-1.1-1.8
		c-1.1,0-1.1,1-1.1,1.6C504.6,78.7,504.9,79.4,505.7,79.4"/>
	<path class="st0" d="M508.5,77c0-1,0.7-1.4,1.7-1.4c0.3,0,1.6,0.1,1.6,1.2v2.4c0,0.2,0.1,0.2,0.2,0.2s0.2,0,0.2,0v0.5
		c-0.1,0-0.2,0.1-0.4,0.1c-0.6,0-0.7-0.3-0.7-0.6c-0.3,0.3-0.7,0.7-1.5,0.7s-1.3-0.5-1.3-1.2c0-0.4,0.1-1.2,1.3-1.3l1.2-0.1
		c0.2,0,0.4-0.1,0.4-0.5s-0.3-0.7-1-0.7c-0.8,0-0.9,0.5-1,0.8L508.5,77L508.5,77z M511.1,77.8c-0.1,0.1-0.3,0.2-1.2,0.3
		c-0.3,0-0.9,0.2-0.9,0.7s0.2,0.7,0.8,0.7c0.7,0,1.3-0.4,1.3-1L511.1,77.8"/>
	<path class="st0" d="M513.8,79.9h-0.7v-4.2h0.7v0.7c0.3-0.5,0.6-0.8,1.2-0.8c0.1,0,0.1,0,0.2,0v0.7h-0.3c-0.7,0-1.1,0.5-1.1,1.1
		L513.8,79.9"/>
	<path class="st0" d="M519,79.9h-0.7v-0.6c-0.3,0.6-0.8,0.7-1.2,0.7c-1.4,0-1.8-1.3-1.8-2.3c0-1.2,0.6-2.1,1.7-2.1
		c0.8,0,1.1,0.5,1.2,0.7v-0.1v-2.1h0.7L519,79.9L519,79.9z M517.1,79.4c0.4,0,1.1-0.3,1.1-1.4c0-0.7-0.1-1.8-1.1-1.8
		c-1.1,0-1.1,1-1.1,1.6C516,78.7,516.3,79.4,517.1,79.4"/>
	<path class="st0" d="M525.6,79.9H525v-0.6c-0.3,0.6-0.8,0.7-1.2,0.7c-1.4,0-1.8-1.3-1.8-2.3c0-1.2,0.6-2.1,1.7-2.1
		c0.8,0,1.1,0.5,1.2,0.7v-0.1v-2.1h0.7L525.6,79.9 M523.8,79.4c0.4,0,1.1-0.3,1.1-1.4c0-0.7-0.1-1.8-1.1-1.8c-1.1,0-1.1,1-1.1,1.6
		C522.7,78.7,523,79.4,523.8,79.4"/>
	<path class="st0" d="M530.2,78.6c0,0.2-0.2,0.8-0.7,1.1c-0.2,0.1-0.5,0.3-1.1,0.3c-1.2,0-1.9-0.9-1.9-2.1c0-1.3,0.6-2.3,2-2.3
		c1.2,0,1.8,1,1.8,2.4h-3.1c0,0.9,0.4,1.4,1.2,1.4c0.7,0,1.1-0.5,1.1-0.8H530.2 M529.5,77.5c0-0.6-0.3-1.2-1.2-1.2
		c-0.6,0-1.2,0.6-1.2,1.2H529.5"/>
	<path class="st0" d="M533.5,75.7h0.8l-1.6,4.2h-0.8l-1.5-4.2h0.8l1.1,3.4L533.5,75.7"/>
	<path class="st0" d="M534.8,74.9v-0.8h0.7v0.8H534.8 M535.5,79.9h-0.7v-4.2h0.7V79.9"/>
	<path class="st0" d="M536.6,77c0-1,0.7-1.4,1.7-1.4c0.3,0,1.6,0.1,1.6,1.2v2.4c0,0.2,0.1,0.2,0.2,0.2c0.1,0,0.2,0,0.2,0v0.5
		c-0.1,0-0.2,0.1-0.4,0.1c-0.6,0-0.7-0.3-0.7-0.6c-0.3,0.3-0.7,0.7-1.5,0.7s-1.3-0.5-1.3-1.2c0-0.4,0.1-1.2,1.3-1.3l1.2-0.1
		c0.2,0,0.4-0.1,0.4-0.5s-0.3-0.7-1-0.7c-0.8,0-0.9,0.5-1,0.8L536.6,77L536.6,77z M539.2,77.8c-0.1,0.1-0.3,0.2-1.2,0.3
		c-0.3,0-0.9,0.2-0.9,0.7s0.2,0.7,0.8,0.7c0.7,0,1.3-0.4,1.3-1L539.2,77.8"/>
	<path class="st0" d="M541.9,76.3V79c0,0.3,0.3,0.3,0.4,0.3h0.2v0.6c-0.3,0-0.5,0.1-0.5,0.1c-0.7,0-0.8-0.4-0.8-0.9v-2.8h-0.6v-0.6
		h0.6v-1.2h0.7v1.2h0.7v0.6L541.9,76.3"/>
	<path class="st0" d="M543.3,74.9v-0.8h0.7v0.8H543.3 M544,79.9h-0.7v-4.2h0.7V79.9"/>
	<path class="st0" d="M546.8,75.6c1.3,0,1.9,1.1,1.9,2.2s-0.6,2.2-1.9,2.2c-1.3,0-1.9-1.1-1.9-2.2C544.8,76.7,545.4,75.6,546.8,75.6
		 M546.8,79.4c1,0,1.2-1,1.2-1.6s-0.2-1.6-1.2-1.6s-1.2,1-1.2,1.6S545.7,79.4,546.8,79.4"/>
	<path class="st0" d="M552.9,79.9h-0.7v-2.6c0-0.7-0.2-1.1-0.9-1.1c-0.4,0-1.1,0.3-1.1,1.4v2.3h-0.7v-4.2h0.7v0.6
		c0.2-0.2,0.5-0.7,1.3-0.7c0.6,0,1.5,0.3,1.5,1.5L552.9,79.9L552.9,79.9z"/>
</g>
<path class="st11" d="M473,72h10.2v10.2H473V72z"/>
</svg>
