<?xml version="1.0" encoding="utf-8"?>
<!-- Generator: Adobe Illustrator 21.1.0, SVG Export Plug-In . SVG Version: 6.00 Build 0)  -->
<svg version="1.1" id="Layer_1" xmlns="http://www.w3.org/2000/svg" xmlns:xlink="http://www.w3.org/1999/xlink" x="0px" y="0px"
	 viewBox="0 0 564 340" style="enable-background:new 0 0 564 340;" xml:space="preserve">
<style type="text/css">
	.st0{fill:#EBECF0;}
	.st1{fill:#8993A4;}
	.st2{fill:#FF8B00;}
	.st3{fill:#0065FF;}
	.st4{fill:none;stroke:#C1C7D0;stroke-width:1.139;stroke-miterlimit:10;}
	.st5{fill:none;stroke:#FF8B00;stroke-miterlimit:10;}
	.st6{fill:none;stroke:#0065FF;stroke-miterlimit:10;}
	.st7{fill:none;stroke:#CCCBCB;stroke-width:0.984;stroke-miterlimit:10;}
</style>
<path class="st0" d="M263.4,61.3h98.5v245.2h-98.5V61.3z"/>
<g>
	<path class="st1" d="M26.2,307.6c-1.6,0-1.9-1.7-1.9-2.9c0-1.2,0.3-2.9,1.9-2.9s1.9,1.7,1.9,2.9C28.1,305.8,27.8,307.6,26.2,307.6
		 M26.2,302.4c-0.8,0-1.2,0.8-1.2,2.3s0.4,2.3,1.2,2.3s1.2-0.8,1.2-2.3S27,302.4,26.2,302.4"/>
	<path class="st1" d="M24.3,266.3c0-1.8,1.3-2,1.9-2c1,0,1.8,0.6,1.8,1.7c0,1-0.7,1.4-1.5,1.9l-0.6,0.3c-0.8,0.4-0.9,0.9-1,1.1H28
		v0.7h-3.8c0-1.2,0.6-1.8,1.3-2.2l0.7-0.4c0.6-0.3,1-0.6,1-1.3c0-0.4-0.3-1-1.1-1c-1.1,0-1.1,1-1.1,1.4h-0.7L24.3,266.3z"/>
	<path class="st1" d="M27.3,231.9v1.4h-0.7v-1.4h-2.5v-0.7l2.6-3.6h0.6v3.6h0.8v0.6L27.3,231.9L27.3,231.9z M24.8,231.3h1.8v-2.6
		L24.8,231.3"/>
	<path class="st1" d="M27.3,190.9c-0.1-0.5-0.4-0.9-1-0.9c-1.1,0-1.3,1.5-1.3,2.1c0.2-0.3,0.6-0.7,1.3-0.7c0.7,0,1.8,0.4,1.8,1.8
		c0,0.6-0.2,1-0.5,1.4c-0.3,0.3-0.6,0.5-1.4,0.5c-0.4,0-1-0.2-1.4-0.8c-0.3-0.5-0.4-1.2-0.4-2c0-1.2,0.4-3,2.1-3
		c0.6,0,1.6,0.4,1.6,1.5L27.3,190.9L27.3,190.9z M26.3,194.5c0.7,0,1.1-0.5,1.1-1.3c0-0.5-0.3-1.2-1.1-1.2c-0.8,0-1.2,0.6-1.2,1.2
		C25.1,193.9,25.4,194.5,26.3,194.5"/>
	<path class="st1" d="M25.8,154.4c0.8,0.3,0.9,0.9,0.9,1.4c0,0.9-0.6,1.8-1.9,1.8c-0.3,0-0.9-0.1-1.4-0.4c-0.6-0.5-0.6-1.1-0.6-1.3
		c0-0.7,0.4-1.1,1-1.4c-0.5-0.2-0.8-0.6-0.8-1.1c0-0.6,0.4-1.5,1.7-1.5c1.2,0,1.7,0.8,1.7,1.4C26.5,154,26.1,154.2,25.8,154.4
		 M23.7,155.8c0,0.4,0.2,1.1,1.2,1.1c0.5,0,1.1-0.2,1.1-1.1c0-0.8-0.5-1.1-1.2-1.1C24,154.7,23.7,155.2,23.7,155.8 M25.8,153.2
		c0-0.3-0.2-0.8-1-0.8s-0.9,0.5-0.9,0.9c0,0.5,0.5,0.9,1,0.9C25.4,154.1,25.8,153.7,25.8,153.2"/>
	<path class="st1" d="M21.5,119.5h-0.8v-4h-1.3v-0.6c0.9-0.1,1.3-0.2,1.5-1.1h0.6L21.5,119.5"/>
	<path class="st1" d="M24.8,119.6c-1.6,0-1.9-1.7-1.9-2.9c0-1.2,0.3-2.9,1.9-2.9s1.9,1.7,1.9,2.9C26.8,117.9,26.5,119.6,24.8,119.6
		 M24.8,114.5c-0.8,0-1.2,0.8-1.2,2.3s0.4,2.3,1.2,2.3s1.2-0.8,1.2-2.3S25.6,114.5,24.8,114.5"/>
	<path class="st1" d="M21.4,82.2h-0.8v-4h-1.3v-0.6c0.9-0.1,1.3-0.2,1.5-1.1h0.6L21.4,82.2"/>
	<path class="st1" d="M23,78.5c0-1.8,1.3-2,1.9-2c1,0,1.8,0.6,1.8,1.7c0,1-0.7,1.4-1.5,1.9l-0.6,0.3c-0.8,0.4-0.9,0.9-1,1.1h3.1v0.7
		h-3.8c0-1.2,0.6-1.8,1.3-2.2l0.7-0.4c0.6-0.3,1-0.6,1-1.3c0-0.4-0.3-1-1.1-1c-1.1,0-1.1,1-1.1,1.4H23L23,78.5z"/>
	<path class="st1" d="M9.2,205.8c-1.1,0-1.5,1-1.5,1.8c0,0.6,0.2,1.6,1.3,1.6c0.6,0,0.8-0.4,0.9-0.8l0.5-2c0.2-0.9,0.8-1.6,1.9-1.6
		c1.7,0,2.2,1.6,2.2,2.8c0,1.3-0.4,1.8-0.7,2.2c-0.5,0.6-1.1,0.7-1.8,0.7v-0.9c1.3,0,1.7-1.1,1.7-2c0-0.7-0.2-1.9-1.2-1.9
		c-0.7,0-1,0.3-1.3,1.5l-0.3,1.5c-0.1,0.5-0.4,1.5-1.7,1.5c-1.1,0-2.2-0.7-2.2-2.5c0-2.5,1.5-2.8,2.3-2.8L9.2,205.8L9.2,205.8z"/>
	<path class="st1" d="M9.7,202.5h3.4c0.4,0,0.4-0.3,0.4-0.5v-0.3h0.7c0,0.3,0.1,0.6,0.1,0.7c0,0.9-0.5,1.1-1.1,1.1H9.7v0.7H9v-0.7
		H7.6v-0.9H9v-0.8h0.7V202.5"/>
	<path class="st1" d="M8.9,198.9c0-1.7,1.4-2.4,2.8-2.4s2.8,0.8,2.8,2.4c0,1.7-1.4,2.4-2.8,2.4S8.9,200.6,8.9,198.9 M13.6,198.9
		c0-1.3-1.3-1.5-2-1.5s-2,0.3-2,1.5s1.3,1.5,2,1.5S13.6,200.2,13.6,198.9"/>
	<path class="st1" d="M14.2,194.5v0.9H9v-0.8h0.9c-0.6-0.3-1-0.8-1-1.5c0-0.1,0-0.2,0-0.2h0.9v0.3c0,0.8,0.6,1.3,1.4,1.3H14.2"/>
	<path class="st1" d="M9,188.6v-1c1.7,0.6,3.4,1.2,5.1,1.9c2.1,0.8,2.2,0.9,2.2,2c0,0.1,0,0.2-0.1,0.4h-0.8c0-0.1,0.1-0.3,0.1-0.5
		c0-0.5-0.1-0.5-1.2-0.9L9,192.4v-1l4.3-1.4L9,188.6"/>
	<path class="st1" d="M14.2,182.9v1H7.1v-3.2c0-1.3,0.9-2.1,2-2.1c1,0,2.1,0.6,2.1,2.1v2.3h3L14.2,182.9z M10.4,182.9V181
		c0-0.9-0.3-1.5-1.3-1.5c-0.9,0-1.2,0.6-1.2,1.4v2H10.4"/>
	<path class="st1" d="M8.9,175.8c0-1.7,1.4-2.4,2.8-2.4s2.8,0.8,2.8,2.4s-1.4,2.4-2.8,2.4S8.9,177.4,8.9,175.8 M13.6,175.8
		c0-1.3-1.3-1.5-2-1.5s-2,0.3-2,1.5s1.3,1.5,2,1.5S13.6,177,13.6,175.8"/>
	<path class="st1" d="M8.1,172.3h-1v-0.9h1V172.3 M14.2,171.4v0.9H9v-0.9H14.2"/>
	<path class="st1" d="M14.2,165.8v0.9H11c-0.9,0-1.4,0.3-1.4,1.1c0,0.5,0.3,1.4,1.7,1.4h2.8v0.9H9v-0.8h0.7
		c-0.3-0.2-0.9-0.7-0.9-1.6c0-0.8,0.3-1.8,1.8-1.8L14.2,165.8L14.2,165.8z"/>
	<path class="st1" d="M9.7,163.5h3.4c0.4,0,0.4-0.4,0.4-0.5v-0.3h0.7c0,0.3,0.1,0.6,0.1,0.7c0,0.9-0.5,1.1-1.1,1.1H9.7v0.7H9v-0.7
		H7.6v-0.9H9v-0.8h0.7V163.5"/>
	<path class="st1" d="M10.5,158.8c-0.3,0-0.9,0.1-0.9,1.2c0,0.3,0.1,1,0.7,1c0.4,0,0.5-0.3,0.7-0.9l0.2-0.9c0.3-1.1,0.7-1.5,1.4-1.5
		c1.1,0,1.7,0.9,1.7,2.1c0,2.1-1.2,2.2-1.8,2.2v-0.8c0.4,0,1.1-0.1,1.1-1.4c0-0.6-0.2-1.2-0.8-1.2c-0.4,0-0.6,0.3-0.8,1l-0.2,1
		c-0.2,0.7-0.5,1.2-1.3,1.2c-1.1,0-1.7-0.9-1.7-2c0-1.9,1.4-2,1.6-2v1L10.5,158.8z"/>
	<path class="st1" d="M466.5,72.8h2.5v3.1h-0.5l-0.2-0.7c-0.4,0.5-1.1,0.9-1.9,0.9c-1,0-1.5-0.4-1.8-0.6c-0.9-0.8-0.9-1.8-0.9-2.4
		c0-1.4,0.8-3,2.7-3c1.1,0,2.3,0.6,2.4,1.9H468c-0.2-1-1.1-1.2-1.7-1.2c-1,0-1.9,0.8-1.9,2.3c0,1.2,0.4,2.4,1.9,2.4
		c0.3,0,0.8,0,1.2-0.4c0.5-0.4,0.6-0.9,0.6-1.5h-1.8v-0.8L466.5,72.8z"/>
	<path class="st1" d="M472.9,75.9v-0.6c-0.3,0.5-0.7,0.7-1.3,0.7c-0.6,0-1.4-0.3-1.4-1.3v-3h0.7v2.8c0,0.7,0.4,0.9,0.8,0.9
		c0.9,0,1.2-0.8,1.2-1.4v-2.3h0.7v4.2L472.9,75.9"/>
	<path class="st1" d="M474.6,71v-0.8h0.7V71H474.6 M475.3,75.9h-0.7v-4.2h0.7V75.9"/>
	<path class="st1" d="M479.8,75.9h-0.7v-0.6c-0.3,0.6-0.8,0.7-1.2,0.7c-1.4,0-1.8-1.3-1.8-2.3c0-1.2,0.6-2.1,1.7-2.1
		c0.8,0,1.1,0.5,1.2,0.7v-0.1v-2.1h0.7L479.8,75.9L479.8,75.9z M478,75.4c0.4,0,1.1-0.3,1.1-1.4c0-0.7-0.1-1.8-1.1-1.8
		c-1.1,0-1.1,1-1.1,1.6C476.9,74.7,477.2,75.4,478,75.4"/>
	<path class="st1" d="M484.4,74.6c0,0.2-0.2,0.8-0.7,1.1c-0.2,0.1-0.5,0.3-1.1,0.3c-1.2,0-1.9-0.9-1.9-2.1c0-1.3,0.6-2.3,2-2.3
		c1.2,0,1.8,1,1.8,2.4h-3.1c0,0.9,0.4,1.4,1.2,1.4c0.7,0,1.1-0.5,1.1-0.8H484.4 M483.7,73.5c0-0.6-0.3-1.2-1.2-1.2
		c-0.6,0-1.2,0.6-1.2,1.2H483.7"/>
	<path class="st1" d="M486,75.9h-0.7v-5.7h0.7V75.9"/>
	<path class="st1" d="M487.1,71v-0.8h0.7V71H487.1 M487.8,75.9h-0.7v-4.2h0.7V75.9"/>
	<path class="st1" d="M492.2,75.9h-0.7v-2.6c0-0.7-0.2-1.1-0.9-1.1c-0.4,0-1.1,0.3-1.1,1.4v2.3h-0.7v-4.2h0.7v0.6
		c0.2-0.2,0.5-0.7,1.3-0.7c0.6,0,1.5,0.3,1.5,1.5L492.2,75.9L492.2,75.9z"/>
	<path class="st1" d="M496.8,74.6c0,0.2-0.2,0.8-0.7,1.1c-0.2,0.1-0.5,0.3-1.1,0.3c-1.2,0-1.9-0.9-1.9-2.1c0-1.3,0.6-2.3,2-2.3
		c1.2,0,1.8,1,1.8,2.4h-3.1c0,0.9,0.4,1.4,1.2,1.4c0.7,0,1.1-0.5,1.1-0.8H496.8 M496.1,73.5c0-0.6-0.3-1.2-1.2-1.2
		c-0.6,0-1.2,0.6-1.2,1.2H496.1"/>
	<path class="st1" d="M464.9,91.3h-0.8v-5.7h2.7c0.9,0,1.9,0.3,1.9,1.5c0,0.8-0.4,1.2-0.8,1.4c0.3,0.1,0.7,0.3,0.7,1.1v1
		c0,0.3,0,0.4,0.3,0.6v0.1h-1c-0.1-0.4-0.1-1.2-0.1-1.4c0-0.5-0.1-1-1-1h-1.9L464.9,91.3 M464.9,88.2h1.8c0.6,0,1.2-0.1,1.2-1
		s-0.6-1-1-1H465v2H464.9z"/>
	<path class="st1" d="M473.1,90c0,0.2-0.2,0.8-0.7,1.1c-0.2,0.1-0.5,0.3-1.1,0.3c-1.2,0-1.9-0.9-1.9-2.1c0-1.3,0.6-2.3,2-2.3
		c1.2,0,1.8,1,1.8,2.4h-3.1c0,0.9,0.4,1.4,1.2,1.4c0.7,0,1.1-0.5,1.1-0.8H473.1 M472.4,88.9c0-0.6-0.3-1.2-1.2-1.2
		c-0.6,0-1.2,0.6-1.2,1.2H472.4"/>
	<path class="st1" d="M474,87.2h0.7v0.6c0.2-0.2,0.5-0.7,1.3-0.7s1,0.5,1.1,0.7c0.4-0.4,0.6-0.7,1.3-0.7c0.4,0,1.3,0.2,1.3,1.4v2.9
		H479v-2.7c0-0.6-0.2-1-0.8-1c-0.6,0-1,0.6-1,1.1v2.6h-0.7v-2.9c0-0.4-0.1-0.8-0.7-0.8c-0.4,0-1.1,0.3-1.1,1.4v2.3H474L474,87.2"/>
	<path class="st1" d="M480.6,88.4c0-1,0.7-1.4,1.7-1.4c0.3,0,1.6,0.1,1.6,1.2v2.4c0,0.2,0.1,0.2,0.2,0.2s0.2,0,0.2,0v0.5
		c-0.1,0-0.2,0.1-0.4,0.1c-0.6,0-0.7-0.3-0.7-0.6c-0.3,0.3-0.7,0.7-1.5,0.7s-1.3-0.5-1.3-1.2c0-0.4,0.1-1.2,1.3-1.3l1.2-0.1
		c0.2,0,0.4-0.1,0.4-0.5s-0.3-0.7-1-0.7c-0.8,0-0.9,0.5-1,0.8L480.6,88.4L480.6,88.4z M483.2,89.2c-0.1,0.1-0.3,0.2-1.2,0.3
		c-0.3,0-0.9,0.2-0.9,0.7s0.2,0.7,0.8,0.7c0.7,0,1.3-0.4,1.3-1L483.2,89.2"/>
	<path class="st1" d="M485.1,86.4v-0.8h0.7v0.8H485.1 M485.8,91.3h-0.7v-4.2h0.7V91.3"/>
	<path class="st1" d="M490.3,91.3h-0.7v-2.6c0-0.7-0.2-1.1-0.9-1.1c-0.4,0-1.1,0.3-1.1,1.4v2.3h-0.7v-4.2h0.7v0.6
		c0.2-0.2,0.5-0.7,1.3-0.7c0.6,0,1.5,0.3,1.5,1.5L490.3,91.3L490.3,91.3z"/>
	<path class="st1" d="M491.3,86.4v-0.8h0.7v0.8H491.3 M492,91.3h-0.7v-4.2h0.7V91.3"/>
	<path class="st1" d="M496.5,91.3h-0.7v-2.6c0-0.7-0.2-1.1-0.9-1.1c-0.4,0-1.1,0.3-1.1,1.4v2.3h-0.7v-4.2h0.7v0.6
		c0.2-0.2,0.5-0.7,1.3-0.7c0.6,0,1.5,0.3,1.5,1.5L496.5,91.3L496.5,91.3z"/>
	<path class="st1" d="M501,91c0,0.6,0,2.1-1.9,2.1c-0.5,0-1.5-0.1-1.6-1.2h0.7c0.1,0.7,0.8,0.7,0.9,0.7c1.2,0,1.2-1,1.2-1.5v-0.2
		c-0.2,0.3-0.6,0.6-1.1,0.6c-1.4,0-1.8-1.3-1.8-2.3c0-1.2,0.6-2.1,1.7-2.1c0.8,0,1.1,0.5,1.2,0.7v-0.6h0.7L501,91 M499.2,90.8
		c0.4,0,1.1-0.3,1.1-1.4c0-0.7-0.1-1.8-1.1-1.8c-1.1,0-1.1,1-1.1,1.6C498.1,90.1,498.4,90.8,499.2,90.8"/>
	<path class="st1" d="M506.9,87.2h0.8l-1.6,4.2h-0.8l-1.5-4.2h0.8l1.1,3.4L506.9,87.2"/>
	<path class="st1" d="M508,88.4c0-1,0.7-1.4,1.7-1.4c0.3,0,1.6,0.1,1.6,1.2v2.4c0,0.2,0.1,0.2,0.2,0.2s0.2,0,0.2,0v0.5
		c-0.1,0-0.2,0.1-0.4,0.1c-0.6,0-0.7-0.3-0.7-0.6c-0.3,0.3-0.7,0.7-1.5,0.7s-1.3-0.5-1.3-1.2c0-0.4,0.1-1.2,1.3-1.3l1.2-0.1
		c0.2,0,0.4-0.1,0.4-0.5s-0.3-0.7-1-0.7c-0.8,0-0.9,0.5-1,0.8L508,88.4L508,88.4z M510.6,89.2c-0.1,0.1-0.3,0.2-1.2,0.3
		c-0.3,0-0.9,0.2-0.9,0.7s0.2,0.7,0.8,0.7c0.7,0,1.3-0.4,1.3-1L510.6,89.2"/>
	<path class="st1" d="M513.2,91.3h-0.7v-5.7h0.7V91.3"/>
	<path class="st1" d="M517,91.3v-0.6c-0.3,0.5-0.7,0.7-1.3,0.7s-1.4-0.3-1.4-1.3v-3h0.7v2.8c0,0.7,0.4,0.9,0.8,0.9
		c0.9,0,1.2-0.8,1.2-1.4v-2.3h0.7v4.2L517,91.3"/>
	<path class="st1" d="M522.2,90c0,0.2-0.2,0.8-0.7,1.1c-0.2,0.1-0.5,0.3-1.1,0.3c-1.2,0-1.9-0.9-1.9-2.1c0-1.3,0.6-2.3,2-2.3
		c1.2,0,1.8,1,1.8,2.4h-3.1c0,0.9,0.4,1.4,1.2,1.4c0.7,0,1.1-0.5,1.1-0.8H522.2 M521.6,88.9c0-0.6-0.3-1.2-1.2-1.2
		c-0.6,0-1.2,0.6-1.2,1.2H521.6"/>
	<path class="st1" d="M525.5,88.3c0-0.3-0.1-0.7-1-0.7c-0.2,0-0.8,0.1-0.8,0.6c0,0.3,0.2,0.4,0.8,0.6l0.7,0.2
		c0.9,0.2,1.2,0.5,1.2,1.1c0,0.9-0.7,1.4-1.7,1.4c-1.7,0-1.8-1-1.8-1.5h0.7c0,0.3,0.1,0.9,1.1,0.9c0.5,0,1-0.2,1-0.7
		c0-0.3-0.2-0.4-0.8-0.6l-0.8-0.2c-0.6-0.1-1-0.4-1-1c0-0.9,0.8-1.3,1.6-1.3c1.5,0,1.6,1.1,1.6,1.3h-0.8V88.3z"/>
	<path class="st1" d="M467.8,102h0.8v5.7h-0.9l-2.9-4.6v4.6H464V102h0.9l2.9,4.6V102"/>
	<path class="st1" d="M471.4,103.5c1.3,0,1.9,1.1,1.9,2.2s-0.6,2.2-1.9,2.2s-1.9-1.1-1.9-2.2S470.1,103.5,471.4,103.5 M471.4,107.3
		c1,0,1.2-1,1.2-1.6s-0.2-1.6-1.2-1.6s-1.2,1-1.2,1.6S470.4,107.3,471.4,107.3"/>
	<path class="st1" d="M477.5,107.8h-0.7v-2.6c0-0.7-0.2-1.1-0.9-1.1c-0.4,0-1.1,0.3-1.1,1.4v2.3h-0.7v-4.2h0.7v0.6
		c0.2-0.2,0.5-0.7,1.3-0.7c0.6,0,1.5,0.3,1.5,1.5L477.5,107.8L477.5,107.8z"/>
	<path class="st1" d="M480.4,105.9h-2v-0.7h2V105.9"/>
	<path class="st1" d="M482.8,107.8h-0.7l-1.2-4.2h0.8l0.8,3.3l0.8-3.3h0.8l0.8,3.3l0.8-3.3h0.7l-1.2,4.2h-0.7l-0.8-3.2L482.8,107.8"
		/>
	<path class="st1" d="M488.7,103.5c1.3,0,1.9,1.1,1.9,2.2s-0.6,2.2-1.9,2.2s-1.9-1.1-1.9-2.2C486.7,104.6,487.3,103.5,488.7,103.5
		 M488.7,107.3c1,0,1.2-1,1.2-1.6s-0.2-1.6-1.2-1.6s-1.2,1-1.2,1.6S487.6,107.3,488.7,107.3"/>
	<path class="st1" d="M492.2,107.8h-0.7v-4.2h0.7v0.7c0.3-0.5,0.6-0.8,1.2-0.8c0.1,0,0.1,0,0.2,0v0.7h-0.3c-0.7,0-1.1,0.5-1.1,1.1
		L492.2,107.8"/>
	<path class="st1" d="M497.7,107.8h-0.9l-1.3-2.1l-0.6,0.5v1.6h-0.7V102h0.7v3.3l1.8-1.8h0.9l-1.6,1.6L497.7,107.8"/>
	<path class="st1" d="M498.2,102.8V102h0.7v0.8H498.2 M498.9,107.8h-0.7v-4.2h0.7V107.8"/>
	<path class="st1" d="M503.4,107.8h-0.7v-2.6c0-0.7-0.2-1.1-0.9-1.1c-0.4,0-1.1,0.3-1.1,1.4v2.3H500v-4.2h0.7v0.6
		c0.2-0.2,0.5-0.7,1.3-0.7c0.6,0,1.5,0.3,1.5,1.5L503.4,107.8L503.4,107.8z"/>
	<path class="st1" d="M507.9,107.4c0,0.6,0,2.1-1.9,2.1c-0.5,0-1.5-0.1-1.6-1.2h0.7c0.1,0.7,0.8,0.7,0.9,0.7c1.2,0,1.2-1,1.2-1.5
		v-0.2c-0.2,0.3-0.6,0.6-1.1,0.6c-1.4,0-1.8-1.3-1.8-2.3c0-1.2,0.6-2.1,1.7-2.1c0.8,0,1.1,0.5,1.2,0.7v-0.6h0.7L507.9,107.4
		 M506.1,107.3c0.4,0,1.1-0.3,1.1-1.4c0-0.7-0.1-1.8-1.1-1.8c-1.1,0-1.1,1-1.1,1.6C504.9,106.6,505.3,107.3,506.1,107.3"/>
	<path class="st1" d="M514.5,107.8h-0.7v-0.6c-0.3,0.6-0.8,0.7-1.2,0.7c-1.4,0-1.8-1.3-1.8-2.3c0-1.2,0.6-2.1,1.7-2.1
		c0.8,0,1.1,0.5,1.2,0.7v-0.1V102h0.7L514.5,107.8L514.5,107.8z M512.7,107.3c0.4,0,1.1-0.3,1.1-1.4c0-0.7-0.1-1.8-1.1-1.8
		c-1.1,0-1.1,1-1.1,1.6C511.6,106.6,511.9,107.3,512.7,107.3"/>
	<path class="st1" d="M515.5,104.9c0-1,0.7-1.4,1.7-1.4c0.3,0,1.6,0.1,1.6,1.2v2.4c0,0.2,0.1,0.2,0.2,0.2c0.1,0,0.2,0,0.2,0v0.5
		c-0.1,0-0.2,0.1-0.4,0.1c-0.6,0-0.7-0.3-0.7-0.6c-0.3,0.3-0.7,0.7-1.5,0.7s-1.3-0.5-1.3-1.2c0-0.4,0.1-1.2,1.3-1.3l1.2-0.1
		c0.2,0,0.4-0.1,0.4-0.5s-0.3-0.7-1-0.7c-0.8,0-0.9,0.5-1,0.8L515.5,104.9L515.5,104.9z M518.1,105.6c-0.1,0.1-0.3,0.2-1.2,0.3
		c-0.3,0-0.9,0.2-0.9,0.7s0.2,0.7,0.8,0.7c0.7,0,1.3-0.4,1.3-1L518.1,105.6"/>
	<path class="st1" d="M522.3,103.6h0.8c-0.5,1.4-1,2.7-1.5,4.1c-0.7,1.7-0.7,1.8-1.6,1.8c-0.1,0-0.2,0-0.3-0.1v-0.6
		c0.1,0,0.2,0.1,0.4,0.1c0.4,0,0.4-0.1,0.7-1l-1.6-4.3h0.8l1.1,3.4L522.3,103.6"/>
	<path class="st1" d="M525.9,104.8c0-0.3-0.1-0.7-1-0.7c-0.2,0-0.8,0.1-0.8,0.6c0,0.3,0.2,0.4,0.8,0.6l0.7,0.2
		c0.9,0.2,1.2,0.5,1.2,1.1c0,0.9-0.7,1.4-1.7,1.4c-1.7,0-1.8-1-1.8-1.5h0.7c0,0.3,0.1,0.9,1.1,0.9c0.5,0,1-0.2,1-0.7
		c0-0.3-0.2-0.4-0.8-0.6l-0.8-0.2c-0.6-0.1-1-0.4-1-1c0-0.9,0.8-1.3,1.6-1.3c1.5,0,1.6,1.1,1.6,1.3h-0.8V104.8z"/>
</g>
<path class="st0" d="M448.7,99.7h10.5v10.5h-10.5V99.7z"/>
<path class="st2" d="M448.7,84h10.5v10.5h-10.5V84z"/>
<path class="st3" d="M448.7,68.2h10.5v10.5h-10.5V68.2z"/>
<g>
	<path class="st4" d="M33.9,61.6v245.1h525.5"/>
	<path class="st5" d="M492.4,269.1l-114.5,0.1v-52H141.4v-61.3H45.9V118h-5.5v-14.8h-6"/>
	<path class="st6" d="M33.9,103.2l215,90.4h96l215,83.6"/>
</g>
<g>
	<path class="st3" d="M17.4,16c2.5,0,3.9,1.5,3.9,3.4c0,1.3-0.8,2.4-1.9,2.7c1.2,0.3,2.3,1.4,2.3,3c0,2.1-1.5,3.6-3.9,3.6h-4.9V16
		H17.4 M17,21.3c1.1,0,1.8-0.6,1.8-1.6s-0.6-1.6-1.8-1.6h-1.7v3.2H17 M17.2,26.7c1.2,0,1.9-0.6,1.9-1.7c0-1-0.6-1.7-1.9-1.7h-2.1
		v3.4L17.2,26.7"/>
	<path class="st3" d="M29.1,27.9c-0.5,0.8-1.5,1.2-2.4,1.2c-2.1,0-3.4-1.6-3.4-3.5V20h2.4v5.1c0,1,0.5,1.8,1.6,1.8s1.7-0.7,1.7-1.7
		V20h2.4v7.3c0,0.7,0.1,1.3,0.1,1.6h-2.3C29.2,28.6,29.1,28.2,29.1,27.9"/>
	<path class="st3" d="M39.4,22.3c-0.3-0.1-0.5-0.1-0.7-0.1c-1.2,0-2.3,0.6-2.3,2.5v4.1H34V20h2.3v1.3c0.5-1.2,1.8-1.4,2.5-1.4
		c0.2,0,0.4,0,0.6,0L39.4,22.3"/>
	<path class="st3" d="M43.5,28.8h-2.4V20h2.3v1.1c0.5-0.9,1.6-1.3,2.6-1.3c2.2,0,3.2,1.6,3.2,3.5v5.6h-2.4v-5.2c0-1-0.5-1.8-1.6-1.8
		c-1,0-1.7,0.8-1.7,1.8L43.5,28.8"/>
	<path class="st3" d="M60,27.2c0,0.6,0,1.2,0.1,1.6h-2.3c0-0.2-0.1-0.6-0.1-1c-0.4,0.7-1.3,1.2-2.5,1.2c-2.5,0-4.3-2-4.3-4.7
		c0-2.6,1.7-4.6,4.2-4.6c1.5,0,2.3,0.6,2.5,1.1v-5.1H60L60,27.2 M55.5,26.9c1.2,0,2.2-0.9,2.2-2.5s-1-2.5-2.2-2.5s-2.2,0.9-2.2,2.5
		S54.3,26.9,55.5,26.9"/>
	<path class="st3" d="M71.2,24.4c0,2.7-2,4.7-4.6,4.7s-4.6-2-4.6-4.7s2-4.7,4.6-4.7S71.2,21.6,71.2,24.4 M68.8,24.4
		c0-1.7-1.1-2.5-2.3-2.5c-1.2,0-2.3,0.8-2.3,2.5s1.1,2.5,2.3,2.5C67.8,26.9,68.8,26.1,68.8,24.4"/>
	<path class="st3" d="M80.4,20l1.9,5.7L84,20h2.4l-2.8,8.9h-2.4l-2.1-6l-2,6h-2.4L71.8,20h2.5l1.6,5.7l1.9-5.7H80.4"/>
	<path class="st3" d="M90.2,28.8h-2.4V20h2.3v1.1c0.5-0.9,1.6-1.3,2.6-1.3c2.2,0,3.2,1.6,3.2,3.5v5.6h-2.4v-5.2c0-1-0.5-1.8-1.6-1.8
		c-1,0-1.7,0.8-1.7,1.8V28.8"/>
	<path class="st3" d="M102.2,22.4c0-4.1,3.1-6.7,6.5-6.7c3.5,0,5.3,2.2,5.9,4.2l-2.3,0.7c-0.3-1.2-1.3-2.6-3.5-2.6
		c-1.9,0-3.9,1.4-3.9,4.3c0,2.7,1.9,4.2,4,4.2c2.2,0,3.2-1.4,3.6-2.6l2.3,0.7c-0.5,2-2.3,4.3-5.9,4.3
		C105.2,29.1,102.2,26.5,102.2,22.4"/>
	<path class="st3" d="M118.8,28.8h-2.4v-13h2.4v4.9c0.6-0.7,1.5-1,2.4-1c2.3,0,3.3,1.6,3.3,3.5v5.6h-2.4v-5.2c0-1-0.5-1.8-1.6-1.8
		c-1,0-1.6,0.8-1.7,1.7L118.8,28.8"/>
	<path class="st3" d="M129,23.7l2.2-0.3c0.5-0.1,0.7-0.3,0.7-0.6c0-0.6-0.5-1.2-1.5-1.2s-1.6,0.7-1.7,1.4l-2.1-0.5
		c0.1-1.4,1.4-2.9,3.8-2.9c2.8,0,3.9,1.6,3.9,3.4v4.4c0,0.5,0.1,1.1,0.1,1.4h-2.2c-0.1-0.2-0.1-0.7-0.1-1.1
		c-0.5,0.7-1.3,1.3-2.6,1.3c-1.9,0-3-1.3-3-2.7C126.3,24.8,127.5,23.9,129,23.7 M131.8,25.2v-0.4l-2,0.3c-0.6,0.1-1.1,0.4-1.1,1.1
		c0,0.5,0.4,1,1.2,1C130.9,27.3,131.8,26.8,131.8,25.2"/>
	<path class="st3" d="M142,22.3c-0.3-0.1-0.5-0.1-0.7-0.1c-1.2,0-2.3,0.6-2.3,2.5v4.1h-2.4V20h2.3v1.3c0.5-1.2,1.8-1.4,2.5-1.4
		c0.2,0,0.4,0,0.6,0L142,22.3"/>
	<path class="st3" d="M147,20h1.8v2.1H147v3.7c0,0.8,0.4,1,1,1c0.3,0,0.6,0,0.7-0.1v2c-0.2,0.1-0.6,0.2-1.4,0.2
		c-1.7,0-2.8-1-2.8-2.7v-4.1H143V20h0.5c0.9,0,1.4-0.6,1.4-1.4v-1.2h2.2L147,20L147,20z"/>
</g>
<g>
	<path class="st1" d="M109.9,319.7v0.5c0,0.9,0.4,1.2,1.1,1.2c0.9,0,1.1-0.5,1.1-1.2v-5.3h1v5.2c0,1.7-1.1,2.1-2.1,2.1
		c-1.7,0-2-1.1-2-1.8v-0.7L109.9,319.7"/>
	<path class="st1" d="M117.7,322v-0.8c-0.4,0.6-0.8,0.9-1.7,0.9c-0.8,0-1.7-0.4-1.7-1.6v-3.8h0.9v3.5c0,0.9,0.4,1.1,1,1.1
		c1.1,0,1.4-1,1.4-1.7v-2.9h0.9v5.2L117.7,322L117.7,322z"/>
	<path class="st1" d="M120.8,322h-0.9v-7.2h0.9V322"/>
	<path class="st1" d="M124.6,317.5c0-2.3,1.7-2.5,2.4-2.5c1.2,0,2.2,0.8,2.2,2.1c0,1.3-0.8,1.8-1.9,2.3l-0.7,0.4
		c-1,0.5-1.2,1.1-1.2,1.3h3.8v0.8h-4.8c0.1-1.5,0.7-2.2,1.6-2.8l0.9-0.5c0.7-0.4,1.3-0.7,1.3-1.6c0-0.6-0.4-1.3-1.4-1.3
		c-1.3,0-1.4,1.2-1.4,1.7h-0.8L124.6,317.5z"/>
	<path class="st1" d="M134,320.3v1.7h-0.9v-1.7H130v-0.9l3.2-4.5h0.7v4.6h1v0.8H134 M130.8,319.6h2.3v-3.2L130.8,319.6"/>
	<path class="st1" d="M206.7,319.7v0.5c0,0.9,0.4,1.2,1.1,1.2c0.9,0,1.1-0.5,1.1-1.2v-5.3h1v5.2c0,1.7-1.1,2.1-2.1,2.1
		c-1.7,0-2-1.1-2-1.8v-0.7L206.7,319.7"/>
	<path class="st1" d="M214.5,322v-0.8c-0.4,0.6-0.8,0.9-1.7,0.9c-0.8,0-1.7-0.4-1.7-1.6v-3.8h0.9v3.5c0,0.9,0.4,1.1,1,1.1
		c1.1,0,1.4-1,1.4-1.7v-2.9h0.9v5.2L214.5,322L214.5,322z"/>
	<path class="st1" d="M217.5,322h-0.9v-7.2h0.9V322"/>
	<path class="st1" d="M221.4,317.5c0-2.3,1.7-2.5,2.4-2.5c1.2,0,2.2,0.8,2.2,2.1c0,1.3-0.8,1.8-1.9,2.3l-0.7,0.4
		c-1,0.5-1.2,1.1-1.2,1.3h3.8v0.8h-4.8c0.1-1.5,0.7-2.2,1.6-2.8l0.9-0.5c0.7-0.4,1.3-0.7,1.3-1.6c0-0.6-0.4-1.3-1.4-1.3
		c-1.3,0-1.4,1.2-1.4,1.7h-0.8L221.4,317.5z"/>
	<path class="st1" d="M230.7,316.9c-0.1-0.6-0.4-1.1-1.2-1.1c-1.4,0-1.7,1.9-1.7,2.6c0.2-0.4,0.7-0.9,1.7-0.9c0.9,0,2.2,0.5,2.2,2.2
		c0,0.7-0.2,1.2-0.7,1.8c-0.4,0.4-0.8,0.7-1.8,0.7c-0.5,0-1.3-0.2-1.8-1c-0.4-0.7-0.5-1.5-0.5-2.4c0-1.5,0.5-3.8,2.6-3.8
		c0.8,0,2,0.4,2,1.9L230.7,316.9 M229.4,321.4c0.8,0,1.4-0.7,1.4-1.6c0-0.6-0.3-1.5-1.4-1.5c-1,0-1.4,0.7-1.4,1.5
		C227.9,320.6,228.4,321.4,229.4,321.4"/>
	<path class="st1" d="M300.9,319.7v0.5c0,0.9,0.4,1.2,1.1,1.2c0.9,0,1.1-0.5,1.1-1.2v-5.3h1v5.2c0,1.7-1.1,2.1-2.1,2.1
		c-1.7,0-2-1.1-2-1.8v-0.7L300.9,319.7"/>
	<path class="st1" d="M308.7,322v-0.8c-0.4,0.6-0.8,0.9-1.7,0.9c-0.8,0-1.7-0.4-1.7-1.6v-3.8h0.9v3.5c0,0.9,0.4,1.1,1,1.1
		c1.1,0,1.4-1,1.4-1.7v-2.9h0.9v5.2L308.7,322L308.7,322z"/>
	<path class="st1" d="M311.8,322h-0.9v-7.2h0.9V322"/>
	<path class="st1" d="M315.6,317.5c0-2.3,1.7-2.5,2.4-2.5c1.2,0,2.2,0.8,2.2,2.1c0,1.3-0.8,1.8-1.9,2.3l-0.7,0.4
		c-1,0.5-1.2,1.1-1.2,1.3h3.8v0.8h-4.8c0.1-1.5,0.7-2.2,1.6-2.8l0.9-0.5c0.7-0.4,1.3-0.7,1.3-1.6c0-0.6-0.4-1.3-1.4-1.3
		c-1.3,0-1.4,1.2-1.4,1.7h-0.8V317.5z"/>
	<path class="st1" d="M324.8,318.3c0.9,0.4,1.1,1.2,1.1,1.7c0,1.1-0.7,2.2-2.4,2.2c-0.4,0-1.1-0.1-1.7-0.5c-0.7-0.6-0.7-1.3-0.7-1.7
		c0-0.9,0.4-1.4,1.2-1.7c-0.6-0.2-1-0.7-1-1.4c0-0.7,0.5-1.9,2.1-1.9s2.2,1,2.2,1.8C325.7,317.8,325.1,318.1,324.8,318.3 M322.1,320
		c0,0.6,0.3,1.4,1.5,1.4c0.6,0,1.4-0.2,1.4-1.3c0-1-0.7-1.4-1.5-1.4C322.5,318.7,322.1,319.4,322.1,320 M324.8,316.8
		c0-0.4-0.3-1-1.3-1c-0.9,0-1.2,0.7-1.2,1.1c0,0.7,0.6,1.1,1.2,1.1C324.3,318,324.8,317.5,324.8,316.8"/>
	<path class="st1" d="M394.7,319.7v0.5c0,0.9,0.4,1.2,1.1,1.2c0.9,0,1.1-0.5,1.1-1.2v-5.3h1v5.2c0,1.7-1.1,2.1-2.1,2.1
		c-1.7,0-2-1.1-2-1.8v-0.7L394.7,319.7"/>
	<path class="st1" d="M402.5,322v-0.8c-0.4,0.6-0.8,0.9-1.7,0.9c-0.8,0-1.7-0.4-1.7-1.6v-3.8h0.9v3.5c0,0.9,0.4,1.1,1,1.1
		c1.1,0,1.4-1,1.4-1.7v-2.9h0.9v5.2L402.5,322L402.5,322z"/>
	<path class="st1" d="M405.5,322h-0.9v-7.2h0.9V322"/>
	<path class="st1" d="M411.2,318c0.1,0,0.3,0,0.5,0c0.7,0,1.3-0.3,1.3-1.1c0-0.4-0.2-1.1-1.3-1.1c-1.2,0-1.3,1-1.4,1.5h-0.9
		c0-1,0.4-2.3,2.3-2.3c1.4,0,2.2,0.8,2.2,1.8c0,0.9-0.5,1.3-0.9,1.4c0.7,0.2,1.2,0.7,1.2,1.6c0,1.1-0.7,2.3-2.5,2.3
		c-0.5,0-1-0.1-1.3-0.3c-0.8-0.4-1-1.2-1-2h0.9c0,0.7,0.2,1.5,1.5,1.5c0.9,0,1.5-0.5,1.5-1.4c0-1.2-1-1.3-1.6-1.3
		c-0.1,0-0.3,0-0.4,0V318H411.2z"/>
	<path class="st1" d="M417.3,322.2c-2,0-2.4-2.1-2.4-3.6s0.4-3.6,2.4-3.6s2.4,2.1,2.4,3.6S419.3,322.2,417.3,322.2 M417.3,315.8
		c-1,0-1.5,1.1-1.5,2.8c0,1.8,0.5,2.8,1.5,2.8s1.5-1.1,1.5-2.8C418.8,316.8,418.3,315.8,417.3,315.8"/>
	<path class="st1" d="M490.8,319.9L490,322h-1l2.7-7.2h1.1l2.6,7.2h-1.1l-0.7-2.1H490.8 M493.3,319.1l-1.1-3.2l-1.1,3.2H493.3"/>
	<path class="st1" d="M499.3,322v-0.8c-0.4,0.6-0.8,0.9-1.7,0.9c-0.8,0-1.7-0.4-1.7-1.6v-3.8h0.9v3.5c0,0.9,0.4,1.1,1,1.1
		c1.1,0,1.4-1,1.4-1.7v-2.9h0.9v5.2L499.3,322L499.3,322z"/>
	<path class="st1" d="M505.8,321.6c0,0.7,0,2.6-2.4,2.6c-0.6,0-1.8-0.2-2-1.6h0.9c0.2,0.8,1,0.8,1.2,0.8c1.5,0,1.5-1.2,1.5-1.8v-0.2
		c-0.2,0.4-0.7,0.7-1.4,0.7c-1.8,0-2.3-1.7-2.3-2.9c0-1.5,0.8-2.6,2.2-2.6c0.9,0,1.3,0.6,1.6,0.9v-0.7h0.8v4.8L505.8,321.6z
		 M503.6,321.4c0.6,0,1.4-0.4,1.4-1.8c0-0.8-0.1-2.2-1.4-2.2c-1.4,0-1.4,1.3-1.4,2C502.2,320.5,502.6,321.4,503.6,321.4"/>
	<path class="st1" d="M512.8,322h-0.9v-5h-1.6v-0.7c1.1-0.1,1.6-0.2,1.9-1.3h0.7v7H512.8z"/>
</g>
<g>
	<path class="st7" d="M122.1,306.5v3.9"/>
	<path class="st7" d="M217.1,306.5v3.9"/>
	<path class="st7" d="M312.6,306.5v3.9"/>
	<path class="st7" d="M407.6,306.5v3.9"/>
	<path class="st7" d="M502.6,306.5v3.9"/>
</g>
</svg>
