<?xml version="1.0" encoding="utf-8"?>
<!-- Generator: Adobe Illustrator 21.1.0, SVG Export Plug-In . SVG Version: 6.00 Build 0)  -->
<svg version="1.1" id="Layer_1" xmlns="http://www.w3.org/2000/svg" xmlns:xlink="http://www.w3.org/1999/xlink" x="0px" y="0px"
	 viewBox="0 0 564 420" style="enable-background:new 0 0 564 420;" xml:space="preserve">
<style type="text/css">
	.st0{fill:#333333;}
	.st1{fill:url(#SVGID_1_);}
	.st2{fill:url(#SVGID_2_);}
	.st3{fill:url(#SVGID_3_);}
	.st4{fill:url(#SVGID_4_);}
	.st5{fill:url(#SVGID_5_);}
	.st6{fill:url(#SVGID_6_);}
	.st7{fill:url(#SVGID_7_);}
	.st8{fill:url(#SVGID_8_);}
	.st9{fill:url(#SVGID_9_);}
	.st10{fill:#E9E9E9;}
	.st11{fill:url(#SVGID_10_);}
	.st12{fill:#FFFFFF;}
	.st13{fill:#010101;}
	.st14{fill:#989898;}
	.st15{fill:#FFFFFF;stroke:#CDCCCC;stroke-miterlimit:10;}
	.st16{fill:#0052CC;}
	.st17{fill:#717171;}
	.st18{fill:none;stroke:#CDCCCC;stroke-width:1.139;stroke-miterlimit:10;}
	.st19{fill:#00B8D9;}
	.st20{fill:#57D9A3;}
</style>
<g>
	<path class="st0" d="M310.1,373.7c0-1.1-1-1.5-1.8-1.5c-0.6,0-1.6,0.2-1.6,1.3c0,0.6,0.4,0.8,0.8,0.9l2,0.5
		c0.9,0.2,1.6,0.8,1.6,1.9c0,1.7-1.6,2.2-2.8,2.2c-1.3,0-1.8-0.4-2.2-0.7c-0.6-0.5-0.7-1.1-0.7-1.8h0.9c0,1.3,1.1,1.7,2,1.7
		c0.7,0,1.9-0.2,1.9-1.2c0-0.7-0.3-1-1.5-1.3l-1.5-0.3c-0.5-0.1-1.5-0.4-1.5-1.7c0-1.1,0.7-2.2,2.5-2.2c2.5,0,2.8,1.5,2.8,2.3
		L310.1,373.7L310.1,373.7z"/>
	<path class="st0" d="M312.3,373.5h0.8v0.7c0.2-0.3,0.6-0.9,1.6-0.9c1.4,0,2.2,1.1,2.2,2.6c0,1.2-0.5,2.9-2.3,2.9
		c-0.7,0-1.2-0.3-1.4-0.7v2.6h-0.9L312.3,373.5 M314.5,378.1c1,0,1.4-0.9,1.4-2c0-0.7-0.1-2-1.4-2s-1.4,1.4-1.4,2.2
		C313.1,377.8,314,378.1,314.5,378.1"/>
	<path class="st0" d="M318.9,378.8H318v-5.2h0.8v0.9c0.3-0.6,0.8-1,1.5-1c0.1,0,0.2,0,0.2,0v0.9h-0.3c-0.8,0-1.3,0.6-1.3,1.4
		L318.9,378.8"/>
	<path class="st0" d="M321.4,372.6v-1h0.9v1H321.4 M322.3,378.8h-0.9v-5.2h0.9V378.8"/>
	<path class="st0" d="M327.8,378.8H327v-3.2c0-0.9-0.3-1.4-1.1-1.4c-0.5,0-1.4,0.3-1.4,1.7v2.8h-0.9v-5.2h0.8v0.7
		c0.2-0.3,0.7-0.9,1.6-0.9c0.8,0,1.8,0.3,1.8,1.8V378.8"/>
	<path class="st0" d="M330.2,374.3v3.4c0,0.4,0.3,0.4,0.5,0.4h0.3v0.7c-0.3,0-0.6,0.1-0.7,0.1c-0.9,0-1.1-0.5-1.1-1.1v-3.4h-0.7
		v-0.7h0.7v-1.5h0.9v1.5h0.8v0.7h-0.7L330.2,374.3z"/>
	<path class="st0" d="M334.5,374.1c0-1.3,0.8-2.4,2.3-2.4c2.2,0,2.5,2.1,2.5,3.3c0,0.8-0.1,4-2.5,4c-1.6,0-2.1-1.2-2.1-1.9h0.9
		c0,0.7,0.5,1.1,1.2,1.1c1,0,1.5-0.8,1.7-2.6c-0.3,0.5-1,0.8-1.6,0.8C335.4,376.4,334.5,375.5,334.5,374.1 M338.2,374
		c0-0.8-0.4-1.5-1.4-1.5c-0.8,0-1.4,0.6-1.4,1.6c0,1.3,0.8,1.5,1.4,1.5C337.3,375.6,338.2,375.4,338.2,374"/>
	<path class="st0" d="M232.2,315.7c0-1.1-1-1.5-1.8-1.5c-0.6,0-1.6,0.2-1.6,1.3c0,0.6,0.4,0.8,0.8,0.9l2,0.5
		c0.9,0.2,1.6,0.8,1.6,1.9c0,1.7-1.6,2.2-2.8,2.2c-1.3,0-1.8-0.4-2.2-0.7c-0.6-0.5-0.7-1.1-0.7-1.8h0.9c0,1.3,1.1,1.7,2,1.7
		c0.7,0,1.9-0.2,1.9-1.2c0-0.7-0.3-1-1.5-1.3l-1.5-0.3c-0.5-0.1-1.5-0.4-1.5-1.7c0-1.1,0.7-2.2,2.5-2.2c2.5,0,2.8,1.5,2.8,2.3
		L232.2,315.7L232.2,315.7z"/>
	<path class="st0" d="M234.4,315.5h0.8v0.7c0.2-0.3,0.6-0.9,1.6-0.9c1.4,0,2.2,1.1,2.2,2.6c0,1.2-0.5,2.9-2.3,2.9
		c-0.7,0-1.2-0.3-1.4-0.7v2.6h-0.9L234.4,315.5 M236.7,320.1c1,0,1.4-0.9,1.4-2c0-0.7-0.1-2-1.4-2c-1.3,0-1.4,1.4-1.4,2.2
		C235.2,319.8,236.1,320.1,236.7,320.1"/>
	<path class="st0" d="M241,320.8h-0.9v-5.2h0.8v0.9c0.3-0.6,0.8-1,1.5-1c0.1,0,0.2,0,0.2,0v0.9h-0.3c-0.8,0-1.3,0.6-1.3,1.4V320.8"
		/>
	<path class="st0" d="M243.5,314.6v-1h0.9v1H243.5 M244.4,320.8h-0.9v-5.2h0.9V320.8"/>
	<path class="st0" d="M250,320.8h-0.9v-3.2c0-0.9-0.3-1.4-1.1-1.4c-0.5,0-1.4,0.3-1.4,1.7v2.8h-0.9v-5.2h0.8v0.7
		c0.2-0.3,0.7-0.9,1.6-0.9c0.8,0,1.8,0.3,1.8,1.8L250,320.8L250,320.8z"/>
	<path class="st0" d="M252.4,316.3v3.4c0,0.4,0.3,0.4,0.5,0.4h0.3v0.7c-0.3,0-0.6,0.1-0.7,0.1c-0.9,0-1.1-0.5-1.1-1.1v-3.4h-0.7
		v-0.7h0.7v-1.5h0.9v1.5h0.8v0.7h-0.7V316.3z"/>
	<path class="st0" d="M260.2,317c1,0.4,1.1,1.2,1.1,1.7c0,1.1-0.7,2.2-2.4,2.2c-0.4,0-1.1-0.1-1.7-0.5c-0.7-0.6-0.7-1.3-0.7-1.7
		c0-0.9,0.5-1.4,1.2-1.7c-0.6-0.2-0.9-0.7-0.9-1.4c0-0.7,0.4-1.9,2.1-1.9c1.6,0,2.2,1,2.2,1.8C261.1,316.5,260.5,316.9,260.2,317
		 M257.5,318.8c0,0.6,0.3,1.4,1.5,1.4c0.6,0,1.4-0.2,1.4-1.3c0-1-0.7-1.4-1.5-1.4C258,317.5,257.5,318.1,257.5,318.8 M260.2,315.6
		c0-0.4-0.3-1-1.3-1c-0.9,0-1.2,0.7-1.2,1.1c0,0.7,0.6,1.1,1.2,1.1C259.7,316.7,260.2,316.2,260.2,315.6"/>
	<path class="st0" d="M155.2,286.5c0-1.1-1-1.5-1.8-1.5c-0.6,0-1.6,0.2-1.6,1.3c0,0.6,0.4,0.8,0.8,0.9l2,0.5
		c0.9,0.2,1.6,0.8,1.6,1.9c0,1.7-1.6,2.2-2.8,2.2c-1.3,0-1.8-0.4-2.2-0.7c-0.6-0.5-0.7-1.1-0.7-1.8h0.9c0,1.3,1.1,1.7,2,1.7
		c0.7,0,1.9-0.2,1.9-1.2c0-0.7-0.3-1-1.5-1.3l-1.5-0.3c-0.5-0.1-1.5-0.4-1.5-1.7c0-1.1,0.7-2.2,2.5-2.2c2.5,0,2.8,1.5,2.8,2.3
		L155.2,286.5L155.2,286.5z"/>
	<path class="st0" d="M157.4,286.4h0.8v0.7c0.2-0.3,0.6-0.9,1.6-0.9c1.4,0,2.2,1.1,2.2,2.6c0,1.2-0.5,2.9-2.3,2.9
		c-0.7,0-1.2-0.3-1.4-0.7v2.6h-0.9L157.4,286.4 M159.7,291c1,0,1.4-0.9,1.4-2c0-0.7-0.1-2-1.4-2c-1.3,0-1.4,1.4-1.4,2.2
		C158.2,290.6,159.1,291,159.7,291"/>
	<path class="st0" d="M164,291.6h-0.9v-5.2h0.8v0.9c0.3-0.6,0.8-1,1.5-1c0.1,0,0.2,0,0.2,0v0.9h-0.3c-0.8,0-1.3,0.6-1.3,1.4V291.6"
		/>
	<path class="st0" d="M166.5,285.4v-1h0.9v1H166.5 M167.4,291.6h-0.9v-5.2h0.9V291.6"/>
	<path class="st0" d="M173,291.6h-0.9v-3.2c0-0.9-0.3-1.4-1.1-1.4c-0.5,0-1.4,0.3-1.4,1.7v2.8h-0.9v-5.2h0.8v0.7
		c0.2-0.3,0.7-0.9,1.6-0.9c0.8,0,1.8,0.3,1.8,1.8L173,291.6L173,291.6z"/>
	<path class="st0" d="M175.4,287.1v3.4c0,0.4,0.3,0.4,0.5,0.4h0.3v0.7c-0.3,0-0.6,0.1-0.7,0.1c-0.9,0-1.1-0.5-1.1-1.1v-3.4h-0.7
		v-0.7h0.7V285h0.9v1.5h0.8v0.7h-0.7V287.1z"/>
	<path class="st0" d="M179.6,284.7h4.9v0.8c-0.7,0.7-2.4,3-2.9,6.1h-1c0.2-1.9,1.5-4.4,2.9-6h-3.9V284.7"/>
	<path class="st0" d="M75.1,293.4c-2.7,0-3.5-2.2-3.5-3.8s0.8-3.8,3.5-3.8s3.5,2.2,3.5,3.8S77.8,293.4,75.1,293.4 M75.1,286.7
		c-1.6,0-2.5,1.2-2.5,2.9c0,1.7,0.9,2.9,2.5,2.9s2.5-1.2,2.5-2.9C77.6,287.9,76.7,286.7,75.1,286.7"/>
	<path class="st0" d="M80.7,293.2h-0.9V288h0.8v0.9c0.3-0.6,0.8-1,1.5-1c0.1,0,0.2,0,0.2,0v0.9H82c-0.8,0-1.3,0.6-1.3,1.4
		L80.7,293.2"/>
	<path class="st0" d="M83.2,287v-1H84v1H83.2 M84,293.2h-0.9V288H84V293.2"/>
	<path class="st0" d="M89.7,292.7c0,0.8,0,2.6-2.4,2.6c-0.6,0-1.8-0.2-2-1.6h0.9c0.2,0.8,1,0.8,1.2,0.8c1.5,0,1.5-1.2,1.5-1.8v-0.2
		c-0.2,0.4-0.7,0.7-1.4,0.7c-1.8,0-2.3-1.7-2.3-2.9c0-1.5,0.8-2.6,2.2-2.6c0.9,0,1.3,0.6,1.6,0.9v-0.7h0.8L89.7,292.7L89.7,292.7z
		 M87.4,292.6c0.6,0,1.4-0.4,1.4-1.8c0-0.8-0.1-2.2-1.4-2.2c-1.4,0-1.4,1.3-1.4,2C86,291.7,86.5,292.6,87.4,292.6"/>
	<path class="st0" d="M90.9,287v-1h0.9v1H90.9 M91.8,293.2h-0.9V288h0.9V293.2"/>
	<path class="st0" d="M97.4,293.2h-0.9V290c0-0.9-0.3-1.4-1.1-1.4c-0.5,0-1.4,0.3-1.4,1.7v2.8h-0.9v-5.2H94v0.7
		c0.2-0.3,0.7-0.9,1.6-0.9c0.8,0,1.8,0.3,1.8,1.8V293.2"/>
	<path class="st0" d="M98.7,289.5c0-1.2,0.9-1.7,2.2-1.7c0.4,0,1.9,0.1,1.9,1.5v3c0,0.2,0.1,0.3,0.3,0.3c0.1,0,0.2,0,0.3,0v0.6
		c-0.2,0-0.3,0.1-0.5,0.1c-0.8,0-0.9-0.4-0.9-0.8c-0.3,0.4-0.9,0.8-1.9,0.8s-1.6-0.6-1.6-1.5c0-0.4,0.1-1.5,1.6-1.6l1.4-0.2
		c0.2,0,0.5-0.1,0.5-0.6s-0.4-0.8-1.2-0.8c-1,0-1.1,0.6-1.2,1L98.7,289.5L98.7,289.5z M101.9,290.5c-0.1,0.1-0.4,0.2-1.4,0.3
		c-0.4,0.1-1.1,0.2-1.1,0.8c0,0.6,0.3,0.9,0.9,0.9c0.8,0,1.6-0.5,1.6-1.2V290.5"/>
	<path class="st0" d="M105.2,293.2h-0.9V286h0.9V293.2"/>
	<path class="st0" d="M69.3,302.5c0,0.2-0.3,1-0.9,1.4c-0.2,0.2-0.6,0.4-1.4,0.4c-1.5,0-2.3-1.1-2.3-2.6c0-1.6,0.8-2.9,2.5-2.9
		c1.5,0,2.2,1.2,2.2,3h-3.8c0,1.1,0.5,1.7,1.5,1.7c0.8,0,1.3-0.6,1.3-1H69.3 M68.4,301.1c0-0.8-0.4-1.6-1.5-1.6
		c-0.8,0-1.4,0.7-1.4,1.6H68.4"/>
	<path class="st0" d="M73.4,300.4c0-0.3-0.1-0.9-1.2-0.9c-0.3,0-1,0.1-1,0.7c0,0.4,0.3,0.5,0.9,0.7l0.9,0.2c1.1,0.3,1.5,0.7,1.5,1.4
		c0,1.1-0.9,1.7-2.1,1.7c-2.1,0-2.2-1.2-2.2-1.8H71c0,0.4,0.2,1.1,1.4,1.1c0.6,0,1.2-0.2,1.2-0.8c0-0.4-0.3-0.6-1-0.8l-1-0.2
		c-0.7-0.2-1.2-0.5-1.2-1.3c0-1.1,1-1.7,2-1.7c1.9,0,2,1.4,2,1.6L73.4,300.4L73.4,300.4z"/>
	<path class="st0" d="M76.5,299.7v3.4c0,0.4,0.4,0.4,0.5,0.4h0.3v0.7c-0.3,0-0.6,0.1-0.7,0.1c-0.9,0-1.1-0.5-1.1-1.1v-3.4h-0.7v-0.7
		h0.7v-1.5h0.9v1.5h0.8v0.7h-0.7L76.5,299.7z"/>
	<path class="st0" d="M78.2,298v-1h0.9v1H78.2 M79.1,304.2h-0.9V299h0.9V304.2"/>
	<path class="st0" d="M80.4,298.9h0.8v0.7c0.2-0.3,0.6-0.9,1.6-0.9s1.2,0.6,1.4,0.8c0.4-0.5,0.8-0.8,1.6-0.8c0.6,0,1.6,0.3,1.6,1.8
		v3.6h-0.9v-3.4c0-0.7-0.2-1.2-1-1.2c-0.7,0-1.2,0.7-1.2,1.4v3.2h-0.9v-3.6c0-0.4-0.2-1-0.8-1c-0.5,0-1.4,0.3-1.4,1.7v2.8h-0.9v-5.1
		H80.4z"/>
	<path class="st0" d="M88.7,300.5c0-1.2,0.9-1.7,2.2-1.7c0.4,0,1.9,0.1,1.9,1.5v3c0,0.2,0.1,0.3,0.3,0.3c0.1,0,0.2,0,0.3,0v0.6
		c-0.1,0-0.3,0.1-0.5,0.1c-0.8,0-0.9-0.4-0.9-0.8c-0.3,0.4-0.9,0.8-1.9,0.8s-1.6-0.6-1.6-1.5c0-0.4,0.1-1.5,1.6-1.6l1.4-0.2
		c0.2,0,0.5-0.1,0.5-0.6s-0.4-0.8-1.2-0.8c-1,0-1.1,0.6-1.2,1L88.7,300.5L88.7,300.5z M91.9,301.5c-0.1,0.1-0.4,0.2-1.4,0.3
		c-0.4,0.1-1.1,0.2-1.1,0.8c0,0.6,0.3,0.9,0.9,0.9c0.8,0,1.6-0.5,1.6-1.2V301.5"/>
	<path class="st0" d="M95.4,299.7v3.4c0,0.4,0.4,0.4,0.5,0.4h0.3v0.7c-0.3,0-0.6,0.1-0.7,0.1c-0.9,0-1.1-0.5-1.1-1.1v-3.4h-0.7v-0.7
		h0.7v-1.5h0.9v1.5h0.8v0.7h-0.7L95.4,299.7z"/>
	<path class="st0" d="M101.3,302.5c0,0.2-0.3,1-0.9,1.4c-0.2,0.2-0.6,0.4-1.4,0.4c-1.5,0-2.3-1.1-2.3-2.6c0-1.6,0.8-2.9,2.5-2.9
		c1.5,0,2.2,1.2,2.2,3h-3.8c0,1.1,0.5,1.7,1.5,1.7c0.8,0,1.3-0.6,1.3-1H101.3 M100.5,301.1c0-0.8-0.4-1.6-1.5-1.6
		c-0.8,0-1.4,0.7-1.4,1.6H100.5"/>
	<path class="st0" d="M105.2,300.5c0-1.2,0.9-1.7,2.2-1.7c0.4,0,1.9,0.1,1.9,1.5v3c0,0.2,0.1,0.3,0.3,0.3c0.1,0,0.2,0,0.3,0v0.6
		c-0.2,0-0.3,0.1-0.5,0.1c-0.8,0-0.9-0.4-0.9-0.8c-0.3,0.4-0.9,0.8-1.9,0.8s-1.6-0.6-1.6-1.5c0-0.4,0.1-1.5,1.6-1.6l1.4-0.2
		c0.2,0,0.5-0.1,0.5-0.6s-0.4-0.8-1.2-0.8c-1,0-1.1,0.6-1.2,1L105.2,300.5L105.2,300.5z M108.4,301.5c-0.1,0.1-0.4,0.2-1.4,0.3
		c-0.4,0.1-1.1,0.2-1.1,0.8c0,0.6,0.3,0.9,0.9,0.9c0.8,0,1.6-0.5,1.6-1.2V301.5"/>
	<path class="st0" d="M111.8,299.7v3.4c0,0.4,0.3,0.4,0.5,0.4h0.3v0.7c-0.3,0-0.6,0.1-0.7,0.1c-0.9,0-1.1-0.5-1.1-1.1v-3.4h-0.7
		v-0.7h0.7v-1.5h0.9v1.5h0.8v0.7h-0.7L111.8,299.7z"/>
	<path class="st0" d="M76.7,311.4c0-0.3-0.1-0.9-1.2-0.9c-0.3,0-1,0.1-1,0.7c0,0.4,0.3,0.5,0.9,0.7l0.9,0.2c1.1,0.3,1.5,0.7,1.5,1.4
		c0,1.1-0.9,1.7-2.1,1.7c-2.1,0-2.2-1.2-2.2-1.8h0.8c0,0.4,0.1,1.1,1.4,1.1c0.6,0,1.2-0.2,1.2-0.8c0-0.4-0.3-0.6-1-0.8l-1-0.2
		c-0.7-0.2-1.2-0.5-1.2-1.3c0-1.1,0.9-1.7,2-1.7c1.9,0,2,1.4,2,1.6L76.7,311.4L76.7,311.4z"/>
	<path class="st0" d="M79.8,310.7v3.4c0,0.4,0.3,0.4,0.5,0.4h0.3v0.7c-0.3,0-0.6,0.1-0.7,0.1c-0.9,0-1.1-0.5-1.1-1.1v-3.4h-0.7v-0.7
		H79v-1.5h0.9v1.5h0.8v0.7h-0.9L79.8,310.7z"/>
	<path class="st0" d="M81.4,311.5c0-1.2,0.9-1.7,2.2-1.7c0.4,0,1.9,0.1,1.9,1.5v3c0,0.2,0.1,0.3,0.3,0.3c0.1,0,0.2,0,0.3,0v0.6
		c-0.1,0-0.3,0.1-0.5,0.1c-0.8,0-0.9-0.4-0.9-0.8c-0.3,0.4-0.9,0.8-1.9,0.8s-1.6-0.6-1.6-1.5c0-0.4,0.1-1.5,1.6-1.6l1.4-0.2
		c0.2,0,0.5-0.1,0.5-0.6s-0.4-0.8-1.2-0.8c-1,0-1.1,0.6-1.2,1L81.4,311.5L81.4,311.5z M84.6,312.5c-0.1,0.1-0.4,0.2-1.4,0.3
		c-0.4,0.1-1.1,0.2-1.1,0.8c0,0.6,0.3,0.9,0.9,0.9c0.8,0,1.6-0.5,1.6-1.2V312.5"/>
	<path class="st0" d="M88,315.2h-0.9V310h0.8v0.9c0.3-0.6,0.8-1,1.5-1c0.1,0,0.2,0,0.2,0v0.9h-0.3c-0.8,0-1.3,0.6-1.3,1.4L88,315.2"
		/>
	<path class="st0" d="M91.8,310.7v3.4c0,0.4,0.3,0.4,0.5,0.4h0.3v0.7c-0.3,0-0.6,0.1-0.7,0.1c-0.9,0-1.1-0.5-1.1-1.1v-3.4h-0.7v-0.7
		h0.7v-1.5h0.9v1.5h0.8v0.7h-0.7L91.8,310.7z"/>
	<path class="st0" d="M98.4,309.8c1.7,0,2.4,1.4,2.4,2.8c0,1.3-0.8,2.8-2.4,2.8c-1.7,0-2.4-1.4-2.4-2.8S96.7,309.8,98.4,309.8
		 M98.4,314.5c1.3,0,1.5-1.3,1.5-2s-0.3-2-1.5-2c-1.3,0-1.5,1.3-1.5,2S97.2,314.5,98.4,314.5"/>
	<path class="st0" d="M102.9,310.7v4.5H102v-4.5h-0.7V310h0.7v-1c0-0.8,0.5-1.1,1.4-1.1c0.1,0,0.3,0,0.4,0v0.8c-0.1,0-0.2,0-0.4,0
		c-0.4,0-0.5,0.2-0.5,0.6v0.7h0.9v0.7H102.9"/>
	<path class="st0" d="M76.6,320.9h1l-2,5.2h-0.9l-1.9-5.2h1l1.4,4.3L76.6,320.9"/>
	<path class="st0" d="M82.5,324.5c0,0.2-0.3,1-0.9,1.4c-0.2,0.2-0.6,0.4-1.4,0.4c-1.5,0-2.3-1.1-2.3-2.6c0-1.6,0.8-2.9,2.5-2.9
		c1.5,0,2.2,1.2,2.2,3h-3.8c0,1.1,0.5,1.7,1.5,1.7c0.8,0,1.3-0.6,1.3-1H82.5 M81.6,323.1c0-0.8-0.4-1.6-1.5-1.6
		c-0.8,0-1.4,0.7-1.4,1.6H81.6"/>
	<path class="st0" d="M84.6,326.2h-0.9V321h0.8v0.9c0.3-0.6,0.8-1,1.5-1c0.1,0,0.2,0,0.2,0v0.9h-0.3c-0.8,0-1.3,0.6-1.3,1.4
		L84.6,326.2"/>
	<path class="st0" d="M89.7,322.4c0-0.3-0.1-0.9-1.2-0.9c-0.3,0-1,0.1-1,0.7c0,0.4,0.3,0.5,0.9,0.7l0.9,0.2c1.1,0.3,1.5,0.7,1.5,1.4
		c0,1.1-0.9,1.7-2.1,1.7c-2.1,0-2.2-1.2-2.2-1.8h0.8c0,0.4,0.1,1.1,1.4,1.1c0.6,0,1.2-0.2,1.2-0.8c0-0.4-0.3-0.6-1-0.8l-1-0.2
		c-0.7-0.2-1.2-0.5-1.2-1.3c0-1.1,0.9-1.7,2-1.7c1.9,0,2,1.4,2,1.6L89.7,322.4L89.7,322.4z"/>
	<path class="st0" d="M91.8,320v-1h0.9v1H91.8 M92.6,326.2h-0.9V321h0.9V326.2"/>
	<path class="st0" d="M96.1,320.8c1.7,0,2.4,1.4,2.4,2.8c0,1.3-0.8,2.8-2.4,2.8c-1.7,0-2.4-1.4-2.4-2.8S94.4,320.8,96.1,320.8
		 M96.1,325.5c1.3,0,1.5-1.3,1.5-2s-0.3-2-1.5-2c-1.3,0-1.5,1.3-1.5,2S94.8,325.5,96.1,325.5"/>
	<path class="st0" d="M103.8,326.2h-0.9V323c0-0.9-0.3-1.4-1.1-1.4c-0.5,0-1.4,0.3-1.4,1.7v2.8h-0.9v-5.2h0.8v0.7
		c0.2-0.3,0.7-0.9,1.6-0.9c0.8,0,1.8,0.3,1.8,1.8L103.8,326.2L103.8,326.2z"/>
	<path class="st0" d="M378.9,372.3l1,0.4v-1.1h0.6v1.1l1-0.4l0.2,0.5l-1.1,0.3l0.7,0.9l-0.5,0.3l-0.6-0.9l-0.6,0.9l-0.5-0.3l0.7-0.9
		l-1.1-0.3L378.9,372.3"/>
	<path class="st0" d="M387.3,373.7c0-1.1-1-1.5-1.8-1.5c-0.6,0-1.6,0.2-1.6,1.3c0,0.6,0.4,0.8,0.8,0.9l2,0.5
		c0.9,0.2,1.6,0.8,1.6,1.9c0,1.7-1.6,2.2-2.8,2.2c-1.3,0-1.8-0.4-2.2-0.7c-0.6-0.5-0.7-1.1-0.7-1.8h0.9c0,1.3,1.1,1.7,2,1.7
		c0.7,0,1.9-0.2,1.9-1.2c0-0.7-0.3-1-1.5-1.3l-1.5-0.3c-0.5-0.1-1.5-0.4-1.5-1.7c0-1.1,0.7-2.2,2.5-2.2c2.5,0,2.8,1.5,2.8,2.3
		L387.3,373.7L387.3,373.7z"/>
	<path class="st0" d="M389.4,373.5h0.8v0.7c0.2-0.3,0.6-0.9,1.6-0.9c1.4,0,2.2,1.1,2.2,2.6c0,1.2-0.5,2.9-2.3,2.9
		c-0.7,0-1.2-0.3-1.4-0.7v2.6h-0.9L389.4,373.5 M391.7,378.1c1,0,1.4-0.9,1.4-2c0-0.7-0.1-2-1.4-2s-1.4,1.4-1.4,2.2
		C390.3,377.8,391.1,378.1,391.7,378.1"/>
	<path class="st0" d="M396.1,378.8h-0.9v-5.2h0.8v0.9c0.3-0.6,0.8-1,1.5-1c0.1,0,0.2,0,0.2,0v0.9h-0.3c-0.8,0-1.3,0.6-1.3,1.4
		L396.1,378.8"/>
	<path class="st0" d="M398.6,372.6v-1h0.9v1H398.6 M399.4,378.8h-0.9v-5.2h0.9V378.8"/>
	<path class="st0" d="M405,378.8h-0.9v-3.2c0-0.9-0.3-1.4-1.1-1.4c-0.5,0-1.4,0.3-1.4,1.7v2.8h-0.9v-5.2h0.8v0.7
		c0.2-0.3,0.7-0.9,1.6-0.9c0.8,0,1.8,0.3,1.8,1.8v3.7H405z"/>
	<path class="st0" d="M407.4,374.3v3.4c0,0.4,0.3,0.4,0.5,0.4h0.3v0.7c-0.3,0-0.6,0.1-0.7,0.1c-0.9,0-1.1-0.5-1.1-1.1v-3.4h-0.7
		v-0.7h0.7v-1.5h0.9v1.5h0.8v0.7h-0.7L407.4,374.3z"/>
	<path class="st0" d="M414.8,378.8h-0.9v-5h-1.6v-0.7c1.1-0.1,1.6-0.2,1.9-1.3h0.7v7H414.8z"/>
	<path class="st0" d="M419,378.9c-2,0-2.4-2.1-2.4-3.6s0.4-3.6,2.4-3.6s2.4,2.1,2.4,3.6S421,378.9,419,378.9 M419,372.5
		c-1,0-1.5,1.1-1.5,2.8c0,1.8,0.5,2.8,1.5,2.8s1.5-1.1,1.5-2.8C420.5,373.6,420,372.5,419,372.5"/>
	<path class="st0" d="M426.6,401.3c-0.1-1.1-1-1.5-1.8-1.5c-0.6,0-1.6,0.2-1.6,1.3c0,0.6,0.4,0.8,0.8,0.9l2,0.5
		c0.9,0.2,1.6,0.8,1.6,1.9c0,1.7-1.6,2.2-2.8,2.2c-1.3,0-1.8-0.4-2.2-0.7c-0.6-0.5-0.7-1.1-0.7-1.8h0.9c0,1.3,1.1,1.7,2,1.7
		c0.7,0,1.9-0.2,1.9-1.2c0-0.7-0.3-1-1.5-1.3l-1.5-0.3c-0.5-0.1-1.5-0.4-1.5-1.7c0-1.1,0.7-2.2,2.5-2.2c2.5,0,2.8,1.5,2.8,2.3
		L426.6,401.3L426.6,401.3z"/>
	<path class="st0" d="M428.8,401.2h0.8v0.7c0.2-0.3,0.6-0.9,1.6-0.9c1.4,0,2.2,1.1,2.2,2.6c0,1.2-0.5,2.9-2.3,2.9
		c-0.7,0-1.2-0.3-1.4-0.7v2.6h-0.9L428.8,401.2 M431.1,405.8c1,0,1.4-0.9,1.4-2c0-0.7-0.1-2-1.4-2s-1.4,1.4-1.4,2.2
		C429.6,405.4,430.5,405.8,431.1,405.8"/>
	<path class="st0" d="M435.4,406.4h-0.9v-5.2h0.8v0.9c0.3-0.6,0.8-1,1.5-1c0.1,0,0.2,0,0.2,0v0.9h-0.3c-0.8,0-1.3,0.6-1.3,1.4
		L435.4,406.4"/>
	<path class="st0" d="M437.9,400.2v-1h0.9v1H437.9 M438.8,406.4h-0.9v-5.2h0.9V406.4"/>
	<path class="st0" d="M444.4,406.4h-0.9v-3.2c0-0.9-0.3-1.4-1.1-1.4c-0.5,0-1.4,0.3-1.4,1.7v2.8h-0.9v-5.2h0.8v0.7
		c0.2-0.3,0.7-0.9,1.6-0.9c0.8,0,1.8,0.3,1.8,1.8v3.7H444.4z"/>
	<path class="st0" d="M446.8,401.9v3.4c0,0.4,0.4,0.4,0.5,0.4h0.3v0.7c-0.3,0-0.6,0.1-0.7,0.1c-0.9,0-1.1-0.5-1.1-1.1V402h-0.7v-0.7
		h0.7v-1.5h0.9v1.5h0.8v0.7h-0.7L446.8,401.9z"/>
	<path class="st0" d="M451.4,402.6c0-0.3-0.1-0.9-1.2-0.9c-0.3,0-1,0.1-1,0.7c0,0.4,0.3,0.5,0.9,0.7l0.9,0.2
		c1.1,0.3,1.5,0.7,1.5,1.4c0,1.1-0.9,1.7-2.1,1.7c-2.1,0-2.2-1.2-2.2-1.8h0.8c0,0.4,0.2,1.1,1.4,1.1c0.6,0,1.2-0.2,1.2-0.8
		c0-0.4-0.3-0.6-1-0.8l-1-0.2c-0.7-0.2-1.2-0.5-1.2-1.3c0-1.1,0.9-1.7,2-1.7c1.9,0,2,1.4,2,1.6L451.4,402.6L451.4,402.6z"/>
	<path class="st0" d="M3.9,218.4c-1.1,0-1.5,1-1.5,1.8c0,0.6,0.2,1.6,1.3,1.6c0.6,0,0.8-0.4,0.9-0.8l0.5-2c0.2-0.9,0.8-1.6,1.9-1.6
		c1.7,0,2.2,1.6,2.2,2.8c0,1.3-0.4,1.8-0.7,2.2C8,222.9,7.4,223,6.7,223v-0.9c1.3,0,1.7-1.1,1.7-2c0-0.7-0.2-1.9-1.2-1.9
		c-0.8,0-1,0.4-1.3,1.5l-0.3,1.5c-0.1,0.5-0.4,1.5-1.7,1.5c-1.1,0-2.2-0.7-2.2-2.5c0-2.5,1.5-2.8,2.3-2.8L3.9,218.4L3.9,218.4z"/>
	<path class="st0" d="M4.5,215.1h3.4c0.4,0,0.4-0.3,0.4-0.5v-0.3H9c0,0.3,0.1,0.6,0.1,0.7c0,0.9-0.5,1.1-1.1,1.1H4.5v0.7H3.8V216
		H2.3v-0.9h1.5v-0.8h0.7V215.1"/>
	<path class="st0" d="M3.6,211.5c0-1.7,1.4-2.4,2.8-2.4c1.3,0,2.8,0.8,2.8,2.4c0,1.7-1.4,2.4-2.8,2.4C5.1,213.9,3.6,213.1,3.6,211.5
		 M8.4,211.5c0-1.3-1.3-1.5-2-1.5s-2,0.3-2,1.5c0,1.3,1.3,1.5,2,1.5S8.4,212.7,8.4,211.5"/>
	<path class="st0" d="M9,207v0.9H3.8v-0.8h0.9c-0.6-0.3-1-0.8-1-1.5c0-0.1,0-0.2,0-0.2h0.9v0.3c0,0.8,0.6,1.3,1.4,1.3H9"/>
	<path class="st0" d="M3.8,201.1v-1c1.7,0.6,3.4,1.2,5.1,1.9c2.1,0.8,2.2,0.9,2.2,2c0,0.1,0,0.2-0.1,0.4h-0.8c0-0.1,0.1-0.3,0.1-0.5
		c0-0.5-0.1-0.5-1.2-0.9l-5.3,2v-1l4.3-1.4L3.8,201.1"/>
	<path class="st0" d="M3.8,196.7v-0.8h0.7c-0.3-0.2-0.9-0.6-0.9-1.6c0-1.4,1.1-2.2,2.6-2.2c1.2,0,2.9,0.5,2.9,2.3
		c0,0.7-0.3,1.2-0.7,1.4H11v0.9L3.8,196.7 M8.4,194.4c0-1-0.9-1.4-2-1.4c-0.7,0-2,0.1-2,1.4c0,1.3,1.4,1.4,2.2,1.4
		C8,195.9,8.4,195,8.4,194.4"/>
	<path class="st0" d="M3.6,188.9c0-1.7,1.4-2.4,2.8-2.4c1.3,0,2.8,0.8,2.8,2.4c0,1.7-1.4,2.4-2.8,2.4C5.1,191.4,3.6,190.6,3.6,188.9
		 M8.4,188.9c0-1.3-1.3-1.5-2-1.5s-2,0.3-2,1.5s1.3,1.5,2,1.5C7.1,190.5,8.4,190.2,8.4,188.9"/>
	<path class="st0" d="M2.8,185.5h-1v-0.9h1V185.5 M9,184.6v0.9H3.8v-0.9H9"/>
	<path class="st0" d="M9,179v0.9H5.8c-0.9,0-1.4,0.3-1.4,1.1c0,0.5,0.3,1.4,1.7,1.4H9v0.9H3.8v-0.8h0.7c-0.3-0.2-0.9-0.7-0.9-1.6
		c0-0.8,0.3-1.8,1.8-1.8L9,179L9,179z"/>
	<path class="st0" d="M4.5,176.7h3.4c0.4,0,0.4-0.4,0.4-0.5v-0.3H9c0,0.3,0.1,0.6,0.1,0.7c0,0.9-0.5,1.1-1.1,1.1H4.5v0.7H3.8v-0.7
		H2.3v-0.9h1.5V176h0.7V176.7"/>
	<path class="st0" d="M5.3,172c-0.3,0-0.9,0.1-0.9,1.2c0,0.3,0.1,1,0.7,1c0.4,0,0.5-0.3,0.7-0.9l0.2-0.9c0.3-1.1,0.7-1.5,1.4-1.5
		c1.1,0,1.7,0.9,1.7,2.1c0,2.1-1.2,2.2-1.8,2.2v-0.8c0.4,0,1.1-0.1,1.1-1.4c0-0.6-0.2-1.2-0.8-1.2c-0.4,0-0.6,0.3-0.7,1l-0.2,1
		c-0.2,0.7-0.5,1.2-1.3,1.2c-1.1,0-1.7-0.9-1.7-2c0-1.9,1.4-2,1.6-2L5.3,172"/>
	<path class="st0" d="M462.9,371.6h0.9v7.2h-1.1l-3.6-5.8v5.8h-0.9v-7.2h1.1l3.6,5.8V371.6"/>
	<path class="st0" d="M469.7,377.1c0,0.2-0.3,1-0.9,1.4c-0.2,0.2-0.6,0.4-1.4,0.4c-1.5,0-2.3-1.1-2.3-2.6c0-1.6,0.8-2.9,2.5-2.9
		c1.5,0,2.2,1.2,2.2,3H466c0,1.1,0.5,1.7,1.5,1.7c0.8,0,1.3-0.6,1.3-1H469.7 M468.9,375.7c0-0.8-0.4-1.6-1.5-1.6
		c-0.8,0-1.4,0.8-1.4,1.6H468.9"/>
	<path class="st0" d="M474.8,378.8h-1.1l-1.3-2l-1.3,2H470l1.8-2.7l-1.7-2.5h1.1l1.2,1.8l1.2-1.8h1.1l-1.8,2.5L474.8,378.8"/>
	<path class="st0" d="M476.6,374.3v3.4c0,0.4,0.3,0.4,0.5,0.4h0.3v0.7c-0.3,0-0.6,0.1-0.7,0.1c-0.9,0-1.1-0.5-1.1-1.1v-3.4H475v-0.7
		h0.7v-1.5h0.9v1.5h0.8v0.7h-0.8L476.6,374.3z"/>
	<path class="st0" d="M484.1,375c0-0.3-0.1-0.9-1.2-0.9c-0.3,0-1,0.1-1,0.7c0,0.4,0.3,0.5,0.9,0.7l0.9,0.2c1.1,0.3,1.5,0.7,1.5,1.4
		c0,1.1-0.9,1.7-2.1,1.7c-2.1,0-2.2-1.2-2.2-1.8h0.8c0,0.4,0.2,1.1,1.4,1.1c0.6,0,1.2-0.2,1.2-0.8c0-0.4-0.3-0.6-1-0.8l-1-0.2
		c-0.7-0.2-1.2-0.5-1.2-1.3c0-1.1,0.9-1.7,2-1.7c1.9,0,2,1.4,2,1.6L484.1,375L484.1,375z"/>
	<path class="st0" d="M486,373.5h0.8v0.7c0.2-0.3,0.6-0.9,1.6-0.9c1.4,0,2.2,1.1,2.2,2.6c0,1.2-0.5,2.9-2.3,2.9
		c-0.7,0-1.2-0.3-1.4-0.7v2.6H486L486,373.5 M488.3,378.1c1,0,1.4-0.9,1.4-2c0-0.7-0.1-2-1.4-2s-1.4,1.4-1.4,2.2
		C486.9,377.8,487.7,378.1,488.3,378.1"/>
	<path class="st0" d="M492.7,378.8h-0.9v-5.2h0.8v0.9c0.3-0.6,0.8-1,1.5-1c0.1,0,0.2,0,0.2,0v0.9H494c-0.8,0-1.3,0.6-1.3,1.4
		L492.7,378.8"/>
	<path class="st0" d="M495.2,372.6v-1h0.9v1H495.2 M496,378.8h-0.9v-5.2h0.9V378.8"/>
	<path class="st0" d="M501.6,378.8h-0.9v-3.2c0-0.9-0.3-1.4-1.1-1.4c-0.5,0-1.4,0.3-1.4,1.7v2.8h-0.9v-5.2h0.8v0.7
		c0.2-0.3,0.7-0.9,1.6-0.9c0.8,0,1.8,0.3,1.8,1.8v3.7H501.6z"/>
	<path class="st0" d="M504,374.3v3.4c0,0.4,0.4,0.4,0.5,0.4h0.3v0.7c-0.3,0-0.6,0.1-0.7,0.1c-0.9,0-1.1-0.5-1.1-1.1v-3.4h-0.7v-0.7
		h0.7v-1.5h0.9v1.5h0.8v0.7H504L504,374.3z"/>
	<path class="st0" d="M30.2,364.8c-0.1-0.5-0.4-0.9-1-0.9c-1.1,0-1.3,1.5-1.3,2.1c0.2-0.3,0.6-0.7,1.3-0.7c0.7,0,1.8,0.4,1.8,1.8
		c0,0.6-0.2,1-0.5,1.4c-0.3,0.3-0.6,0.5-1.4,0.5c-0.4,0-1-0.2-1.4-0.8c-0.3-0.5-0.4-1.2-0.4-2c0-1.2,0.4-3,2.1-3
		c0.6,0,1.6,0.4,1.6,1.5h-0.8L30.2,364.8z M29.2,368.4c0.7,0,1.1-0.5,1.1-1.3c0-0.5-0.3-1.2-1.1-1.2c-0.8,0-1.2,0.6-1.2,1.2
		C28,367.8,28.3,368.4,29.2,368.4"/>
	<path class="st0" d="M30.2,190.8c-0.1-0.5-0.4-0.9-1-0.9c-1.1,0-1.3,1.5-1.3,2.1c0.2-0.3,0.6-0.7,1.3-0.7c0.7,0,1.8,0.4,1.8,1.8
		c0,0.6-0.2,1-0.5,1.4c-0.3,0.3-0.6,0.5-1.4,0.5c-0.4,0-1-0.2-1.4-0.8c-0.3-0.5-0.4-1.2-0.4-2c0-1.2,0.4-3,2.1-3
		c0.6,0,1.6,0.4,1.6,1.5L30.2,190.8L30.2,190.8z M29.2,194.4c0.7,0,1.1-0.5,1.1-1.3c0-0.5-0.3-1.2-1.1-1.2c-0.8,0-1.2,0.6-1.2,1.2
		C28,193.8,28.3,194.4,29.2,194.4"/>
	<path class="st0" d="M30.1,162.4c0.8,0.3,0.9,0.9,0.9,1.4c0,0.9-0.6,1.8-1.9,1.8c-0.3,0-0.9-0.1-1.4-0.4c-0.6-0.5-0.6-1.1-0.6-1.3
		c0-0.7,0.4-1.1,1-1.4c-0.5-0.2-0.8-0.6-0.8-1.1c0-0.6,0.4-1.5,1.7-1.5c1.2,0,1.7,0.8,1.7,1.4C30.8,162,30.3,162.3,30.1,162.4
		 M27.9,163.8c0,0.4,0.2,1.1,1.2,1.1c0.5,0,1.1-0.2,1.1-1.1c0-0.8-0.5-1.1-1.2-1.1C28.3,162.8,27.9,163.3,27.9,163.8 M30,161.2
		c0-0.3-0.2-0.8-1-0.8s-0.9,0.5-0.9,0.9c0,0.5,0.5,0.9,1,0.9C29.7,162.2,30,161.8,30,161.2"/>
	<path class="st0" d="M25.7,136.9H25v-4h-1.3v-0.6c0.9-0.1,1.3-0.2,1.5-1.1h0.6v5.7L25.7,136.9z"/>
	<path class="st0" d="M29.1,137c-1.6,0-1.9-1.7-1.9-2.9s0.3-2.9,1.9-2.9s1.9,1.7,1.9,2.9S30.7,137,29.1,137 M29.1,131.9
		c-0.8,0-1.2,0.8-1.2,2.3s0.4,2.3,1.2,2.3s1.2-0.8,1.2-2.3S29.9,131.9,29.1,131.9"/>
	<path class="st0" d="M25.6,106.7h-0.8v-4h-1.3v-0.6c0.9-0.1,1.3-0.2,1.5-1.1h0.6L25.6,106.7"/>
	<path class="st0" d="M27.2,103.1c0-1.8,1.3-2,1.9-2c1,0,1.8,0.6,1.8,1.7c0,1-0.7,1.4-1.5,1.9l-0.6,0.3c-0.8,0.4-0.9,0.9-1,1.1h3.1
		v0.7h-3.8c0-1.2,0.6-1.8,1.3-2.2l0.7-0.4c0.6-0.3,1-0.6,1-1.3c0-0.4-0.3-1-1.1-1c-1.1,0-1.1,1-1.1,1.4h-0.7L27.2,103.1z"/>
	<path class="st0" d="M25.6,78.6h-0.8v-4h-1.3V74c0.9-0.1,1.3-0.2,1.5-1.1h0.6L25.6,78.6"/>
	<path class="st0" d="M30.2,77.2v1.4h-0.7v-1.4H27v-0.7l2.6-3.6h0.6v3.6H31v0.6L30.2,77.2L30.2,77.2z M27.7,76.6h1.8V74L27.7,76.6"
		/>
	<path class="st0" d="M30.2,339v1.4h-0.7V339H27v-0.7l2.6-3.6h0.6v3.6H31v0.6h-0.8V339z M27.7,338.4h1.8v-2.5L27.7,338.4"/>
	<path class="st0" d="M30.2,222.3v1.4h-0.7v-1.4H27v-0.7l2.6-3.6h0.6v3.6H31v0.6L30.2,222.3L30.2,222.3z M27.7,221.7h1.8v-2.5
		L27.7,221.7"/>
	<path class="st0" d="M27.2,308c0-1.8,1.3-2,1.9-2c1,0,1.8,0.6,1.8,1.7c0,1-0.7,1.4-1.5,1.9l-0.6,0.3c-0.8,0.4-0.9,0.9-1,1.1h3.1
		v0.7H27c0-1.2,0.6-1.8,1.3-2.2l0.7-0.4c0.6-0.3,1-0.6,1-1.3c0-0.4-0.3-1-1.1-1c-1.1,0-1.1,1-1.1,1.4h-0.6L27.2,308z"/>
	<path class="st0" d="M27.2,249c0-1.8,1.3-2,1.9-2c1,0,1.8,0.6,1.8,1.7c0,1-0.7,1.4-1.5,1.9l-0.6,0.3c-0.8,0.4-0.9,0.9-1,1.1h3.1
		v0.7H27c0-1.2,0.6-1.8,1.3-2.2l0.7-0.4c0.6-0.3,1-0.6,1-1.3c0-0.4-0.3-1-1.1-1c-1.1,0-1.1,1-1.1,1.4h-0.6L27.2,249z"/>
	<path class="st0" d="M29.1,282c-1.6,0-1.9-1.7-1.9-2.9c0-1.2,0.3-2.9,1.9-2.9s1.9,1.7,1.9,2.9C31,280.3,30.7,282,29.1,282
		 M29.1,276.9c-0.8,0-1.2,0.8-1.2,2.3s0.4,2.3,1.2,2.3s1.2-0.8,1.2-2.3S29.9,276.9,29.1,276.9"/>
</g>
<g>
	<linearGradient id="SVGID_1_" gradientUnits="userSpaceOnUse" x1="19.325" y1="240.125" x2="157.575" y2="101.875">
		<stop  offset="0" style="stop-color:#0052CC"/>
		<stop  offset="1" style="stop-color:#2684FF"/>
	</linearGradient>
	<path class="st1" d="M58.8,62.4h59.3v217.2H58.8V62.4z"/>
	<linearGradient id="SVGID_2_" gradientUnits="userSpaceOnUse" x1="105.175" y1="247.175" x2="229.125" y2="123.225">
		<stop  offset="0" style="stop-color:#0052CC"/>
		<stop  offset="1" style="stop-color:#2684FF"/>
	</linearGradient>
	<path class="st2" d="M137.5,90.9h59.3v188.6h-59.3V90.9z"/>
	<linearGradient id="SVGID_3_" gradientUnits="userSpaceOnUse" x1="182.475" y1="247.175" x2="306.425" y2="123.225">
		<stop  offset="0" style="stop-color:#0052CC"/>
		<stop  offset="1" style="stop-color:#2684FF"/>
	</linearGradient>
	<path class="st3" d="M214.8,90.9h59.3v188.6h-59.3V90.9z"/>
</g>
<linearGradient id="SVGID_4_" gradientUnits="userSpaceOnUse" x1="222.325" y1="316.325" x2="266.575" y2="272.075">
	<stop  offset="0" style="stop-color:#00B8D9"/>
	<stop  offset="0.1975" style="stop-color:#04B9DA"/>
	<stop  offset="0.3773" style="stop-color:#0FBDDC"/>
	<stop  offset="0.5502" style="stop-color:#21C4E0"/>
	<stop  offset="0.7188" style="stop-color:#3BCDE5"/>
	<stop  offset="0.8829" style="stop-color:#5CD8EC"/>
	<stop  offset="1" style="stop-color:#79E2F2"/>
</linearGradient>
<path class="st4" d="M214.8,279.6h59.3v29.2h-59.3V279.6z"/>
<linearGradient id="SVGID_5_" gradientUnits="userSpaceOnUse" x1="262.875" y1="283.075" x2="381.625" y2="164.325">
	<stop  offset="0" style="stop-color:#0052CC"/>
	<stop  offset="1" style="stop-color:#2684FF"/>
</linearGradient>
<path class="st5" d="M292.6,134.6h59.3v178.2h-59.3V134.6z"/>
<linearGradient id="SVGID_6_" gradientUnits="userSpaceOnUse" x1="293.25" y1="367.65" x2="351.25" y2="309.65">
	<stop  offset="0" style="stop-color:#00B8D9"/>
	<stop  offset="0.1975" style="stop-color:#04B9DA"/>
	<stop  offset="0.3773" style="stop-color:#0FBDDC"/>
	<stop  offset="0.5502" style="stop-color:#21C4E0"/>
	<stop  offset="0.7188" style="stop-color:#3BCDE5"/>
	<stop  offset="0.8829" style="stop-color:#5CD8EC"/>
	<stop  offset="1" style="stop-color:#79E2F2"/>
</linearGradient>
<path class="st6" d="M292.6,310.3h59.3V367h-59.3V310.3z"/>
<g>
	<linearGradient id="SVGID_7_" gradientUnits="userSpaceOnUse" x1="296.525" y1="138.425" x2="347.975" y2="86.975">
		<stop  offset="0" style="stop-color:#36B37E"/>
		<stop  offset="4.602909e-03" style="stop-color:#37B47F"/>
		<stop  offset="0.1173" style="stop-color:#45C58F"/>
		<stop  offset="0.257" style="stop-color:#4FD09B"/>
		<stop  offset="0.4538" style="stop-color:#55D7A1"/>
		<stop  offset="1" style="stop-color:#57D9A3"/>
	</linearGradient>
	<path class="st7" d="M292.6,90.9h59.3v43.6h-59.3V90.9z"/>
	<linearGradient id="SVGID_8_" gradientUnits="userSpaceOnUse" x1="145.05" y1="98.55" x2="189.25" y2="54.35">
		<stop  offset="0" style="stop-color:#36B37E"/>
		<stop  offset="4.602909e-03" style="stop-color:#37B47F"/>
		<stop  offset="0.1173" style="stop-color:#45C58F"/>
		<stop  offset="0.257" style="stop-color:#4FD09B"/>
		<stop  offset="0.4538" style="stop-color:#55D7A1"/>
		<stop  offset="1" style="stop-color:#57D9A3"/>
	</linearGradient>
	<path class="st8" d="M137.5,61.9h59.3V91h-59.3V61.9z"/>
</g>
<linearGradient id="SVGID_9_" gradientUnits="userSpaceOnUse" x1="342.525" y1="338.125" x2="459.575" y2="221.075">
	<stop  offset="0" style="stop-color:#0052CC"/>
	<stop  offset="1" style="stop-color:#2684FF"/>
</linearGradient>
<path class="st9" d="M371.4,192.2h59.3V367h-59.3V192.2z"/>
<path class="st10" d="M449.2,197.3h59.3V366h-59.3V197.3z"/>
<linearGradient id="SVGID_10_" gradientUnits="userSpaceOnUse" x1="371.575" y1="192.675" x2="430.525" y2="133.725">
	<stop  offset="0" style="stop-color:#36B37E"/>
	<stop  offset="4.602909e-03" style="stop-color:#37B47F"/>
	<stop  offset="0.1173" style="stop-color:#45C58F"/>
	<stop  offset="0.257" style="stop-color:#4FD09B"/>
	<stop  offset="0.4538" style="stop-color:#55D7A1"/>
	<stop  offset="1" style="stop-color:#57D9A3"/>
</linearGradient>
<path class="st11" d="M371.4,133.9h59.3v58.6h-59.3V133.9z"/>
<g>
	<path class="st12" d="M166.1,77.9h-2.8v-1.3h2.8V77.9"/>
	<path class="st12" d="M166.7,75.5c0-2.3,1.7-2.5,2.3-2.5c1.4,0,2.4,0.8,2.4,2.2c0,1.2-0.8,1.8-1.5,2.3c-0.9,0.7-1.4,1-1.6,1.3h3.1
		V80h-4.8c0.1-0.8,0.1-1.7,1.6-2.8c1.3-0.9,1.8-1.3,1.8-2.1c0-0.5-0.3-1-1-1c-1,0-1,0.8-1,1.3L166.7,75.5L166.7,75.5z"/>
	<path class="st12" d="M83.1,169.3h0.2c1.3,0,1.7-0.7,1.7-1.2h1.1v7.1h-1.4v-4.9H83v-1L83.1,169.3z"/>
	<path class="st12" d="M89.4,170.9c0.3-0.2,0.6-0.4,1.3-0.4c0.9,0,2.1,0.7,2.1,2.3c0,1-0.5,2.5-2.6,2.5c-1.1,0-2.2-0.7-2.3-2.1h1.4
		c0.1,0.6,0.4,1,1,1c0.7,0,1.1-0.6,1.1-1.3c0-0.6-0.3-1.3-1-1.3c-0.2,0-0.7,0-0.9,0.5l-1.2-0.1l0.5-3.9h3.9v1.2h-2.9L89.4,170.9"/>
	<path class="st12" d="M162.8,183h0.2c1.3,0,1.7-0.7,1.7-1.2h1.1v7.1h-1.4V184h-1.7L162.8,183L162.8,183z"/>
	<path class="st12" d="M169.4,184.8h0.2c0.4,0,1.2,0,1.2-1c0-0.3-0.1-0.9-0.9-0.9c-1,0-1,0.9-1,1.2h-1.3c0-1.3,0.7-2.3,2.3-2.3
		c0.9,0,2.2,0.5,2.2,2c0,0.7-0.5,1.2-0.8,1.3c0.2,0.1,1.1,0.4,1.1,1.6c0,1.3-1,2.3-2.4,2.3c-0.7,0-2.5-0.1-2.5-2.4h1.4
		c0,0.4,0.1,1.2,1,1.2c0.6,0,1-0.4,1-1.2c0-1-0.9-1-1.6-1v-0.8L169.4,184.8z"/>
	<path class="st12" d="M239.8,183h0.2c1.3,0,1.7-0.7,1.7-1.2h1.1v7.1h-1.4V184h-1.7L239.8,183L239.8,183z"/>
	<path class="st12" d="M246.4,184.8h0.2c0.4,0,1.2,0,1.2-1c0-0.3-0.1-0.9-0.9-0.9c-1,0-1,0.9-1,1.2h-1.3c0-1.3,0.7-2.3,2.3-2.3
		c0.9,0,2.2,0.5,2.2,2c0,0.7-0.5,1.2-0.8,1.3c0.2,0.1,1.1,0.4,1.1,1.6c0,1.3-1,2.3-2.4,2.3c-0.7,0-2.5-0.1-2.5-2.4h1.4
		c0,0.4,0.1,1.2,1,1.2c0.6,0,1-0.4,1-1.2c0-1-0.9-1-1.6-1v-0.8L246.4,184.8z"/>
	<path class="st12" d="M317.6,219.4h0.2c1.3,0,1.7-0.7,1.7-1.2h1.1v7.1h-1.4v-4.9h-1.7L317.6,219.4L317.6,219.4z"/>
	<path class="st12" d="M322.5,220.7c0-2.3,1.7-2.5,2.3-2.5c1.4,0,2.4,0.8,2.4,2.2c0,1.2-0.8,1.8-1.5,2.3c-0.9,0.7-1.4,1-1.6,1.3h3.1
		v1.2h-4.8c0-0.8,0.1-1.7,1.6-2.8c1.3-0.9,1.8-1.3,1.8-2.1c0-0.5-0.3-1-1-1c-1,0-1,0.8-1,1.3h-1.3V220.7z"/>
	<path class="st12" d="M320.9,114.4h-2.8v-1.3h2.8V114.4"/>
	<path class="st12" d="M323.3,112.4h0.2c0.4,0,1.2,0,1.2-1c0-0.3-0.1-0.9-0.9-0.9c-1,0-1,0.9-1,1.2h-1.3c0-1.3,0.7-2.3,2.3-2.3
		c0.9,0,2.2,0.5,2.2,2c0,0.7-0.5,1.2-0.8,1.3c0.2,0.1,1.1,0.4,1.1,1.6c0,1.3-1,2.3-2.4,2.3c-0.7,0-2.5-0.1-2.5-2.4h1.4
		c0,0.4,0.1,1.2,1,1.2c0.6,0,1-0.4,1-1.2c0-1-0.9-1-1.6-1L323.3,112.4L323.3,112.4z"/>
	<path class="st12" d="M399.7,165.4h-2.8v-1.3h2.8V165.4"/>
	<path class="st12" d="M405.2,166h-0.8v1.6H403V166h-2.8v-1.2l2.6-4.3h1.6v4.4h0.8L405.2,166 M403,164.9c0-1.7,0-2.8,0-3l-1.8,3H403
		"/>
	<path class="st12" d="M319,338.2h1.1v2h2v1.1h-2v2H319v-2h-2v-1.1h2V338.2"/>
	<path class="st12" d="M327.7,341.7h-0.8v1.6h-1.4v-1.6h-2.8v-1.2l2.6-4.3h1.6v4.4h0.8L327.7,341.7 M325.5,340.6c0-1.7,0-2.8,0-3
		l-1.8,3H325.5"/>
	<path class="st12" d="M396.4,278.3h0.2c1.3,0,1.7-0.7,1.7-1.2h1.1v7.1H398v-4.9h-1.7L396.4,278.3L396.4,278.3z"/>
	<path class="st12" d="M401.2,279.6c0-2.3,1.7-2.5,2.3-2.5c1.4,0,2.4,0.8,2.4,2.2c0,1.2-0.8,1.8-1.5,2.3c-0.9,0.7-1.4,1-1.6,1.3h3.1
		v1.2h-4.8c0.1-0.8,0.1-1.7,1.6-2.8c1.3-0.9,1.8-1.3,1.8-2.1c0-0.5-0.3-1-1-1c-1,0-1,0.8-1,1.3h-1.3V279.6z"/>
	<path class="st12" d="M241.1,293.5h1.1v2h2v1.1h-2v2h-1.1v-2h-2v-1.1h2V293.5"/>
	<path class="st12" d="M249.9,297h-0.8v1.6h-1.4V297h-2.8v-1.2l2.6-4.3h1.6v4.4h0.8L249.9,297 M247.7,295.9c0-1.7,0-2.8,0-3l-1.8,3
		H247.7"/>
</g>
<g>
	<path class="st13" d="M42.8,20.2h-6.4v-8.6h6.3v1h-5.1v2.6h4.7v1h-4.7v2.9h5.2V20.2"/>
	<path class="st13" d="M44.1,13.9h1v0.9c0.3-0.4,0.7-1.1,1.9-1.1c1.7,0,2.6,1.4,2.6,3.1c0,1.5-0.6,3.5-2.8,3.5
		c-0.8,0-1.4-0.4-1.7-0.8v3.1H44L44.1,13.9L44.1,13.9z M46.9,19.4c1.2,0,1.7-1,1.7-2.4c0-0.8-0.1-2.4-1.7-2.4
		c-1.5,0-1.7,1.6-1.7,2.7C45.1,19,46.2,19.4,46.9,19.4"/>
	<path class="st13" d="M50.9,12.8v-1.2H52v1.2H50.9 M52,20.2h-1.1v-6.3H52V20.2"/>
	<path class="st13" d="M57.5,16c-0.1-0.8-0.6-1.3-1.5-1.3c-1.3,0-1.7,1.2-1.7,2.4c0,1.1,0.3,2.4,1.7,2.4c0.7,0,1.3-0.5,1.5-1.5h1
		c-0.1,1-0.7,2.4-2.6,2.4c-1.8,0-2.8-1.3-2.8-3.1c0-1.9,0.9-3.5,3-3.5c1.6,0,2.3,1.2,2.4,2.3L57.5,16L57.5,16z"/>
	<path class="st13" d="M63,11.6h3.8c1.6,0,2.4,1,2.4,2.2c0,0.6-0.2,1.4-1.2,1.8c0.6,0.2,1.6,0.6,1.6,2.1c0,1.4-1,2.5-2.9,2.5H63
		L63,11.6 M64.2,15.2h2.1c1.1,0,1.8-0.3,1.8-1.4c0-0.8-0.5-1.3-1.8-1.3h-2.1V15.2 M64.2,19.2h2.5c1.2,0,1.8-0.6,1.8-1.6
		c0-1.2-1.1-1.5-2-1.5h-2.3V19.2"/>
	<path class="st13" d="M75,20.2v-0.9c-0.4,0.7-1,1.1-2,1.1c-0.9,0-2-0.4-2-1.9V14h1v4.2c0,1,0.5,1.4,1.2,1.4c1.3,0,1.7-1.2,1.7-2.1
		V14H76v6.3L75,20.2L75,20.2z"/>
	<path class="st13" d="M78.8,20.2h-1.1v-6.3h1v1c0.4-0.7,1-1.2,1.8-1.2c0.1,0,0.2,0,0.3,0v1.1h-0.4c-1,0-1.6,0.8-1.6,1.7L78.8,20.2"
		/>
	<path class="st13" d="M87,20.2h-1.1v-3.9c0-1.1-0.3-1.6-1.3-1.6c-0.6,0-1.7,0.4-1.7,2.1v3.4h-1.1v-6.3h1v0.9
		c0.2-0.3,0.8-1.1,1.9-1.1c1,0,2.2,0.4,2.2,2.2L87,20.2L87,20.2z"/>
	<path class="st13" d="M93.7,20.2h-1v-0.9c-0.5,0.9-1.2,1-1.8,1c-2.1,0-2.8-2-2.8-3.5c0-1.8,0.9-3.1,2.6-3.1c1.1,0,1.6,0.7,1.9,1.1
		v-0.1v-3.1h1.1L93.7,20.2 M91,19.4c0.7,0,1.7-0.4,1.7-2.1c0-1-0.2-2.7-1.7-2.7c-1.6,0-1.7,1.5-1.7,2.4C89.3,18.4,89.8,19.4,91,19.4
		"/>
	<path class="st13" d="M97.8,13.7c2,0,2.9,1.7,2.9,3.3s-0.9,3.3-2.9,3.3s-2.9-1.7-2.9-3.3S95.8,13.7,97.8,13.7 M97.8,19.4
		c1.5,0,1.8-1.6,1.8-2.4s-0.3-2.4-1.8-2.4S96,16.2,96,17C95.9,17.9,96.2,19.4,97.8,19.4"/>
	<path class="st13" d="M104,20.2h-1.1l-1.8-6.3h1.2l1.2,4.9l1.2-4.9h1.2l1.2,4.9l1.3-4.9h1.1l-1.8,6.3h-1.1l-1.3-4.9L104,20.2"/>
	<path class="st13" d="M115.5,20.2h-1.1v-3.9c0-1.1-0.3-1.6-1.3-1.6c-0.6,0-1.7,0.4-1.7,2.1v3.4h-1.1v-6.3h1v0.9
		c0.2-0.3,0.8-1.1,1.9-1.1c1,0,2.2,0.4,2.2,2.2L115.5,20.2L115.5,20.2z"/>
</g>
<g>
	<path class="st0" d="M36.1,32.5h0.2c1.3,0,1.7-0.7,1.7-1.2h1.1v7.1h-1.4v-4.9H36v-1L36.1,32.5z"/>
	<path class="st0" d="M42.8,34.3H43c0.4,0,1.2,0,1.2-1c0-0.3-0.1-0.9-0.9-0.9c-1,0-1,0.9-1,1.2H41c0-1.3,0.8-2.3,2.3-2.3
		c1,0,2.2,0.5,2.2,2c0,0.7-0.5,1.2-0.8,1.3c0.2,0.1,1.1,0.4,1.1,1.6c0,1.3-1,2.3-2.4,2.3c-0.7,0-2.5-0.1-2.5-2.4h1.4
		c0,0.4,0.1,1.2,1,1.2c0.6,0,1-0.4,1-1.2c0-1-0.9-1-1.6-1L42.8,34.3L42.8,34.3z"/>
	<path class="st0" d="M48.3,31.3c1,0,1.8,0.8,1.8,1.8s-0.8,1.8-1.8,1.8s-1.8-0.8-1.8-1.8S47.3,31.3,48.3,31.3 M48.3,33.9
		c0.4,0,0.8-0.4,0.8-0.8c0-0.4-0.4-0.8-0.8-0.8s-0.8,0.4-0.8,0.8C47.5,33.6,47.9,33.9,48.3,33.9 M49,38.6h-0.7l4-7.3H53L49,38.6
		 M53,34.9c1,0,1.8,0.8,1.8,1.8S54,38.5,53,38.5s-1.8-0.8-1.8-1.8S52,34.9,53,34.9 M53,37.5c0.4,0,0.8-0.3,0.8-0.8
		c0-0.4-0.4-0.8-0.8-0.8s-0.8,0.4-0.8,0.8C52.2,37.1,52.6,37.5,53,37.5"/>
</g>
<g>
	<path class="st14" d="M61.9,38.4v-0.8c-0.4,0.6-0.8,0.9-1.7,0.9c-0.8,0-1.7-0.4-1.7-1.6v-3.8h0.9v3.5c0,0.9,0.4,1.1,1,1.1
		c1.1,0,1.4-1,1.4-1.7v-2.9h0.9v5.2L61.9,38.4L61.9,38.4z"/>
	<path class="st14" d="M68.3,38.4h-0.9v-3.2c0-0.9-0.3-1.4-1.1-1.4c-0.5,0-1.4,0.3-1.4,1.7v2.8H64v-5.2h0.8v0.7
		c0.2-0.3,0.7-0.9,1.6-0.9c0.8,0,1.8,0.3,1.8,1.8L68.3,38.4L68.3,38.4z"/>
	<path class="st14" d="M74.1,36.8c0,0.2-0.3,1-0.9,1.4c-0.2,0.2-0.6,0.4-1.4,0.4c-1.5,0-2.3-1.1-2.3-2.6c0-1.6,0.8-2.9,2.5-2.9
		c1.5,0,2.2,1.2,2.2,3h-3.8c0,1.1,0.5,1.7,1.5,1.7c0.8,0,1.3-0.6,1.3-1L74.1,36.8 M73.2,35.4c0-0.8-0.4-1.6-1.5-1.6
		c-0.8,0-1.4,0.7-1.4,1.6H73.2"/>
	<path class="st14" d="M78.2,34.7c0-0.3-0.1-0.9-1.2-0.9c-0.3,0-1,0.1-1,0.7c0,0.4,0.3,0.5,0.9,0.7l0.9,0.2c1.1,0.3,1.5,0.7,1.5,1.4
		c0,1.1-0.9,1.7-2.1,1.7c-2.1,0-2.2-1.2-2.2-1.8h0.8c0,0.4,0.1,1.1,1.4,1.1c0.6,0,1.2-0.2,1.2-0.8c0-0.4-0.3-0.6-1-0.8l-1-0.2
		c-0.7-0.2-1.2-0.5-1.2-1.3c0-1.1,0.9-1.7,2-1.7c1.9,0,2,1.4,2,1.6L78.2,34.7L78.2,34.7z"/>
	<path class="st14" d="M81.3,33.9v3.4c0,0.4,0.3,0.4,0.5,0.4h0.3v0.7c-0.3,0-0.6,0.1-0.7,0.1c-0.9,0-1.1-0.5-1.1-1.1V34h-0.7v-0.7
		h0.7v-1.5h0.9v1.5H82V34h-0.7L81.3,33.9z"/>
	<path class="st14" d="M83,32.2v-1h0.9v1H83 M83.9,38.4H83v-5.2h0.9V38.4"/>
	<path class="st14" d="M85.2,33.2H86v0.7c0.2-0.3,0.6-0.9,1.6-0.9s1.2,0.6,1.4,0.8c0.4-0.5,0.8-0.8,1.6-0.8c0.6,0,1.6,0.3,1.6,1.8
		v3.6h-0.9V35c0-0.7-0.2-1.2-1-1.2c-0.7,0-1.2,0.7-1.2,1.4v3.2h-0.9v-3.6c0-0.4-0.2-1-0.8-1c-0.5,0-1.4,0.3-1.4,1.7v2.8h-0.9v-5.1
		H85.2z"/>
	<path class="st14" d="M93.5,34.8c0-1.2,0.9-1.7,2.2-1.7c0.4,0,1.9,0.1,1.9,1.5v3c0,0.2,0.1,0.3,0.3,0.3c0.1,0,0.2,0,0.3,0v0.6
		c-0.2,0-0.3,0.1-0.5,0.1c-0.8,0-0.9-0.4-0.9-0.8c-0.3,0.4-0.9,0.8-1.9,0.8s-1.6-0.6-1.6-1.5c0-0.4,0.1-1.5,1.6-1.6l1.4-0.2
		c0.2,0,0.5-0.1,0.5-0.6s-0.4-0.8-1.2-0.8c-1,0-1.1,0.6-1.2,1L93.5,34.8L93.5,34.8z M96.7,35.7c-0.1,0.1-0.4,0.2-1.4,0.3
		c-0.4,0.1-1.1,0.2-1.1,0.8s0.3,0.9,0.9,0.9c0.8,0,1.6-0.5,1.6-1.2V35.7"/>
	<path class="st14" d="M100.2,33.9v3.4c0,0.4,0.3,0.4,0.5,0.4h0.3v0.7c-0.3,0-0.6,0.1-0.7,0.1c-0.9,0-1.1-0.5-1.1-1.1V34h-0.7v-0.7
		h0.7v-1.5h0.9v1.5h0.8V34h-0.7L100.2,33.9z"/>
	<path class="st14" d="M106.1,36.8c0,0.2-0.3,1-0.9,1.4c-0.2,0.2-0.6,0.4-1.4,0.4c-1.5,0-2.3-1.1-2.3-2.6c0-1.6,0.8-2.9,2.5-2.9
		c1.5,0,2.2,1.2,2.2,3h-3.8c0,1.1,0.5,1.7,1.5,1.7c0.8,0,1.3-0.6,1.3-1L106.1,36.8 M105.3,35.4c0-0.8-0.4-1.6-1.5-1.6
		c-0.8,0-1.4,0.7-1.4,1.6H105.3"/>
	<path class="st14" d="M111.6,38.4h-0.8v-0.7c-0.4,0.7-1,0.9-1.5,0.9c-1.8,0-2.3-1.7-2.3-2.9c0-1.5,0.8-2.6,2.2-2.6
		c0.9,0,1.3,0.6,1.6,0.9v-0.1v-2.6h0.9L111.6,38.4L111.6,38.4z M109.2,37.8c0.6,0,1.4-0.4,1.4-1.8c0-0.8-0.1-2.2-1.4-2.2
		c-1.4,0-1.4,1.3-1.4,2C107.8,36.9,108.3,37.8,109.2,37.8"/>
	<path class="st14" d="M115.6,32.2v-1h0.9v1H115.6 M116.5,38.4h-0.9v-5.2h0.9V38.4"/>
	<path class="st14" d="M120.8,34.7c0-0.3-0.1-0.9-1.2-0.9c-0.3,0-1,0.1-1,0.7c0,0.4,0.3,0.5,0.9,0.7l0.9,0.2
		c1.1,0.3,1.5,0.7,1.5,1.4c0,1.1-0.9,1.7-2.1,1.7c-2.1,0-2.2-1.2-2.2-1.8h0.8c0,0.4,0.2,1.1,1.4,1.1c0.6,0,1.2-0.2,1.2-0.8
		c0-0.4-0.3-0.6-1-0.8l-1-0.2c-0.7-0.2-1.2-0.5-1.2-1.3c0-1.1,1-1.7,2-1.7c1.9,0,2,1.4,2,1.6L120.8,34.7L120.8,34.7z"/>
	<path class="st14" d="M125.8,34.7c0-0.3-0.1-0.9-1.2-0.9c-0.3,0-1,0.1-1,0.7c0,0.4,0.3,0.5,0.9,0.7l0.9,0.2
		c1.1,0.3,1.5,0.7,1.5,1.4c0,1.1-0.9,1.7-2.1,1.7c-2.1,0-2.2-1.2-2.2-1.8h0.8c0,0.4,0.2,1.1,1.4,1.1c0.6,0,1.2-0.2,1.2-0.8
		c0-0.4-0.3-0.6-1-0.8l-1-0.2c-0.7-0.2-1.2-0.5-1.2-1.3c0-1.1,1-1.7,2-1.7c1.9,0,2,1.4,2,1.6L125.8,34.7L125.8,34.7z"/>
	<path class="st14" d="M131.2,38.4v-0.8c-0.4,0.6-0.8,0.9-1.7,0.9c-0.8,0-1.7-0.4-1.7-1.6v-3.8h0.9v3.5c0,0.9,0.4,1.1,1,1.1
		c1.1,0,1.4-1,1.4-1.7v-2.9h0.9v5.2L131.2,38.4L131.2,38.4z"/>
	<path class="st14" d="M137.8,36.8c0,0.2-0.3,1-0.9,1.4c-0.2,0.2-0.6,0.4-1.4,0.4c-1.5,0-2.3-1.1-2.3-2.6c0-1.6,0.8-2.9,2.5-2.9
		c1.5,0,2.2,1.2,2.2,3H134c0,1.1,0.5,1.7,1.5,1.7c0.8,0,1.3-0.6,1.3-1L137.8,36.8 M136.9,35.4c0-0.8-0.4-1.6-1.5-1.6
		c-0.8,0-1.4,0.7-1.4,1.6H136.9"/>
	<path class="st14" d="M141.9,34.7c0-0.3-0.1-0.9-1.2-0.9c-0.3,0-1,0.1-1,0.7c0,0.4,0.3,0.5,0.9,0.7l0.9,0.2
		c1.1,0.3,1.5,0.7,1.5,1.4c0,1.1-0.9,1.7-2.1,1.7c-2.1,0-2.2-1.2-2.2-1.8h0.8c0,0.4,0.2,1.1,1.4,1.1c0.6,0,1.2-0.2,1.2-0.8
		c0-0.4-0.3-0.6-1-0.8l-1-0.2c-0.7-0.2-1.2-0.5-1.2-1.3c0-1.1,1-1.7,2-1.7c1.9,0,2,1.4,2,1.6L141.9,34.7L141.9,34.7z"/>
</g>
<g>
	<path class="st0" d="M156.4,32.5h0.2c1.3,0,1.7-0.7,1.7-1.2h1.1v7.1H158v-4.9h-1.7L156.4,32.5L156.4,32.5z"/>
	<path class="st0" d="M161.3,33.8c0-2.3,1.7-2.5,2.3-2.5c1.4,0,2.4,0.8,2.4,2.2c0,1.2-0.8,1.8-1.5,2.3c-0.9,0.7-1.4,1-1.6,1.3h3.1
		v1.2h-4.8c0.1-0.8,0.1-1.7,1.6-2.8c1.3-0.9,1.8-1.3,1.8-2.1c0-0.5-0.3-1-1-1c-1,0-1,0.8-1,1.3L161.3,33.8L161.3,33.8z"/>
</g>
<g>
	<path class="st14" d="M170.9,38.4H170v-5.2h0.8V34c0.3-0.6,0.8-1,1.5-1c0.1,0,0.2,0,0.2,0v1h-0.3c-0.8,0-1.3,0.6-1.3,1.4V38.4"/>
	<path class="st14" d="M177.5,36.8c0,0.2-0.3,1-0.9,1.4c-0.2,0.2-0.6,0.4-1.4,0.4c-1.5,0-2.3-1.1-2.3-2.6c0-1.6,0.8-2.9,2.5-2.9
		c1.5,0,2.2,1.2,2.2,3h-3.8c0,1.1,0.5,1.7,1.5,1.7c0.8,0,1.3-0.6,1.3-1L177.5,36.8 M176.6,35.4c0-0.8-0.4-1.6-1.5-1.6
		c-0.8,0-1.4,0.7-1.4,1.6H176.6"/>
	<path class="st14" d="M178.6,33.2h0.8v0.7c0.2-0.3,0.6-0.9,1.6-0.9s1.2,0.6,1.4,0.8c0.4-0.5,0.8-0.8,1.6-0.8c0.6,0,1.6,0.3,1.6,1.8
		v3.6h-0.9V35c0-0.7-0.2-1.2-1-1.2c-0.7,0-1.2,0.7-1.2,1.4v3.2h-0.9v-3.6c0-0.4-0.2-1-0.8-1c-0.5,0-1.4,0.3-1.4,1.7v2.8h-0.9
		L178.6,33.2L178.6,33.2z"/>
	<path class="st14" d="M186.9,34.8c0-1.2,0.9-1.7,2.2-1.7c0.4,0,1.9,0.1,1.9,1.5v3c0,0.2,0.1,0.3,0.3,0.3c0.1,0,0.2,0,0.3,0v0.6
		c-0.1,0-0.3,0.1-0.5,0.1c-0.8,0-0.9-0.4-0.9-0.8c-0.3,0.4-0.9,0.8-1.9,0.8s-1.6-0.6-1.6-1.5c0-0.4,0.1-1.5,1.6-1.6l1.4-0.2
		c0.2,0,0.5-0.1,0.5-0.6s-0.4-0.8-1.2-0.8c-1,0-1.1,0.6-1.2,1L186.9,34.8L186.9,34.8z M190.1,35.7c-0.1,0.1-0.4,0.2-1.4,0.3
		c-0.4,0.1-1.1,0.2-1.1,0.8s0.3,0.9,0.9,0.9c0.8,0,1.6-0.5,1.6-1.2V35.7"/>
	<path class="st14" d="M192.5,32.2v-1h0.9v1H192.5 M193.4,38.4h-0.9v-5.2h0.9V38.4"/>
	<path class="st14" d="M199,38.4h-0.9v-3.2c0-0.9-0.3-1.4-1.1-1.4c-0.5,0-1.4,0.3-1.4,1.7v2.8h-0.9v-5.2h0.8v0.7
		c0.2-0.3,0.7-0.9,1.6-0.9c0.8,0,1.8,0.3,1.8,1.8L199,38.4L199,38.4z"/>
	<path class="st14" d="M200.3,32.2v-1h0.9v1H200.3 M201.2,38.4h-0.9v-5.2h0.9V38.4"/>
	<path class="st14" d="M206.8,38.4h-0.9v-3.2c0-0.9-0.3-1.4-1.1-1.4c-0.5,0-1.4,0.3-1.4,1.7v2.8h-0.9v-5.2h0.8v0.7
		c0.2-0.3,0.7-0.9,1.6-0.9c0.8,0,1.8,0.3,1.8,1.8L206.8,38.4L206.8,38.4z"/>
	<path class="st14" d="M212.4,38c0,0.7,0,2.6-2.4,2.6c-0.6,0-1.8-0.2-2-1.6h0.9c0.2,0.8,1,0.8,1.2,0.8c1.5,0,1.5-1.2,1.5-1.8v-0.2
		c-0.2,0.4-0.7,0.7-1.4,0.7c-1.8,0-2.3-1.7-2.3-2.9c0-1.5,0.8-2.6,2.2-2.6c0.9,0,1.3,0.6,1.6,0.9v-0.7h0.8V38H212.4z M210.1,37.8
		c0.6,0,1.4-0.4,1.4-1.8c0-0.8-0.1-2.2-1.4-2.2c-1.4,0-1.4,1.3-1.4,2C208.7,36.9,209.2,37.8,210.1,37.8"/>
	<path class="st14" d="M218.7,31.1c-0.8,1.6-1.4,2.6-1.4,5c0,1.6,0.6,2.9,1.4,4.4h-0.6c-1-1.6-1.7-2.8-1.7-4.7
		c0-1.8,0.6-3.2,1.7-4.7L218.7,31.1"/>
	<path class="st14" d="M222.7,34.7c0-0.3-0.1-0.9-1.2-0.9c-0.3,0-1,0.1-1,0.7c0,0.4,0.3,0.5,0.9,0.7l0.9,0.2
		c1.1,0.3,1.5,0.7,1.5,1.4c0,1.1-0.9,1.7-2.1,1.7c-2.1,0-2.2-1.2-2.2-1.8h0.8c0,0.4,0.1,1.1,1.4,1.1c0.6,0,1.2-0.2,1.2-0.8
		c0-0.4-0.3-0.6-1-0.8l-1-0.2c-0.7-0.2-1.2-0.5-1.2-1.3c0-1.1,0.9-1.7,2-1.7c1.9,0,2,1.4,2,1.6L222.7,34.7L222.7,34.7z"/>
	<path class="st14" d="M225.8,33.9v3.4c0,0.4,0.4,0.4,0.5,0.4h0.3v0.7c-0.3,0-0.6,0.1-0.7,0.1c-0.9,0-1.1-0.5-1.1-1.1V34h-0.7v-0.7
		h0.7v-1.5h0.9v1.5h0.8V34h-0.7V33.9z"/>
	<path class="st14" d="M229.4,33c1.7,0,2.4,1.4,2.4,2.8s-0.8,2.8-2.4,2.8c-1.7,0-2.4-1.4-2.4-2.8S227.8,33,229.4,33 M229.4,37.8
		c1.3,0,1.5-1.3,1.5-2s-0.3-2-1.5-2s-1.5,1.3-1.5,2S228.2,37.8,229.4,37.8"/>
	<path class="st14" d="M233.9,38.4H233v-5.2h0.8V34c0.3-0.6,0.8-1,1.5-1c0.1,0,0.2,0,0.2,0v1h-0.3c-0.8,0-1.3,0.6-1.3,1.4V38.4"/>
	<path class="st14" d="M239.8,33.2h1c-0.6,1.7-1.2,3.4-1.9,5.1c-0.8,2.1-0.9,2.2-2,2.2c-0.1,0-0.2,0-0.4-0.1v-0.8
		c0.1,0,0.3,0.1,0.5,0.1c0.5,0,0.5-0.1,0.9-1.2l-1.9-5.4h1l1.4,4.3L239.8,33.2"/>
	<path class="st14" d="M244.2,33.2h0.8v0.7c0.2-0.3,0.6-0.9,1.6-0.9c1.4,0,2.2,1.1,2.2,2.6c0,1.2-0.5,2.9-2.3,2.9
		c-0.7,0-1.2-0.3-1.4-0.7v2.6h-0.9L244.2,33.2 M246.5,37.8c1,0,1.4-0.9,1.4-2c0-0.7-0.1-2-1.4-2c-1.3,0-1.4,1.4-1.4,2.2
		C245,37.4,245.9,37.8,246.5,37.8"/>
	<path class="st14" d="M252,33c1.7,0,2.4,1.4,2.4,2.8s-0.8,2.8-2.4,2.8c-1.7,0-2.4-1.4-2.4-2.8S250.3,33,252,33 M252,37.8
		c1.3,0,1.5-1.3,1.5-2s-0.3-2-1.5-2s-1.5,1.3-1.5,2S250.7,37.8,252,37.8"/>
	<path class="st14" d="M255.4,32.2v-1h0.9v1H255.4 M256.3,38.4h-0.9v-5.2h0.9V38.4"/>
	<path class="st14" d="M261.9,38.4H261v-3.2c0-0.9-0.3-1.4-1.1-1.4c-0.5,0-1.4,0.3-1.4,1.7v2.8h-0.9v-5.2h0.8v0.7
		c0.2-0.3,0.7-0.9,1.6-0.9c0.8,0,1.8,0.3,1.8,1.8v3.7L261.9,38.4z"/>
	<path class="st14" d="M264.3,33.9v3.4c0,0.4,0.3,0.4,0.5,0.4h0.3v0.7c-0.3,0-0.6,0.1-0.7,0.1c-0.9,0-1.1-0.5-1.1-1.1V34h-0.7v-0.7
		h0.7v-1.5h0.9v1.5h0.8V34h-0.7L264.3,33.9z"/>
	<path class="st14" d="M268.9,34.7c0-0.3-0.1-0.9-1.2-0.9c-0.3,0-1,0.1-1,0.7c0,0.4,0.3,0.5,0.9,0.7l0.9,0.2
		c1.1,0.3,1.5,0.7,1.5,1.4c0,1.1-0.9,1.7-2.1,1.7c-2.1,0-2.2-1.2-2.2-1.8h0.8c0,0.4,0.1,1.1,1.4,1.1c0.6,0,1.2-0.2,1.2-0.8
		c0-0.4-0.3-0.6-1-0.8l-1-0.2c-0.7-0.2-1.2-0.5-1.2-1.3c0-1.1,0.9-1.7,2-1.7c1.9,0,2,1.4,2,1.6L268.9,34.7L268.9,34.7z"/>
	<path class="st14" d="M270.7,40.5c0.8-1.6,1.4-2.6,1.4-5c0-1.6-0.6-2.9-1.4-4.4h0.6c1,1.6,1.7,2.8,1.7,4.7c0,1.8-0.6,3.2-1.7,4.7
		H270.7"/>
</g>
<path class="st15" d="M535.3,176.2H424.2c-1.7,0-3,1.4-3,3v54.6l-6.1,6.1l6.1,6.1v42.8c0,1.6,1.3,3,3,3h111.1c1.6,0,3-1.4,3-3V179.2
	C538.3,177.5,536.9,176.2,535.3,176.2L535.3,176.2z"/>
<g>
	<path class="st16" d="M434.3,194.3c0,0.4,0.2,1.2,1.5,1.2c0.7,0,1.5-0.2,1.5-0.9c0-0.6-0.5-0.7-1.3-0.9l-0.8-0.2
		c-1.2-0.3-2.3-0.5-2.3-2.1c0-0.8,0.4-2.2,2.8-2.2c2.2,0,2.8,1.4,2.8,2.3h-1.4c0-0.3-0.2-1.1-1.5-1.1c-0.6,0-1.2,0.2-1.2,0.9
		c0,0.6,0.5,0.7,0.8,0.7l1.7,0.4c1,0.2,1.9,0.6,1.9,1.9c0,2.2-2.2,2.3-2.8,2.3c-2.6,0-3.1-1.5-3.1-2.4h1.4V194.3z"/>
	<path class="st16" d="M441.1,192c0.3-0.4,0.7-0.9,1.6-0.9c1.2,0,2.2,0.9,2.2,2.7c0,1.5-0.7,2.9-2.2,2.9c-1,0-1.3-0.5-1.5-0.8v2.7
		h-1.4v-7.4h1.3V192 M442.4,195.5c0.9,0,1.1-1,1.1-1.6c0-0.8-0.3-1.6-1.2-1.6c-1,0-1.2,0.9-1.2,1.7S441.5,195.5,442.4,195.5"/>
	<path class="st16" d="M445.9,191.2h1.3v0.9c0.3-0.5,0.6-1.1,1.5-1.1c0.1,0,0.2,0,0.3,0v1.4c-0.1,0-0.3,0-0.4,0
		c-1.1,0-1.3,0.7-1.3,1.3v2.8h-1.4V191.2"/>
	<path class="st16" d="M451.1,190.6h-1.4v-1.3h1.4V190.6 M451.1,191.2v5.3h-1.4v-5.3H451.1"/>
	<path class="st16" d="M457.3,196.5h-1.4v-3.2c0-0.4,0-1-0.9-1c-0.6,0-1.1,0.4-1.1,1.2v3h-1.4v-5.3h1.3v0.8c0.2-0.3,0.6-0.9,1.6-0.9
		s1.8,0.6,1.8,1.8v3.6L457.3,196.5z"/>
	<path class="st16" d="M460.1,191.2h0.9v1h-0.9v2.9c0,0.3,0,0.4,0.6,0.4c0.1,0,0.2,0,0.3,0v1.1c-0.2,0-0.4,0-0.7,0h-0.2
		c-1.2,0-1.4-0.5-1.4-1.1v-3.2H458v-1h0.7v-1.4h1.4L460.1,191.2"/>
	<path class="st16" d="M464.7,190.7h0.2c1.3,0,1.7-0.7,1.7-1.2h1.1v7.1h-1.4v-4.9h-1.7L464.7,190.7L464.7,190.7z"/>
	<path class="st16" d="M471.8,189.5c1.7,0,2.5,1.1,2.5,3.6s-0.8,3.6-2.5,3.6s-2.5-1.2-2.5-3.6S470.1,189.5,471.8,189.5 M471.8,195.6
		c0.8,0,1-0.7,1-2.5s-0.2-2.5-1-2.5s-1,0.7-1,2.5S471,195.6,471.8,195.6"/>
</g>
<g>
	<path class="st17" d="M436.1,215h-0.9v-5h-1.6v-0.7c1.1-0.1,1.6-0.2,1.9-1.3h0.7v7H436.1z"/>
	<path class="st17" d="M441.7,211.3c0.9,0.4,1.1,1.2,1.1,1.7c0,1.1-0.7,2.2-2.4,2.2c-0.4,0-1.1-0.1-1.7-0.5
		c-0.7-0.6-0.7-1.3-0.7-1.7c0-0.9,0.4-1.4,1.2-1.7c-0.6-0.2-1-0.7-1-1.4s0.5-1.9,2.1-1.9s2.2,1,2.2,1.8
		C442.6,210.8,442,211.1,441.7,211.3 M439,213c0,0.6,0.3,1.4,1.5,1.4c0.6,0,1.4-0.2,1.4-1.3c0-0.9-0.7-1.4-1.5-1.4
		C439.4,211.7,439,212.4,439,213 M441.7,209.9c0-0.4-0.3-1-1.3-1c-0.9,0-1.2,0.6-1.2,1.1c0,0.7,0.6,1.1,1.2,1.1
		C441.2,211,441.7,210.5,441.7,209.9"/>
	<path class="st17" d="M443.7,215.2H443l2.5-7.6h0.7L443.7,215.2"/>
	<path class="st17" d="M452.7,215v-4.2c0-0.2,0-1.1,0-1.8l-2,6h-1l-2-6c0,0.7,0,1.6,0,1.8v4.2h-0.9v-7.2h1.4l2,6.1l2-6.1h1.4v7.2
		H452.7"/>
	<path class="st17" d="M454.9,211.4c0-1.2,0.9-1.7,2.2-1.7c0.4,0,1.9,0.1,1.9,1.5v3c0,0.2,0.1,0.3,0.3,0.3c0.1,0,0.2,0,0.3,0v0.6
		c-0.2,0-0.3,0.1-0.5,0.1c-0.8,0-0.9-0.4-0.9-0.8c-0.3,0.4-0.9,0.8-1.9,0.8s-1.6-0.6-1.6-1.5c0-0.4,0.1-1.5,1.6-1.6l1.4-0.2
		c0.2,0,0.5-0.1,0.5-0.6s-0.4-0.8-1.2-0.8c-1,0-1.1,0.6-1.2,1h-0.9L454.9,211.4z M458.2,212.4c-0.1,0.1-0.4,0.2-1.4,0.3
		c-0.4,0.1-1.1,0.2-1.1,0.8s0.3,0.9,0.9,0.9c0.8,0,1.6-0.5,1.6-1.2V212.4"/>
	<path class="st17" d="M461.5,215h-0.9v-5.2h0.8v0.9c0.3-0.6,0.8-1,1.5-1c0.1,0,0.2,0,0.2,0v0.9h-0.3c-0.8,0-1.3,0.6-1.3,1.4
		L461.5,215"/>
	<path class="st17" d="M468.9,212.7h-2.4v-0.9h2.4V212.7"/>
	<path class="st17" d="M474.9,215.2c-2,0-2.4-2.1-2.4-3.6s0.4-3.6,2.4-3.6s2.4,2.1,2.4,3.6S476.9,215.2,474.9,215.2 M474.9,208.8
		c-1,0-1.5,1.1-1.5,2.8c0,1.8,0.5,2.8,1.5,2.8s1.5-1.1,1.5-2.8S475.9,208.8,474.9,208.8"/>
	<path class="st17" d="M480.5,215h-0.9v-5H478v-0.7c1.1-0.1,1.6-0.2,1.9-1.3h0.7v7H480.5z"/>
	<path class="st17" d="M483,215.2h-0.7l2.5-7.6h0.7L483,215.2"/>
	<path class="st17" d="M487.1,213l-0.8,2.1h-1l2.7-7.2h1.1l2.6,7.2h-1.1L490,213H487.1 M489.7,212.1l-1.1-3.2l-1.1,3.2H489.7"/>
	<path class="st17" d="M492.5,209.8h0.8v0.7c0.2-0.3,0.6-0.9,1.6-0.9c1.4,0,2.2,1.1,2.2,2.6c0,1.2-0.5,2.9-2.3,2.9
		c-0.7,0-1.2-0.3-1.4-0.7v2.6h-0.9L492.5,209.8 M494.8,214.4c1,0,1.4-0.9,1.4-2c0-0.7-0.1-2-1.4-2s-1.4,1.4-1.4,2.2
		C493.3,214.1,494.2,214.4,494.8,214.4"/>
	<path class="st17" d="M499.1,215h-0.9v-5.2h0.8v0.9c0.3-0.6,0.8-1,1.5-1c0.1,0,0.2,0,0.2,0v0.9h-0.3c-0.8,0-1.3,0.6-1.3,1.4
		L499.1,215"/>
</g>
<g>
	<path class="st0" d="M433.2,234.2h0.2c1.3,0,1.7-0.7,1.7-1.2h1.1v7.1h-1.4v-4.9h-1.7L433.2,234.2L433.2,234.2z"/>
	<path class="st0" d="M441.4,234.8c0-0.4-0.3-0.7-0.8-0.7c-0.9,0-1.1,1-1.2,2c0.2-0.3,0.5-0.6,1.3-0.6c1.5,0,2.2,1.1,2.2,2.2
		c0,1.5-1,2.6-2.3,2.6c-2.1,0-2.6-1.8-2.6-3.6c0-1.3,0.2-3.7,2.6-3.7c0.3,0,1.1,0.1,1.4,0.5c0.4,0.4,0.5,0.6,0.7,1.3H441.4
		 M440.5,236.6c-0.5,0-1.1,0.3-1.1,1.2c0,0.8,0.4,1.3,1.1,1.3c0.5,0,1-0.4,1-1.3C441.5,236.9,440.9,236.6,440.5,236.6"/>
</g>
<g>
	<path class="st17" d="M457.8,236.4c0-1.2,0.9-1.7,2.2-1.7c0.4,0,1.9,0.1,1.9,1.5v3c0,0.2,0.1,0.3,0.3,0.3c0.1,0,0.2,0,0.3,0v0.6
		c-0.2,0-0.3,0.1-0.5,0.1c-0.8,0-0.9-0.4-0.9-0.8c-0.3,0.4-0.9,0.8-1.9,0.8s-1.6-0.6-1.6-1.5c0-0.4,0.1-1.5,1.6-1.6l1.4-0.2
		c0.2,0,0.5-0.1,0.5-0.6s-0.4-0.8-1.2-0.8c-1,0-1.1,0.6-1.2,1h-0.9L457.8,236.4z M461,237.4c-0.1,0.1-0.4,0.2-1.4,0.3
		c-0.4,0.1-1.1,0.2-1.1,0.8s0.3,0.9,0.9,0.9c0.8,0,1.6-0.5,1.6-1.2V237.4"/>
	<path class="st17" d="M464.5,235.5v3.4c0,0.4,0.3,0.4,0.5,0.4h0.3v0.7c-0.3,0-0.6,0.1-0.7,0.1c-0.9,0-1.1-0.5-1.1-1.1v-3.4h-0.7
		v-0.7h0.7v-1.5h0.9v1.5h0.8v0.7L464.5,235.5L464.5,235.5z"/>
	<path class="st17" d="M471.9,236.3c0-0.3-0.1-0.9-1.2-0.9c-0.3,0-1,0.1-1,0.7c0,0.4,0.3,0.5,0.9,0.7l0.9,0.2
		c1.1,0.3,1.5,0.7,1.5,1.4c0,1.1-0.9,1.7-2.1,1.7c-2.1,0-2.2-1.2-2.2-1.8h0.8c0,0.4,0.1,1.1,1.4,1.1c0.6,0,1.2-0.2,1.2-0.8
		c0-0.4-0.3-0.6-1-0.8l-1-0.2c-0.7-0.2-1.2-0.5-1.2-1.3c0-1.1,0.9-1.7,2-1.7c1.9,0,2,1.4,2,1.6h-1L471.9,236.3z"/>
	<path class="st17" d="M475,235.5v3.4c0,0.4,0.3,0.4,0.5,0.4h0.3v0.7c-0.3,0-0.6,0.1-0.7,0.1c-0.9,0-1.1-0.5-1.1-1.1v-3.4h-0.7v-0.7
		h0.7v-1.5h0.9v1.5h0.8v0.7L475,235.5L475,235.5z"/>
	<path class="st17" d="M476.6,236.4c0-1.2,0.9-1.7,2.2-1.7c0.4,0,1.9,0.1,1.9,1.5v3c0,0.2,0.1,0.3,0.3,0.3c0.1,0,0.2,0,0.3,0v0.6
		c-0.1,0-0.3,0.1-0.5,0.1c-0.8,0-0.9-0.4-0.9-0.8c-0.3,0.4-0.9,0.8-1.9,0.8s-1.6-0.6-1.6-1.5c0-0.4,0.1-1.5,1.6-1.6l1.4-0.2
		c0.2,0,0.5-0.1,0.5-0.6s-0.4-0.8-1.2-0.8c-1,0-1.1,0.6-1.2,1h-0.9L476.6,236.4z M479.8,237.4c-0.1,0.1-0.4,0.2-1.4,0.3
		c-0.4,0.1-1.1,0.2-1.1,0.8s0.3,0.9,0.9,0.9c0.8,0,1.6-0.5,1.6-1.2V237.4"/>
	<path class="st17" d="M483.2,240h-0.9v-5.2h0.8v0.9c0.3-0.6,0.8-1,1.5-1c0.1,0,0.2,0,0.2,0v0.9h-0.3c-0.8,0-1.3,0.6-1.3,1.4
		L483.2,240"/>
	<path class="st17" d="M487,235.5v3.4c0,0.4,0.3,0.4,0.5,0.4h0.3v0.7c-0.3,0-0.6,0.1-0.7,0.1c-0.9,0-1.1-0.5-1.1-1.1v-3.4h-0.7v-0.7
		h0.7v-1.5h0.9v1.5h0.8v0.7L487,235.5L487,235.5z"/>
	<path class="st17" d="M493.6,234.7c1.7,0,2.4,1.4,2.4,2.8s-0.8,2.8-2.4,2.8c-1.7,0-2.4-1.4-2.4-2.8S491.9,234.7,493.6,234.7
		 M493.6,239.4c1.3,0,1.5-1.3,1.5-2s-0.3-2-1.5-2c-1.3,0-1.5,1.3-1.5,2S492.3,239.4,493.6,239.4"/>
	<path class="st17" d="M498.1,235.5v4.5h-0.9v-4.5h-0.7v-0.7h0.7v-0.9c0-0.8,0.5-1.1,1.4-1.1c0.1,0,0.3,0,0.4,0v0.8
		c-0.1,0-0.2,0-0.4,0c-0.4,0-0.5,0.2-0.5,0.6v0.6h0.9v0.7L498.1,235.5"/>
	<path class="st17" d="M505.5,236.3c0-0.3-0.1-0.9-1.2-0.9c-0.3,0-1,0.1-1,0.7c0,0.4,0.3,0.5,0.9,0.7l0.9,0.2
		c1.1,0.3,1.5,0.7,1.5,1.4c0,1.1-0.9,1.7-2.1,1.7c-2.1,0-2.2-1.2-2.2-1.8h0.8c0,0.4,0.2,1.1,1.4,1.1c0.6,0,1.2-0.2,1.2-0.8
		c0-0.4-0.3-0.6-1-0.8l-1-0.2c-0.7-0.2-1.2-0.5-1.2-1.3c0-1.1,1-1.7,2-1.7c1.9,0,2,1.4,2,1.6h-1L505.5,236.3z"/>
	<path class="st17" d="M507.5,234.8h0.8v0.7c0.2-0.3,0.6-0.9,1.6-0.9c1.4,0,2.2,1.1,2.2,2.6c0,1.2-0.5,2.9-2.3,2.9
		c-0.7,0-1.2-0.3-1.4-0.7v2.6h-0.9V234.8 M509.8,239.4c1,0,1.4-0.9,1.4-2c0-0.7-0.1-2-1.4-2s-1.4,1.4-1.4,2.2
		C508.3,239.1,509.2,239.4,509.8,239.4"/>
	<path class="st17" d="M514.1,240h-0.9v-5.2h0.8v0.9c0.3-0.6,0.8-1,1.5-1c0.1,0,0.2,0,0.2,0v0.9h-0.3c-0.8,0-1.3,0.6-1.3,1.4V240"/>
	<path class="st17" d="M516.6,233.9v-1h0.9v1H516.6 M517.5,240h-0.9v-5.2h0.9V240"/>
	<path class="st17" d="M523.1,240h-0.9v-3.2c0-0.9-0.3-1.4-1.1-1.4c-0.5,0-1.4,0.3-1.4,1.7v2.8h-0.9v-5.2h0.8v0.7
		c0.2-0.3,0.7-0.9,1.6-0.9c0.8,0,1.8,0.3,1.8,1.8v3.7L523.1,240z"/>
	<path class="st17" d="M525.5,235.5v3.4c0,0.4,0.4,0.4,0.5,0.4h0.3v0.7c-0.3,0-0.6,0.1-0.7,0.1c-0.9,0-1.1-0.5-1.1-1.1v-3.4h-0.7
		v-0.7h0.7v-1.5h0.9v1.5h0.8v0.7L525.5,235.5L525.5,235.5z"/>
</g>
<path class="st0" d="M443.3,255.3h-0.8v1.6h-1.4v-1.6h-2.8v-1.2l2.6-4.3h1.6v4.4h0.8L443.3,255.3 M441.1,254.3c0-1.7,0-2.8,0-3
	l-1.8,3H441.1"/>
<g>
	<path class="st17" d="M461.4,253.4c-0.1-0.7-0.5-1.1-1.2-1.1c-1.1,0-1.4,1-1.4,2c0,0.9,0.2,2,1.4,2c0.6,0,1.1-0.4,1.2-1.2h0.8
		c-0.1,0.8-0.6,2-2.1,2s-2.3-1.1-2.3-2.6c0-1.6,0.8-2.9,2.5-2.9c1.4,0,1.9,1,2,1.9L461.4,253.4L461.4,253.4z"/>
	<path class="st17" d="M465.3,251.5c1.7,0,2.4,1.4,2.4,2.8c0,1.3-0.8,2.8-2.4,2.8s-2.4-1.4-2.4-2.8
		C462.9,252.9,463.6,251.5,465.3,251.5 M465.3,256.3c1.3,0,1.5-1.3,1.5-2s-0.3-2-1.5-2c-1.3,0-1.5,1.3-1.5,2S464,256.3,465.3,256.3"
		/>
	<path class="st17" d="M468.7,251.7h0.8v0.7c0.2-0.3,0.6-0.9,1.6-0.9s1.2,0.6,1.4,0.8c0.4-0.5,0.8-0.8,1.6-0.8
		c0.6,0,1.6,0.3,1.6,1.8v3.6h-0.9v-3.4c0-0.7-0.2-1.2-1-1.2c-0.7,0-1.2,0.7-1.2,1.4v3.2h-0.9v-3.6c0-0.4-0.2-1-0.8-1
		c-0.5,0-1.4,0.3-1.4,1.7v2.8h-0.9L468.7,251.7L468.7,251.7z"/>
	<path class="st17" d="M477,251.7h0.8v0.7c0.2-0.3,0.6-0.9,1.6-0.9c1.4,0,2.2,1.1,2.2,2.6c0,1.2-0.5,2.9-2.3,2.9
		c-0.7,0-1.2-0.3-1.4-0.7v2.6H477L477,251.7 M479.3,256.3c1,0,1.4-0.9,1.4-2c0-0.7-0.1-2-1.4-2s-1.4,1.4-1.4,2.2
		C477.8,255.9,478.7,256.3,479.3,256.3"/>
	<path class="st17" d="M483.5,256.9h-0.9v-7.2h0.9V256.9"/>
	<path class="st17" d="M489.3,255.3c0,0.2-0.3,1-0.9,1.4c-0.2,0.2-0.6,0.4-1.4,0.4c-1.5,0-2.3-1.1-2.3-2.6c0-1.6,0.8-2.9,2.5-2.9
		c1.5,0,2.2,1.2,2.2,3h-3.8c0,1.1,0.5,1.7,1.5,1.7c0.8,0,1.3-0.6,1.3-1L489.3,255.3 M488.4,253.9c0-0.8-0.4-1.6-1.5-1.6
		c-0.8,0-1.4,0.8-1.4,1.6H488.4"/>
	<path class="st17" d="M491.5,252.4v3.4c0,0.4,0.3,0.4,0.5,0.4h0.3v0.7c-0.3,0-0.6,0.1-0.7,0.1c-0.9,0-1.1-0.5-1.1-1.1v-3.4h-0.7
		v-0.7h0.7v-1.5h0.9v1.5h0.8v0.7h-0.7L491.5,252.4z"/>
	<path class="st17" d="M497.4,255.3c0,0.2-0.3,1-0.9,1.4c-0.2,0.2-0.6,0.4-1.4,0.4c-1.5,0-2.3-1.1-2.3-2.6c0-1.6,0.8-2.9,2.5-2.9
		c1.5,0,2.2,1.2,2.2,3h-3.8c0,1.1,0.5,1.7,1.5,1.7c0.8,0,1.3-0.6,1.3-1L497.4,255.3 M496.6,253.9c0-0.8-0.4-1.6-1.5-1.6
		c-0.8,0-1.4,0.8-1.4,1.6H496.6"/>
	<path class="st17" d="M502.9,256.9H502v-0.7c-0.4,0.7-1,0.9-1.5,0.9c-1.8,0-2.3-1.7-2.3-2.9c0-1.5,0.8-2.6,2.2-2.6
		c0.9,0,1.3,0.6,1.6,0.9v-0.1v-2.6h0.9L502.9,256.9 M500.5,256.3c0.6,0,1.4-0.4,1.4-1.8c0-0.8-0.1-2.2-1.4-2.2c-1.4,0-1.4,1.3-1.4,2
		C499.1,255.4,499.6,256.3,500.5,256.3"/>
</g>
<g>
	<path class="st0" d="M433.2,269.3h0.2c1.3,0,1.7-0.7,1.7-1.2h1.1v7.1h-1.4v-4.9h-1.7L433.2,269.3L433.2,269.3z"/>
	<path class="st0" d="M438,270.6c0-2.3,1.7-2.5,2.3-2.5c1.4,0,2.4,0.8,2.4,2.2c0,1.2-0.8,1.8-1.5,2.3c-0.9,0.7-1.4,1-1.6,1.3h3.1
		v1.2H438c0-0.8,0.1-1.7,1.6-2.8c1.3-0.9,1.8-1.3,1.8-2.1c0-0.5-0.3-1-1-1c-1,0-1,0.8-1,1.3H438L438,270.6z"/>
</g>
<g>
	<path class="st17" d="M458.8,275.2h-0.9V270h0.8v0.9c0.3-0.6,0.8-1,1.5-1c0.1,0,0.2,0,0.2,0v0.9h-0.3c-0.8,0-1.3,0.6-1.3,1.4
		L458.8,275.2"/>
	<path class="st17" d="M465.4,273.5c0,0.2-0.3,1-0.9,1.4c-0.2,0.2-0.6,0.4-1.4,0.4c-1.5,0-2.3-1.1-2.3-2.6c0-1.6,0.8-2.9,2.5-2.9
		c1.5,0,2.2,1.2,2.2,3h-3.8c0,1.1,0.5,1.7,1.5,1.7c0.8,0,1.3-0.6,1.3-1H465.4 M464.5,272.1c0-0.8-0.4-1.6-1.5-1.6
		c-0.8,0-1.4,0.7-1.4,1.6H464.5"/>
	<path class="st17" d="M466.5,269.9h0.8v0.7c0.2-0.3,0.6-0.9,1.6-0.9s1.2,0.6,1.4,0.8c0.4-0.5,0.8-0.8,1.6-0.8
		c0.6,0,1.6,0.3,1.6,1.8v3.6h-0.9v-3.4c0-0.7-0.2-1.2-1-1.2c-0.7,0-1.2,0.7-1.2,1.4v3.2h-0.9v-3.6c0-0.4-0.2-1-0.8-1
		c-0.5,0-1.4,0.3-1.4,1.7v2.8h-0.9L466.5,269.9L466.5,269.9z"/>
	<path class="st17" d="M474.8,271.5c0-1.2,0.9-1.7,2.2-1.7c0.4,0,1.9,0.1,1.9,1.5v3c0,0.2,0.1,0.3,0.3,0.3c0.1,0,0.2,0,0.3,0v0.6
		c-0.2,0-0.3,0.1-0.5,0.1c-0.8,0-0.9-0.4-0.9-0.8c-0.3,0.4-0.9,0.8-1.9,0.8s-1.6-0.6-1.6-1.5c0-0.4,0.1-1.5,1.6-1.6l1.4-0.2
		c0.2,0,0.5-0.1,0.5-0.6s-0.4-0.8-1.2-0.8c-1,0-1.1,0.6-1.2,1L474.8,271.5L474.8,271.5z M478,272.5c-0.1,0.1-0.4,0.2-1.4,0.3
		c-0.4,0.1-1.1,0.2-1.1,0.8c0,0.6,0.3,0.9,0.9,0.9c0.8,0,1.6-0.5,1.6-1.2V272.5"/>
	<path class="st17" d="M480.4,269v-1h0.9v1H480.4 M481.3,275.2h-0.9V270h0.9V275.2"/>
	<path class="st17" d="M486.9,275.2H486V272c0-0.9-0.3-1.4-1.1-1.4c-0.5,0-1.4,0.3-1.4,1.7v2.8h-0.9v-5.2h0.8v0.7
		c0.2-0.3,0.7-0.9,1.6-0.9c0.8,0,1.8,0.3,1.8,1.8v3.7H486.9z"/>
	<path class="st17" d="M488.2,269v-1h0.9v1H488.2 M489.1,275.2h-0.9V270h0.9V275.2"/>
	<path class="st17" d="M494.6,275.2h-0.9V272c0-0.9-0.3-1.4-1.1-1.4c-0.5,0-1.4,0.3-1.4,1.7v2.8h-0.9v-5.2h0.8v0.7
		c0.2-0.3,0.7-0.9,1.6-0.9c0.8,0,1.8,0.3,1.8,1.8v3.7H494.6z"/>
	<path class="st17" d="M500.3,274.7c0,0.8,0,2.6-2.4,2.6c-0.6,0-1.8-0.2-2-1.6h0.9c0.2,0.8,1,0.8,1.2,0.8c1.5,0,1.5-1.2,1.5-1.8
		v-0.2c-0.2,0.4-0.7,0.7-1.4,0.7c-1.8,0-2.3-1.7-2.3-2.9c0-1.5,0.8-2.6,2.2-2.6c0.9,0,1.3,0.6,1.6,0.9v-0.7h0.8v4.8L500.3,274.7z
		 M498,274.6c0.6,0,1.4-0.4,1.4-1.8c0-0.8-0.1-2.2-1.4-2.2c-1.4,0-1.4,1.3-1.4,2C496.6,273.7,497.1,274.6,498,274.6"/>
</g>
<path class="st18" d="M38.8,62.4v304.2h523.5"/>
<g>
	<path class="st0" d="M464.6,39.2h-0.8l-1.5-5.7h0.8l1.1,4.7l1.3-4.7h0.8l1.3,4.7l1.1-4.7h0.9l-1.5,5.7h-0.8l-1.3-4.8L464.6,39.2"/>
	<path class="st0" d="M471.7,34.9c1.3,0,1.9,1.1,1.9,2.2c0,1.1-0.6,2.2-1.9,2.2s-1.9-1.1-1.9-2.2C469.7,36.1,470.3,34.9,471.7,34.9
		 M471.7,38.8c1,0,1.2-1,1.2-1.6s-0.2-1.6-1.2-1.6s-1.2,1-1.2,1.6S470.7,38.8,471.7,38.8"/>
	<path class="st0" d="M475.2,39.2h-0.7V35h0.7v0.7c0.3-0.5,0.6-0.8,1.2-0.8c0.1,0,0.1,0,0.2,0v0.7h-0.3c-0.7,0-1.1,0.5-1.1,1.1
		L475.2,39.2"/>
	<path class="st0" d="M480.7,39.2h-0.9l-1.3-2.1l-0.6,0.5v1.6h-0.7v-5.7h0.7v3.3l1.8-1.8h0.9l-1.6,1.6L480.7,39.2"/>
	<path class="st0" d="M486,36.5c-0.1-0.6-0.4-0.9-1-0.9c-0.9,0-1.2,0.8-1.2,1.6c0,0.7,0.2,1.6,1.1,1.6c0.5,0,0.9-0.4,1-1h0.7
		c-0.1,0.7-0.5,1.6-1.7,1.6s-1.9-0.9-1.9-2.1c0-1.3,0.6-2.3,2-2.3c1.1,0,1.5,0.8,1.6,1.5L486,36.5"/>
	<path class="st0" d="M489.1,34.9c1.3,0,1.9,1.1,1.9,2.2c0,1.1-0.6,2.2-1.9,2.2s-1.9-1.1-1.9-2.2C487.2,36.1,487.8,34.9,489.1,34.9
		 M489.1,38.8c1,0,1.2-1,1.2-1.6s-0.2-1.6-1.2-1.6s-1.2,1-1.2,1.6S488.1,38.8,489.1,38.8"/>
	<path class="st0" d="M491.9,35.1h0.7v0.6c0.2-0.2,0.5-0.7,1.3-0.7s1,0.5,1.1,0.7c0.4-0.4,0.6-0.7,1.3-0.7c0.4,0,1.3,0.2,1.3,1.4
		v2.9h-0.7v-2.7c0-0.6-0.2-1-0.8-1c-0.6,0-1,0.6-1,1.1v2.6h-0.7v-2.9c0-0.4-0.1-0.8-0.7-0.8c-0.4,0-1.1,0.3-1.1,1.4v2.3h-0.7
		L491.9,35.1"/>
	<path class="st0" d="M498.5,35.1h0.7v0.6c0.2-0.2,0.5-0.7,1.2-0.7c1.1,0,1.7,0.9,1.7,2.1c0,1-0.4,2.3-1.8,2.3
		c-0.6,0-0.9-0.3-1.1-0.6v2.1h-0.7L498.5,35.1 M500.3,38.8c0.8,0,1.1-0.7,1.1-1.6c0-0.5-0.1-1.6-1.1-1.6s-1.1,1.1-1.1,1.8
		C499.1,38.5,499.8,38.8,500.3,38.8"/>
	<path class="st0" d="M503.7,39.2H503v-5.7h0.7V39.2"/>
	<path class="st0" d="M508.3,37.9c0,0.2-0.2,0.8-0.7,1.1c-0.2,0.1-0.5,0.3-1.1,0.3c-1.2,0-1.9-0.9-1.9-2.1c0-1.3,0.6-2.3,2-2.3
		c1.2,0,1.8,1,1.8,2.4h-3.1c0,0.9,0.4,1.4,1.2,1.4c0.7,0,1.1-0.5,1.1-0.8L508.3,37.9 M507.6,36.8c0-0.6-0.3-1.2-1.2-1.2
		c-0.6,0-1.2,0.6-1.2,1.2H507.6"/>
	<path class="st0" d="M510.1,35.6v2.7c0,0.3,0.3,0.3,0.4,0.3h0.2v0.6c-0.3,0-0.5,0.1-0.5,0.1c-0.7,0-0.8-0.4-0.8-0.9v-2.8h-0.6V35
		h0.6v-1.2h0.7V35h0.7v0.6L510.1,35.6"/>
	<path class="st0" d="M514.8,37.9c0,0.2-0.2,0.8-0.7,1.1c-0.2,0.1-0.5,0.3-1.1,0.3c-1.2,0-1.9-0.9-1.9-2.1c0-1.3,0.6-2.3,2-2.3
		c1.2,0,1.8,1,1.8,2.4h-3.1c0,0.9,0.4,1.4,1.2,1.4c0.7,0,1.1-0.5,1.1-0.8L514.8,37.9 M514.1,36.8c0-0.6-0.3-1.2-1.2-1.2
		c-0.6,0-1.2,0.6-1.2,1.2H514.1"/>
	<path class="st0" d="M519.2,39.2h-0.7v-0.6c-0.3,0.6-0.8,0.7-1.2,0.7c-1.4,0-1.8-1.3-1.8-2.3c0-1.2,0.6-2.1,1.7-2.1
		c0.8,0,1.1,0.5,1.2,0.7v-0.1v-2.1h0.7L519.2,39.2L519.2,39.2z M517.3,38.8c0.4,0,1.1-0.3,1.1-1.4c0-0.7-0.1-1.8-1.1-1.8
		c-1.1,0-1.1,1-1.1,1.6C516.2,38.1,516.6,38.8,517.3,38.8"/>
	<path class="st0" d="M464.6,54.7h-0.8l-1.5-5.7h0.8l1.1,4.7l1.3-4.7h0.8l1.3,4.7l1.1-4.7h0.9l-1.5,5.7h-0.8l-1.3-4.8L464.6,54.7"/>
	<path class="st0" d="M471.7,50.4c1.3,0,1.9,1.1,1.9,2.2c0,1.1-0.6,2.2-1.9,2.2s-1.9-1.1-1.9-2.2C469.7,51.5,470.3,50.4,471.7,50.4
		 M471.7,54.2c1,0,1.2-1,1.2-1.6s-0.2-1.6-1.2-1.6s-1.2,1-1.2,1.6S470.7,54.2,471.7,54.2"/>
	<path class="st0" d="M475.2,54.7h-0.7v-4.2h0.7v0.7c0.3-0.5,0.6-0.8,1.2-0.8c0.1,0,0.1,0,0.2,0v0.7h-0.3c-0.7,0-1.1,0.5-1.1,1.1
		L475.2,54.7"/>
	<path class="st0" d="M480.7,54.7h-0.9l-1.3-2.1l-0.6,0.5v1.6h-0.7V49h0.7v3.3l1.8-1.8h0.9l-1.6,1.6L480.7,54.7"/>
	<path class="st0" d="M484.3,51.1v3.6h-0.7v-3.6H483v-0.6h0.6v-0.7c0-0.6,0.4-0.9,1.1-0.9c0.1,0,0.2,0,0.3,0v0.6c-0.1,0-0.2,0-0.3,0
		c-0.3,0-0.4,0.2-0.4,0.5v0.5h0.7v0.6L484.3,51.1"/>
	<path class="st0" d="M487.1,50.4c1.3,0,1.9,1.1,1.9,2.2c0,1.1-0.6,2.2-1.9,2.2s-1.9-1.1-1.9-2.2C485.2,51.5,485.8,50.4,487.1,50.4
		 M487.1,54.2c1,0,1.2-1,1.2-1.6s-0.2-1.6-1.2-1.6s-1.2,1-1.2,1.6S486.1,54.2,487.1,54.2"/>
	<path class="st0" d="M490.6,54.7h-0.7v-4.2h0.7v0.7c0.3-0.5,0.6-0.8,1.2-0.8c0.1,0,0.1,0,0.2,0v0.7h-0.3c-0.7,0-1.1,0.5-1.1,1.1
		L490.6,54.7"/>
	<path class="st0" d="M495.9,53.4c0,0.2-0.2,0.8-0.7,1.1c-0.2,0.1-0.5,0.3-1.1,0.3c-1.2,0-1.9-0.9-1.9-2.1c0-1.3,0.6-2.3,2-2.3
		c1.2,0,1.8,1,1.8,2.4h-3.1c0,0.9,0.4,1.4,1.2,1.4c0.7,0,1.1-0.5,1.1-0.8L495.9,53.4 M495.2,52.3c0-0.6-0.3-1.2-1.2-1.2
		c-0.6,0-1.2,0.6-1.2,1.2H495.2"/>
	<path class="st0" d="M499.4,51.9c-0.1-0.6-0.4-0.9-1-0.9c-0.9,0-1.2,0.8-1.2,1.6c0,0.7,0.2,1.6,1.1,1.6c0.5,0,0.9-0.4,1-1h0.7
		c-0.1,0.7-0.5,1.6-1.7,1.6s-1.9-0.9-1.9-2.1c0-1.3,0.6-2.3,2-2.3c1.1,0,1.5,0.8,1.6,1.5L499.4,51.9"/>
	<path class="st0" d="M500.8,51.8c0-1,0.7-1.4,1.7-1.4c0.3,0,1.6,0.1,1.6,1.2V54c0,0.2,0.1,0.2,0.2,0.2s0.2,0,0.2,0v0.5
		c-0.1,0-0.2,0.1-0.4,0.1c-0.6,0-0.7-0.3-0.7-0.6c-0.3,0.3-0.7,0.7-1.5,0.7s-1.3-0.5-1.3-1.2c0-0.4,0.1-1.2,1.3-1.3l1.2-0.1
		c0.2,0,0.4-0.1,0.4-0.5s-0.3-0.7-1-0.7c-0.8,0-0.9,0.5-1,0.8h-0.7L500.8,51.8z M503.3,52.5c-0.1,0.1-0.3,0.2-1.2,0.3
		c-0.3,0-0.9,0.2-0.9,0.7s0.2,0.7,0.8,0.7c0.7,0,1.3-0.4,1.3-1L503.3,52.5"/>
	<path class="st0" d="M507.6,51.7c0-0.3-0.1-0.7-1-0.7c-0.2,0-0.8,0.1-0.8,0.6c0,0.3,0.2,0.4,0.8,0.6l0.7,0.2
		c0.9,0.2,1.2,0.5,1.2,1.1c0,0.9-0.7,1.4-1.7,1.4c-1.7,0-1.8-1-1.8-1.5h0.7c0,0.3,0.1,0.9,1.1,0.9c0.5,0,1-0.2,1-0.7
		c0-0.3-0.2-0.4-0.8-0.6l-0.8-0.2c-0.6-0.1-1-0.4-1-1c0-0.9,0.8-1.3,1.6-1.3c1.5,0,1.6,1.1,1.6,1.3L507.6,51.7L507.6,51.7z"/>
	<path class="st0" d="M510.1,51.1v2.7c0,0.3,0.3,0.3,0.4,0.3h0.2v0.6c-0.3,0-0.5,0.1-0.5,0.1c-0.7,0-0.8-0.4-0.8-0.9v-2.8h-0.6v-0.6
		h0.6v-1.2h0.7v1.2h0.7v0.6L510.1,51.1"/>
	<path class="st0" d="M464.6,70.1h-0.8l-1.5-5.7h0.8l1.1,4.7l1.3-4.7h0.8l1.3,4.7l1.1-4.7h0.9l-1.5,5.7h-0.8l-1.3-4.8L464.6,70.1"/>
	<path class="st0" d="M471.7,65.8c1.3,0,1.9,1.1,1.9,2.2s-0.6,2.2-1.9,2.2s-1.9-1.1-1.9-2.2C469.7,66.9,470.3,65.8,471.7,65.8
		 M471.7,69.6c1,0,1.2-1,1.2-1.6s-0.2-1.6-1.2-1.6s-1.2,1-1.2,1.6S470.7,69.6,471.7,69.6"/>
	<path class="st0" d="M475.2,70.1h-0.7v-4.2h0.7v0.7c0.3-0.5,0.6-0.8,1.2-0.8c0.1,0,0.1,0,0.2,0v0.7h-0.3c-0.7,0-1.1,0.5-1.1,1.1
		L475.2,70.1"/>
	<path class="st0" d="M480.7,70.1h-0.9l-1.3-2.1l-0.6,0.5v1.6h-0.7v-5.7h0.7v3.3l1.8-1.8h0.9l-1.6,1.6L480.7,70.1"/>
	<path class="st0" d="M484.2,70.1h-0.7v-4.2h0.7v0.7c0.3-0.5,0.6-0.8,1.2-0.8c0.1,0,0.1,0,0.2,0v0.7h-0.3c-0.7,0-1.1,0.5-1.1,1.1
		L484.2,70.1"/>
	<path class="st0" d="M489.5,68.8c0,0.2-0.2,0.8-0.7,1.1c-0.2,0.1-0.5,0.3-1.1,0.3c-1.2,0-1.9-0.9-1.9-2.1c0-1.3,0.6-2.3,2-2.3
		c1.2,0,1.8,1,1.8,2.4h-3.1c0,0.9,0.4,1.4,1.2,1.4c0.7,0,1.1-0.5,1.1-0.8H489.5 M488.8,67.7c0-0.6-0.3-1.2-1.2-1.2
		c-0.6,0-1.2,0.6-1.2,1.2H488.8"/>
	<path class="st0" d="M490.4,65.9h0.7v0.6c0.2-0.2,0.5-0.7,1.3-0.7s1,0.5,1.1,0.7c0.4-0.4,0.6-0.7,1.3-0.7c0.4,0,1.3,0.2,1.3,1.4
		v2.9h-0.7v-2.7c0-0.6-0.2-1-0.8-1c-0.6,0-1,0.6-1,1.1v2.6h-0.7v-2.9c0-0.4-0.1-0.8-0.7-0.8c-0.4,0-1.1,0.3-1.1,1.4v2.3h-0.7
		L490.4,65.9"/>
	<path class="st0" d="M497,67.2c0-1,0.7-1.4,1.7-1.4c0.3,0,1.6,0.1,1.6,1.2v2.4c0,0.2,0.1,0.2,0.2,0.2s0.2,0,0.2,0v0.5
		c-0.1,0-0.2,0.1-0.4,0.1c-0.6,0-0.7-0.3-0.7-0.6c-0.3,0.3-0.7,0.7-1.5,0.7s-1.3-0.5-1.3-1.2c0-0.4,0.1-1.2,1.3-1.3l1.2-0.1
		c0.2,0,0.4-0.1,0.4-0.5s-0.3-0.7-1-0.7c-0.8,0-0.9,0.5-1,0.8L497,67.2L497,67.2z M499.6,68c-0.1,0.1-0.3,0.2-1.2,0.3
		c-0.3,0-0.9,0.2-0.9,0.7s0.2,0.7,0.8,0.7c0.7,0,1.3-0.4,1.3-1L499.6,68"/>
	<path class="st0" d="M501.5,65.2v-0.8h0.7v0.8H501.5 M502.2,70.1h-0.7v-4.2h0.7V70.1"/>
	<path class="st0" d="M506.7,70.1H506v-2.6c0-0.7-0.2-1.1-0.9-1.1c-0.4,0-1.1,0.3-1.1,1.4v2.3h-0.7v-4.2h0.7v0.6
		c0.2-0.2,0.5-0.7,1.3-0.7c0.6,0,1.5,0.3,1.5,1.5L506.7,70.1L506.7,70.1z"/>
	<path class="st0" d="M507.7,65.2v-0.8h0.7v0.8H507.7 M508.4,70.1h-0.7v-4.2h0.7V70.1"/>
	<path class="st0" d="M512.9,70.1h-0.7v-2.6c0-0.7-0.2-1.1-0.9-1.1c-0.4,0-1.1,0.3-1.1,1.4v2.3h-0.7v-4.2h0.7v0.6
		c0.2-0.2,0.5-0.7,1.3-0.7c0.6,0,1.5,0.3,1.5,1.5L512.9,70.1L512.9,70.1z"/>
	<path class="st0" d="M517.4,69.8c0,0.6,0,2.1-1.9,2.1c-0.5,0-1.5-0.1-1.6-1.2h0.7c0.1,0.7,0.8,0.7,0.9,0.7c1.2,0,1.2-1,1.2-1.5
		v-0.2c-0.2,0.3-0.6,0.6-1.1,0.6c-1.4,0-1.8-1.3-1.8-2.3c0-1.2,0.6-2.1,1.7-2.1c0.8,0,1.1,0.5,1.2,0.7V66h0.7L517.4,69.8
		 M515.6,69.6c0.4,0,1.1-0.3,1.1-1.4c0-0.7-0.1-1.8-1.1-1.8c-1.1,0-1.1,1-1.1,1.6C514.5,68.9,514.8,69.6,515.6,69.6"/>
</g>
<path class="st16" d="M447.5,63.1H458v10.5h-10.5V63.1z"/>
<g>
	<path class="st0" d="M464.6,85.2h-0.8l-1.5-5.7h0.8l1.1,4.7l1.3-4.7h0.8l1.3,4.7l1.1-4.7h0.9l-1.5,5.7h-0.8l-1.3-4.8L464.6,85.2"/>
	<path class="st0" d="M471.7,80.9c1.3,0,1.9,1.1,1.9,2.2s-0.6,2.2-1.9,2.2s-1.9-1.1-1.9-2.2C469.7,82,470.3,80.9,471.7,80.9
		 M471.7,84.7c1,0,1.2-1,1.2-1.6s-0.2-1.6-1.2-1.6s-1.2,1-1.2,1.6S470.7,84.7,471.7,84.7"/>
	<path class="st0" d="M475.2,85.2h-0.7V81h0.7v0.7c0.3-0.5,0.6-0.8,1.2-0.8c0.1,0,0.1,0,0.2,0v0.7h-0.3c-0.7,0-1.1,0.5-1.1,1.1
		L475.2,85.2"/>
	<path class="st0" d="M480.7,85.2h-0.9l-1.3-2.1l-0.6,0.5v1.6h-0.7v-5.7h0.7v3.3l1.8-1.8h0.9l-1.6,1.6L480.7,85.2"/>
	<path class="st0" d="M483.4,82.3c0-1,0.7-1.4,1.7-1.4c0.3,0,1.6,0.1,1.6,1.2v2.4c0,0.2,0.1,0.2,0.2,0.2s0.2,0,0.2,0v0.5
		c-0.1,0-0.2,0.1-0.4,0.1c-0.6,0-0.7-0.3-0.7-0.6c-0.3,0.3-0.7,0.7-1.5,0.7s-1.3-0.5-1.3-1.2c0-0.4,0.1-1.2,1.3-1.3l1.2-0.1
		c0.2,0,0.4-0.1,0.4-0.5s-0.3-0.7-1-0.7c-0.8,0-0.9,0.5-1,0.8L483.4,82.3L483.4,82.3z M486,83.1c-0.1,0.1-0.3,0.2-1.2,0.3
		c-0.3,0-0.9,0.2-0.9,0.7s0.2,0.7,0.8,0.7c0.7,0,1.3-0.4,1.3-1L486,83.1"/>
	<path class="st0" d="M491.3,85.2h-0.7v-0.6c-0.3,0.6-0.8,0.7-1.2,0.7c-1.4,0-1.8-1.3-1.8-2.3c0-1.2,0.6-2.1,1.7-2.1
		c0.8,0,1.1,0.5,1.2,0.7v-0.1v-2.1h0.7L491.3,85.2L491.3,85.2z M489.5,84.7c0.4,0,1.1-0.3,1.1-1.4c0-0.7-0.1-1.8-1.1-1.8
		c-1.1,0-1.1,1-1.1,1.6C488.3,84,488.7,84.7,489.5,84.7"/>
	<path class="st0" d="M495.8,85.2h-0.7v-0.6c-0.3,0.6-0.8,0.7-1.2,0.7c-1.4,0-1.8-1.3-1.8-2.3c0-1.2,0.6-2.1,1.7-2.1
		c0.8,0,1.1,0.5,1.2,0.7v-0.1v-2.1h0.7L495.8,85.2L495.8,85.2z M493.9,84.7c0.4,0,1.1-0.3,1.1-1.4c0-0.7-0.1-1.8-1.1-1.8
		c-1.1,0-1.1,1-1.1,1.6C492.8,84,493.2,84.7,493.9,84.7"/>
	<path class="st0" d="M500.3,83.9c0,0.2-0.2,0.8-0.7,1.1c-0.2,0.1-0.5,0.3-1.1,0.3c-1.2,0-1.9-0.9-1.9-2.1c0-1.3,0.6-2.3,2-2.3
		c1.2,0,1.8,1,1.8,2.4h-3.1c0,0.9,0.4,1.4,1.2,1.4c0.7,0,1.1-0.5,1.1-0.8H500.3 M499.6,82.8c0-0.6-0.3-1.2-1.2-1.2
		c-0.6,0-1.2,0.6-1.2,1.2H499.6"/>
	<path class="st0" d="M504.7,85.2H504v-0.6c-0.3,0.6-0.8,0.7-1.2,0.7c-1.4,0-1.8-1.3-1.8-2.3c0-1.2,0.6-2.1,1.7-2.1
		c0.8,0,1.1,0.5,1.2,0.7v-0.1v-2.1h0.7L504.7,85.2L504.7,85.2z M502.8,84.7c0.4,0,1.1-0.3,1.1-1.4c0-0.7-0.1-1.8-1.1-1.8
		c-1.1,0-1.1,1-1.1,1.6C501.7,84,502.1,84.7,502.8,84.7"/>
</g>
<path class="st19" d="M447.5,78.2H458v10.5h-10.5V78.2z"/>
<path class="st10" d="M447.5,47.3H458v10.5h-10.5V47.3z"/>
<path class="st20" d="M447.5,31.6H458v10.5h-10.5V31.6z"/>
</svg>
